<svg width="430" height="932" viewBox="0 0 430 932" fill="none" xmlns="http://www.w3.org/2000/svg">
<g clip-path="url(#clip0_6_31)">
<rect width="430" height="932" fill="#CBF3F0"/>
<path d="M99.1541 90.3985C-1.92009 90.3985 -11.2825 160.421 -3.29872 195.715L-31 74.2899L-13.6461 -23.5556L139.068 -51C153.53 -32.5048 184.304 2.57632 191.708 -5.06039C200.964 -14.6063 225.837 90.3985 99.1541 90.3985Z" fill="#5C27FE"/>
<path d="M314.905 846.448C415.439 856.883 431.98 788.201 427.683 752.271L442.7 875.908L415.338 971.439L260.606 982.971C248.131 963.081 221.143 925.011 212.99 931.842C202.799 940.382 188.898 833.37 314.905 846.448Z" fill="#5C27FE"/>
<path d="M145.585 178.88C143.798 178.88 142.118 178.68 140.545 178.28C138.998 177.907 137.625 177.307 136.425 176.48C135.252 175.68 134.332 174.627 133.665 173.32C132.998 172.04 132.665 170.493 132.665 168.68C132.665 168.067 132.705 167.373 132.785 166.6C132.892 165.827 133.105 164.907 133.425 163.84C133.745 162.747 134.238 161.48 134.905 160.04L139.785 161.92C139.412 162.88 139.105 163.693 138.865 164.36C138.652 165 138.492 165.587 138.385 166.12C138.305 166.627 138.265 167.16 138.265 167.72C138.265 168.893 138.598 169.893 139.265 170.72C139.932 171.573 140.878 172.213 142.105 172.64C143.358 173.067 144.838 173.28 146.545 173.28C147.718 173.28 148.798 173.187 149.785 173C150.798 172.84 151.705 172.6 152.505 172.28C153.305 171.96 154.012 171.587 154.625 171.16C155.238 170.76 155.745 170.307 156.145 169.8C156.572 169.32 156.878 168.827 157.065 168.32C157.305 167.627 157.478 166.853 157.585 166C157.692 165.147 157.745 164.253 157.745 163.32C157.745 162.147 157.638 161.16 157.425 160.36C157.212 159.56 156.905 158.96 156.505 158.56C156.105 158.133 155.625 157.92 155.065 157.92C154.692 157.92 154.345 158.013 154.025 158.2C153.732 158.387 153.465 158.627 153.225 158.92C153.012 159.213 152.838 159.533 152.705 159.88C152.598 160.2 152.545 160.52 152.545 160.84C152.545 161.187 152.625 161.507 152.785 161.8C152.945 162.067 153.252 162.293 153.705 162.48C154.185 162.64 154.905 162.747 155.865 162.8C156.825 162.827 158.105 162.76 159.705 162.6L166.225 162.56C167.238 162.56 167.958 162.827 168.385 163.36C168.812 163.867 169.025 164.507 169.025 165.28C169.025 166.133 168.745 166.84 168.185 167.4C167.625 167.933 166.838 168.2 165.825 168.2H156.065C154.545 168.2 153.225 168.067 152.105 167.8C150.985 167.533 150.052 167.133 149.305 166.6C148.585 166.04 148.038 165.36 147.665 164.56C147.292 163.76 147.105 162.84 147.105 161.8C147.105 160.6 147.318 159.44 147.745 158.32C148.198 157.173 148.812 156.16 149.585 155.28C150.358 154.4 151.225 153.707 152.185 153.2C153.172 152.667 154.185 152.4 155.225 152.4C156.905 152.4 158.345 152.867 159.545 153.8C160.772 154.733 161.705 156.067 162.345 157.8C163.012 159.507 163.345 161.573 163.345 164C163.345 165.227 163.158 166.507 162.785 167.84C162.412 169.173 161.945 170.373 161.385 171.44C160.718 172.667 159.878 173.747 158.865 174.68C157.852 175.613 156.678 176.387 155.345 177C154.012 177.64 152.532 178.107 150.905 178.4C149.278 178.72 147.505 178.88 145.585 178.88ZM158.665 148.76C157.892 148.76 157.225 148.493 156.665 147.96C156.132 147.4 155.865 146.747 155.865 146C155.865 145.227 156.132 144.56 156.665 144C157.225 143.44 157.892 143.16 158.665 143.16C159.412 143.16 160.052 143.44 160.585 144C161.118 144.56 161.385 145.227 161.385 146C161.385 146.747 161.118 147.4 160.585 147.96C160.052 148.493 159.412 148.76 158.665 148.76ZM151.745 148.72C150.972 148.72 150.305 148.453 149.745 147.92C149.212 147.36 148.945 146.707 148.945 145.96C148.945 145.187 149.212 144.52 149.745 143.96C150.305 143.4 150.972 143.12 151.745 143.12C152.492 143.12 153.132 143.4 153.665 143.96C154.198 144.52 154.465 145.187 154.465 145.96C154.465 146.707 154.198 147.36 153.665 147.92C153.132 148.453 152.492 148.72 151.745 148.72ZM165.844 168.2L166.244 162.6C167.204 162.6 168.03 162.507 168.724 162.32C169.417 162.133 170.004 161.76 170.484 161.2C170.964 160.613 171.364 159.76 171.684 158.64C172.03 157.52 172.337 156.027 172.604 154.16L177.844 155.04C177.79 155.44 177.71 155.907 177.604 156.44C177.524 156.973 177.444 157.52 177.364 158.08C177.31 158.613 177.284 159.12 177.284 159.6C177.284 160.08 177.377 160.507 177.564 160.88C177.75 161.253 178.044 161.573 178.444 161.84C178.87 162.08 179.417 162.267 180.084 162.4C180.777 162.533 181.617 162.6 182.604 162.6C183.617 162.6 184.337 162.867 184.764 163.4C185.19 163.907 185.404 164.547 185.404 165.32C185.404 166.147 185.124 166.84 184.564 167.4C184.03 167.933 183.244 168.2 182.204 168.2C181.004 168.2 179.91 168.107 178.924 167.92C177.964 167.733 177.124 167.427 176.404 167C175.71 166.547 175.137 165.96 174.684 165.24C174.257 164.493 173.99 163.587 173.884 162.52H175.804C175.324 163.8 174.71 164.827 173.964 165.6C173.244 166.347 172.43 166.907 171.524 167.28C170.617 167.653 169.67 167.893 168.684 168C167.724 168.133 166.777 168.2 165.844 168.2ZM177.004 177.48C176.23 177.48 175.564 177.2 175.004 176.64C174.47 176.107 174.204 175.467 174.204 174.72C174.204 173.947 174.47 173.28 175.004 172.72C175.564 172.16 176.23 171.88 177.004 171.88C177.75 171.88 178.39 172.16 178.924 172.72C179.457 173.28 179.724 173.947 179.724 174.72C179.724 175.467 179.457 176.107 178.924 176.64C178.39 177.2 177.75 177.48 177.004 177.48ZM170.084 177.48C169.31 177.48 168.644 177.2 168.084 176.64C167.55 176.107 167.284 175.467 167.284 174.72C167.284 173.947 167.55 173.28 168.084 172.72C168.644 172.16 169.31 171.88 170.084 171.88C170.83 171.88 171.47 172.16 172.004 172.72C172.537 173.28 172.804 173.947 172.804 174.72C172.804 175.467 172.537 176.107 172.004 176.64C171.47 177.2 170.83 177.48 170.084 177.48ZM182.211 168.2L182.611 162.6C183.624 162.6 184.424 162.507 185.011 162.32C185.624 162.133 186.104 161.76 186.451 161.2C186.824 160.613 187.131 159.76 187.371 158.64C187.638 157.52 187.904 156.027 188.171 154.16L193.411 155.04C193.358 155.44 193.278 155.907 193.171 156.44C193.091 156.973 193.011 157.52 192.931 158.08C192.878 158.613 192.851 159.12 192.851 159.6C192.851 160.24 192.984 160.787 193.251 161.24C193.544 161.667 194.051 162 194.771 162.24C195.518 162.48 196.584 162.6 197.971 162.6C198.984 162.6 199.704 162.867 200.131 163.4C200.558 163.907 200.771 164.547 200.771 165.32C200.771 166.147 200.491 166.84 199.931 167.4C199.398 167.933 198.611 168.2 197.571 168.2C195.731 168.2 194.238 168.027 193.091 167.68C191.944 167.333 191.091 166.747 190.531 165.92C189.971 165.093 189.611 163.96 189.451 162.52H191.371C190.891 163.8 190.331 164.827 189.691 165.6C189.051 166.347 188.331 166.907 187.531 167.28C186.731 167.653 185.878 167.893 184.971 168C184.091 168.133 183.171 168.2 182.211 168.2ZM189.331 177.4C188.558 177.4 187.891 177.133 187.331 176.6C186.798 176.067 186.531 175.413 186.531 174.64C186.531 173.867 186.798 173.187 187.331 172.6C187.891 172.04 188.558 171.76 189.331 171.76C190.104 171.76 190.758 172.04 191.291 172.6C191.851 173.187 192.131 173.867 192.131 174.64C192.131 175.413 191.851 176.067 191.291 176.6C190.758 177.133 190.104 177.4 189.331 177.4ZM228.003 168.2C226.643 168.2 225.336 168.08 224.083 167.84C222.829 167.573 221.696 167.227 220.683 166.8C219.696 166.373 218.883 165.893 218.243 165.36L221.843 161.48C222.803 161.88 223.789 162.173 224.803 162.36C225.816 162.52 227.016 162.6 228.403 162.6C229.416 162.6 230.136 162.867 230.563 163.4C231.016 163.907 231.243 164.547 231.243 165.32C231.243 166.147 230.963 166.84 230.403 167.4C229.843 167.933 229.043 168.2 228.003 168.2ZM197.562 168.2L197.963 162.6H206.923C209.429 162.6 211.509 162.507 213.163 162.32C214.843 162.133 216.176 161.867 217.163 161.52C218.149 161.147 218.843 160.72 219.243 160.24C219.669 159.76 219.883 159.24 219.883 158.68C219.883 158.173 219.763 157.693 219.523 157.24C219.283 156.76 218.923 156.373 218.443 156.08C217.963 155.787 217.336 155.64 216.563 155.64C215.576 155.64 214.589 155.88 213.603 156.36C212.616 156.813 211.656 157.44 210.723 158.24C209.789 159.013 208.896 159.88 208.043 160.84C207.216 161.8 206.456 162.773 205.763 163.76L199.723 162.92C200.843 161.187 202.056 159.547 203.363 158C204.696 156.427 206.096 155.053 207.562 153.88C209.056 152.68 210.589 151.747 212.163 151.08C213.763 150.387 215.389 150.04 217.043 150.04C218.803 150.04 220.309 150.4 221.563 151.12C222.816 151.84 223.776 152.827 224.443 154.08C225.136 155.333 225.483 156.787 225.483 158.44C225.483 160.173 224.989 161.733 224.003 163.12C223.043 164.507 221.403 165.653 219.083 166.56C218.096 166.933 217.029 167.24 215.883 167.48C214.736 167.72 213.389 167.893 211.843 168C210.296 168.133 208.443 168.2 206.283 168.2H197.562ZM201.723 164.12L200.883 138.72H206.483L207.203 157.92L201.723 164.12ZM228.031 168.2L228.431 162.6C229.391 162.6 230.218 162.507 230.911 162.32C231.605 162.133 232.191 161.76 232.671 161.2C233.151 160.613 233.551 159.76 233.871 158.64C234.218 157.52 234.525 156.027 234.791 154.16L240.031 155.04C239.978 155.44 239.898 155.907 239.791 156.44C239.711 156.973 239.631 157.52 239.551 158.08C239.498 158.613 239.471 159.12 239.471 159.6C239.471 160.08 239.565 160.507 239.751 160.88C239.938 161.253 240.231 161.573 240.631 161.84C241.058 162.08 241.605 162.267 242.271 162.4C242.965 162.533 243.805 162.6 244.791 162.6C245.805 162.6 246.525 162.867 246.951 163.4C247.378 163.907 247.591 164.547 247.591 165.32C247.591 166.147 247.311 166.84 246.751 167.4C246.218 167.933 245.431 168.2 244.391 168.2C243.191 168.2 242.098 168.107 241.111 167.92C240.151 167.733 239.311 167.427 238.591 167C237.898 166.547 237.325 165.96 236.871 165.24C236.445 164.493 236.178 163.587 236.071 162.52H237.991C237.511 163.8 236.898 164.827 236.151 165.6C235.431 166.347 234.618 166.907 233.711 167.28C232.805 167.653 231.858 167.893 230.871 168C229.911 168.133 228.965 168.2 228.031 168.2ZM240.871 150.56C240.098 150.56 239.431 150.293 238.871 149.76C238.338 149.2 238.071 148.547 238.071 147.8C238.071 147.027 238.338 146.36 238.871 145.8C239.431 145.24 240.098 144.96 240.871 144.96C241.618 144.96 242.258 145.24 242.791 145.8C243.325 146.36 243.591 147.027 243.591 147.8C243.591 148.547 243.325 149.2 242.791 149.76C242.258 150.293 241.618 150.56 240.871 150.56ZM233.951 150.52C233.178 150.52 232.511 150.253 231.951 149.72C231.418 149.16 231.151 148.507 231.151 147.76C231.151 146.987 231.418 146.32 231.951 145.76C232.511 145.2 233.178 144.92 233.951 144.92C234.698 144.92 235.338 145.2 235.871 145.76C236.405 146.32 236.671 146.987 236.671 147.76C236.671 148.507 236.405 149.16 235.871 149.72C235.338 150.253 234.698 150.52 233.951 150.52ZM244.398 168.2L244.798 162.6C246.025 162.6 246.905 162.48 247.438 162.24C247.972 161.973 248.292 161.493 248.398 160.8C248.505 160.08 248.532 159.04 248.478 157.68L247.758 138.72H253.398L254.198 158.08C254.252 159.627 254.185 161.027 253.998 162.28C253.838 163.507 253.425 164.56 252.758 165.44C252.118 166.32 251.118 167 249.758 167.48C248.425 167.96 246.638 168.2 244.398 168.2ZM259.473 168L258.633 138.72H264.233L265.073 168H259.473ZM299.484 168.84L300.524 163.24C303.111 163.24 305.364 163.173 307.284 163.04C309.204 162.88 310.791 162.653 312.044 162.36C313.324 162.04 314.271 161.627 314.884 161.12C315.524 160.613 315.844 160 315.844 159.28C315.844 158.32 315.684 157.173 315.364 155.84C315.044 154.48 314.631 153.107 314.124 151.72L319.364 150.2C319.711 151.107 320.044 152.107 320.364 153.2C320.684 154.267 320.938 155.347 321.124 156.44C321.338 157.507 321.444 158.507 321.444 159.44C321.444 161.093 321.084 162.52 320.364 163.72C319.644 164.893 318.444 165.867 316.764 166.64C315.111 167.387 312.871 167.933 310.044 168.28C307.218 168.653 303.698 168.84 299.484 168.84ZM299.444 168.84C296.564 168.84 294.124 168.613 292.124 168.16C290.151 167.733 288.538 167.12 287.284 166.32C286.058 165.493 285.164 164.533 284.604 163.44C284.044 162.347 283.764 161.147 283.764 159.84C283.764 158.987 283.831 158.133 283.964 157.28C284.124 156.4 284.311 155.547 284.524 154.72C284.764 153.893 284.978 153.147 285.164 152.48L290.164 153.64C290.058 154.12 289.938 154.64 289.804 155.2C289.671 155.76 289.564 156.307 289.484 156.84C289.404 157.347 289.364 157.813 289.364 158.24C289.364 159.227 289.711 160.107 290.404 160.88C291.124 161.627 292.298 162.213 293.924 162.64C295.551 163.04 297.738 163.24 300.484 163.24L301.284 167.56L299.444 168.84ZM306.044 150.56C305.271 150.56 304.604 150.293 304.044 149.76C303.511 149.2 303.244 148.547 303.244 147.8C303.244 147.027 303.511 146.36 304.044 145.8C304.604 145.24 305.271 144.96 306.044 144.96C306.791 144.96 307.431 145.24 307.964 145.8C308.498 146.36 308.764 147.027 308.764 147.8C308.764 148.547 308.498 149.2 307.964 149.76C307.431 150.293 306.791 150.56 306.044 150.56ZM299.124 150.52C298.351 150.52 297.684 150.253 297.124 149.72C296.591 149.16 296.324 148.507 296.324 147.76C296.324 146.987 296.591 146.32 297.124 145.76C297.684 145.2 298.351 144.92 299.124 144.92C299.871 144.92 300.511 145.2 301.044 145.76C301.578 146.32 301.844 146.987 301.844 147.76C301.844 148.507 301.578 149.16 301.044 149.72C300.511 150.253 299.871 150.52 299.124 150.52ZM326.661 168L325.821 138.72H331.421L332.261 168H326.661ZM334.023 177.24L331.983 172.28C333.396 171.8 334.689 171.24 335.863 170.6C337.063 169.96 338.103 169.253 338.983 168.48C339.863 167.707 340.543 166.867 341.023 165.96C341.503 165.027 341.743 164.027 341.743 162.96C341.743 161.84 341.489 160.613 340.983 159.28C340.476 157.947 339.863 156.587 339.143 155.2L344.383 152.68C344.863 153.507 345.276 154.4 345.623 155.36C345.996 156.293 346.303 157.133 346.543 157.88C346.783 158.627 346.943 159.133 347.023 159.4C347.396 160.68 347.903 161.533 348.543 161.96C349.209 162.387 350.276 162.6 351.743 162.6C352.756 162.6 353.476 162.867 353.903 163.4C354.356 163.907 354.583 164.547 354.583 165.32C354.583 166.147 354.303 166.84 353.743 167.4C353.183 167.933 352.383 168.2 351.343 168.2C350.249 168.2 349.289 168.04 348.463 167.72C347.636 167.4 346.969 166.933 346.463 166.32C345.983 165.707 345.676 164.987 345.543 164.16L347.023 165C346.863 166.413 346.396 167.747 345.623 169C344.876 170.28 343.903 171.453 342.703 172.52C341.503 173.587 340.156 174.52 338.663 175.32C337.169 176.12 335.623 176.76 334.023 177.24ZM342.183 148.6C341.356 148.6 340.649 148.32 340.063 147.76C339.503 147.2 339.223 146.507 339.223 145.68C339.223 144.853 339.503 144.147 340.063 143.56C340.649 142.973 341.356 142.68 342.183 142.68C342.983 142.68 343.663 142.973 344.223 143.56C344.809 144.147 345.103 144.853 345.103 145.68C345.103 146.507 344.809 147.2 344.223 147.76C343.663 148.32 342.983 148.6 342.183 148.6ZM351.391 168.2L351.791 162.6C352.751 162.6 353.577 162.507 354.271 162.32C354.964 162.133 355.551 161.76 356.031 161.2C356.511 160.613 356.911 159.76 357.231 158.64C357.577 157.52 357.884 156.027 358.151 154.16L363.391 155.04C363.337 155.44 363.257 155.907 363.151 156.44C363.071 156.973 362.991 157.52 362.911 158.08C362.857 158.613 362.831 159.12 362.831 159.6C362.831 160.08 362.924 160.507 363.111 160.88C363.297 161.253 363.591 161.573 363.991 161.84C364.417 162.08 364.964 162.267 365.631 162.4C366.324 162.533 367.164 162.6 368.151 162.6C369.164 162.6 369.884 162.867 370.311 163.4C370.737 163.907 370.951 164.547 370.951 165.32C370.951 166.147 370.671 166.84 370.111 167.4C369.577 167.933 368.791 168.2 367.751 168.2C366.551 168.2 365.457 168.107 364.471 167.92C363.511 167.733 362.671 167.427 361.951 167C361.257 166.547 360.684 165.96 360.231 165.24C359.804 164.493 359.537 163.587 359.431 162.52H361.351C360.871 163.8 360.257 164.827 359.511 165.6C358.791 166.347 357.977 166.907 357.071 167.28C356.164 167.653 355.217 167.893 354.231 168C353.271 168.133 352.324 168.2 351.391 168.2ZM362.551 177.48C361.777 177.48 361.111 177.2 360.551 176.64C360.017 176.107 359.751 175.467 359.751 174.72C359.751 173.947 360.017 173.28 360.551 172.72C361.111 172.16 361.777 171.88 362.551 171.88C363.297 171.88 363.937 172.16 364.471 172.72C365.004 173.28 365.271 173.947 365.271 174.72C365.271 175.467 365.004 176.107 364.471 176.64C363.937 177.2 363.297 177.48 362.551 177.48ZM355.631 177.48C354.857 177.48 354.191 177.2 353.631 176.64C353.097 176.107 352.831 175.467 352.831 174.72C352.831 173.947 353.097 173.28 353.631 172.72C354.191 172.16 354.857 171.88 355.631 171.88C356.377 171.88 357.017 172.16 357.551 172.72C358.084 173.28 358.351 173.947 358.351 174.72C358.351 175.467 358.084 176.107 357.551 176.64C357.017 177.2 356.377 177.48 355.631 177.48ZM367.758 168.2L368.158 162.6C368.824 162.6 369.331 162.467 369.678 162.2C370.024 161.933 370.371 161.467 370.718 160.8C371.064 160.133 371.544 159.227 372.158 158.08C372.824 156.8 373.518 155.733 374.238 154.88C374.958 154 375.678 153.307 376.398 152.8C377.144 152.267 377.878 151.893 378.598 151.68C379.344 151.44 380.078 151.32 380.798 151.32C381.784 151.32 382.704 151.533 383.558 151.96C384.438 152.36 385.278 153.067 386.078 154.08C386.878 155.067 387.638 156.427 388.358 158.16C388.864 159.36 389.371 160.28 389.878 160.92C390.384 161.56 390.904 162 391.438 162.24C391.998 162.48 392.558 162.6 393.118 162.6C394.131 162.6 394.851 162.867 395.278 163.4C395.704 163.907 395.918 164.547 395.918 165.32C395.918 166.147 395.638 166.84 395.078 167.4C394.518 167.933 393.731 168.2 392.718 168.2C391.411 168.2 390.224 167.987 389.158 167.56C388.091 167.133 387.251 166.493 386.638 165.64L387.798 164.76C387.558 165.32 387.198 165.907 386.718 166.52C386.264 167.133 385.664 167.653 384.918 168.08C384.198 168.507 383.331 168.72 382.318 168.72C381.651 168.72 380.864 168.587 379.958 168.32C379.078 168.08 378.158 167.667 377.198 167.08C376.264 166.467 375.398 165.64 374.598 164.6C374.091 165.533 373.531 166.267 372.918 166.8C372.304 167.307 371.584 167.667 370.758 167.88C369.931 168.093 368.931 168.2 367.758 168.2ZM376.918 159.88C377.184 160.28 377.504 160.68 377.878 161.08C378.251 161.48 378.664 161.84 379.118 162.16C379.571 162.453 380.051 162.693 380.558 162.88C381.091 163.067 381.611 163.16 382.118 163.16C382.651 163.16 383.091 162.96 383.438 162.56C383.784 162.133 383.798 161.507 383.478 160.68C383.344 160.333 383.158 159.947 382.918 159.52C382.704 159.067 382.451 158.64 382.158 158.24C381.891 157.84 381.584 157.507 381.238 157.24C380.918 156.973 380.584 156.84 380.238 156.84C379.891 156.84 379.531 156.947 379.158 157.16C378.784 157.373 378.411 157.707 378.038 158.16C377.664 158.587 377.291 159.16 376.918 159.88ZM392.719 168.2L393.119 162.6C393.732 162.6 394.252 162.453 394.679 162.16C395.132 161.84 395.599 161.32 396.079 160.6C396.559 159.853 397.119 158.853 397.759 157.6C398.559 156 399.385 154.747 400.239 153.84C401.119 152.933 402.012 152.293 402.919 151.92C403.852 151.52 404.785 151.32 405.719 151.32C406.892 151.32 407.985 151.573 408.999 152.08C410.012 152.587 410.892 153.28 411.639 154.16C412.385 155.013 412.959 156 413.359 157.12C413.785 158.213 413.999 159.347 413.999 160.52C413.999 161.933 413.692 163.213 413.079 164.36C412.492 165.48 411.665 166.373 410.599 167.04C409.559 167.68 408.359 168 406.999 168C405.852 168 404.519 167.8 402.999 167.4C401.479 167 399.879 166.16 398.199 164.88L400.239 160.04C401.439 160.867 402.559 161.467 403.599 161.84C404.665 162.213 405.545 162.4 406.239 162.4C406.772 162.4 407.212 162.347 407.559 162.24C407.905 162.133 408.159 161.96 408.319 161.72C408.479 161.48 408.559 161.16 408.559 160.76C408.559 160.2 408.425 159.627 408.159 159.04C407.892 158.453 407.532 157.96 407.079 157.56C406.652 157.133 406.145 156.92 405.559 156.92C404.999 156.92 404.519 157.133 404.119 157.56C403.745 157.96 403.372 158.547 402.999 159.32C402.652 160.067 402.225 160.947 401.719 161.96C401.105 163.187 400.505 164.213 399.919 165.04C399.332 165.84 398.705 166.48 398.039 166.96C397.399 167.413 396.639 167.733 395.759 167.92C394.905 168.107 393.892 168.2 392.719 168.2Z" fill="black"/>
<path d="M205 476.618C205 477.37 204.704 478.013 204.112 478.549C203.531 479.084 202.824 479.352 201.993 479.352C201.184 479.352 200.489 479.084 199.908 478.549C199.338 478.013 199.053 477.37 199.053 476.618C199.053 475.866 199.344 475.222 199.925 474.687C200.506 474.151 201.207 473.883 202.027 473.883C202.847 473.883 203.548 474.151 204.129 474.687C204.71 475.222 205 475.866 205 476.618ZM203.394 483.795C203.394 484.547 203.104 485.191 202.522 485.727C201.941 486.262 201.241 486.53 200.42 486.53C199.589 486.53 198.882 486.262 198.301 485.727C197.732 485.191 197.447 484.547 197.447 483.795C197.447 483.043 197.732 482.4 198.301 481.864C198.882 481.329 199.589 481.061 200.42 481.061C201.241 481.061 201.941 481.329 202.522 481.864C203.104 482.4 203.394 483.043 203.394 483.795ZM207.97 494.085L206.185 489.745C207.422 489.325 208.553 488.835 209.58 488.275C210.63 487.715 211.54 487.097 212.31 486.42C213.08 485.743 213.675 485.008 214.095 484.215C214.515 483.398 214.725 482.523 214.725 481.59C214.725 480.61 214.503 479.537 214.06 478.37C213.617 477.203 213.08 476.013 212.45 474.8L217.035 472.595C217.455 473.318 217.817 474.1 218.12 474.94C218.447 475.757 218.715 476.492 218.925 477.145C219.135 477.798 219.275 478.242 219.345 478.475C219.672 479.595 220.115 480.342 220.675 480.715C221.258 481.088 222.192 481.275 223.475 481.275C224.362 481.275 224.992 481.508 225.365 481.975C225.762 482.418 225.96 482.978 225.96 483.655C225.96 484.378 225.715 484.985 225.225 485.475C224.735 485.942 224.035 486.175 223.125 486.175C222.168 486.175 221.328 486.035 220.605 485.755C219.882 485.475 219.298 485.067 218.855 484.53C218.435 483.993 218.167 483.363 218.05 482.64L219.345 483.375C219.205 484.612 218.797 485.778 218.12 486.875C217.467 487.995 216.615 489.022 215.565 489.955C214.515 490.888 213.337 491.705 212.03 492.405C210.723 493.105 209.37 493.665 207.97 494.085ZM223.167 486.175L223.517 481.275C224.287 481.275 224.917 481.217 225.407 481.1C225.897 480.96 226.294 480.668 226.597 480.225C226.924 479.758 227.204 479.07 227.437 478.16C227.694 477.227 227.974 475.967 228.277 474.38L232.827 475.22C232.757 475.57 232.675 475.978 232.582 476.445C232.489 476.912 232.407 477.39 232.337 477.88C232.267 478.347 232.232 478.767 232.232 479.14C232.232 479.793 232.442 480.318 232.862 480.715C233.282 481.088 234.075 481.275 235.242 481.275C235.825 481.275 236.327 481.217 236.747 481.1C237.19 480.96 237.564 480.668 237.867 480.225C238.194 479.758 238.474 479.047 238.707 478.09C238.964 477.11 239.209 475.792 239.442 474.135L244.062 474.87C243.969 475.407 243.875 475.978 243.782 476.585C243.689 477.192 243.607 477.752 243.537 478.265C243.467 478.778 243.432 479.198 243.432 479.525C243.432 479.828 243.514 480.12 243.677 480.4C243.864 480.657 244.19 480.867 244.657 481.03C245.147 481.193 245.835 481.275 246.722 481.275C247.352 481.275 247.889 481.193 248.332 481.03C248.799 480.867 249.149 480.598 249.382 480.225C249.639 479.852 249.767 479.362 249.767 478.755C249.767 477.892 249.569 476.76 249.172 475.36C248.775 473.96 248.309 472.49 247.772 470.95L252.707 469.48C253.08 470.483 253.407 471.557 253.687 472.7C253.99 473.82 254.224 474.917 254.387 475.99C254.574 477.04 254.667 477.962 254.667 478.755C254.667 479.945 254.48 481.007 254.107 481.94C253.734 482.85 253.209 483.62 252.532 484.25C251.855 484.88 251.05 485.358 250.117 485.685C249.184 486.012 248.157 486.175 247.037 486.175C245.684 486.175 244.575 486.047 243.712 485.79C242.849 485.51 242.184 485.055 241.717 484.425C241.274 483.772 240.982 482.885 240.842 481.765H242.032C241.542 483.142 240.994 484.145 240.387 484.775C239.78 485.382 239.057 485.767 238.217 485.93C237.4 486.093 236.374 486.175 235.137 486.175C234.367 486.175 233.574 486.093 232.757 485.93C231.964 485.743 231.252 485.323 230.622 484.67C229.992 484.017 229.525 483.002 229.222 481.625L231.112 481.555C230.622 482.932 229.98 483.947 229.187 484.6C228.417 485.253 227.53 485.685 226.527 485.895C225.524 486.082 224.404 486.175 223.167 486.175ZM241.472 464.51C240.889 464.51 240.375 464.288 239.932 463.845C239.512 463.402 239.302 462.877 239.302 462.27C239.302 461.663 239.512 461.15 239.932 460.73C240.375 460.31 240.889 460.1 241.472 460.1C242.079 460.1 242.592 460.31 243.012 460.73C243.432 461.15 243.642 461.663 243.642 462.27C243.642 462.877 243.432 463.402 243.012 463.845C242.592 464.288 242.079 464.51 241.472 464.51ZM238.672 469.13C238.089 469.13 237.575 468.908 237.132 468.465C236.712 468.022 236.502 467.497 236.502 466.89C236.502 466.283 236.712 465.77 237.132 465.35C237.575 464.93 238.089 464.72 238.672 464.72C239.279 464.72 239.792 464.93 240.212 465.35C240.632 465.77 240.842 466.283 240.842 466.89C240.842 467.497 240.632 468.022 240.212 468.465C239.792 468.908 239.279 469.13 238.672 469.13ZM244.097 469.13C243.514 469.13 243 468.908 242.557 468.465C242.137 468.022 241.927 467.497 241.927 466.89C241.927 466.283 242.137 465.77 242.557 465.35C243 464.93 243.514 464.72 244.097 464.72C244.704 464.72 245.217 464.93 245.637 465.35C246.057 465.77 246.267 466.283 246.267 466.89C246.267 467.497 246.057 468.022 245.637 468.465C245.217 468.908 244.704 469.13 244.097 469.13ZM267.519 486.175C265.349 486.175 263.669 485.953 262.479 485.51C261.312 485.067 260.495 484.378 260.029 483.445C259.562 482.488 259.294 481.287 259.224 479.84L258.489 460.38H263.389L264.124 477.495C264.17 478.568 264.287 479.373 264.474 479.91C264.66 480.447 265.01 480.808 265.524 480.995C266.06 481.182 266.842 481.275 267.869 481.275C268.755 481.275 269.385 481.508 269.759 481.975C270.155 482.418 270.354 482.978 270.354 483.655C270.354 484.378 270.109 484.985 269.619 485.475C269.129 485.942 268.429 486.175 267.519 486.175ZM267.566 486.175L267.916 481.275C268.803 481.275 269.503 481.193 270.016 481.03C270.553 480.867 270.973 480.54 271.276 480.05C271.603 479.537 271.871 478.79 272.081 477.81C272.315 476.83 272.548 475.523 272.781 473.89L277.366 474.66C277.32 475.01 277.25 475.418 277.156 475.885C277.086 476.352 277.016 476.83 276.946 477.32C276.9 477.787 276.876 478.23 276.876 478.65C276.876 479.21 276.993 479.688 277.226 480.085C277.483 480.458 277.926 480.75 278.556 480.96C279.21 481.17 280.143 481.275 281.356 481.275C282.243 481.275 282.873 481.508 283.246 481.975C283.62 482.418 283.806 482.978 283.806 483.655C283.806 484.378 283.561 484.985 283.071 485.475C282.605 485.942 281.916 486.175 281.006 486.175C279.396 486.175 278.09 486.023 277.086 485.72C276.083 485.417 275.336 484.903 274.846 484.18C274.356 483.457 274.041 482.465 273.901 481.205H275.581C275.161 482.325 274.671 483.223 274.111 483.9C273.551 484.553 272.921 485.043 272.221 485.37C271.521 485.697 270.775 485.907 269.981 486C269.211 486.117 268.406 486.175 267.566 486.175ZM273.796 494.225C273.12 494.225 272.536 493.992 272.046 493.525C271.58 493.058 271.346 492.487 271.346 491.81C271.346 491.133 271.58 490.538 272.046 490.025C272.536 489.535 273.12 489.29 273.796 489.29C274.473 489.29 275.045 489.535 275.511 490.025C276.001 490.538 276.246 491.133 276.246 491.81C276.246 492.487 276.001 493.058 275.511 493.525C275.045 493.992 274.473 494.225 273.796 494.225ZM280.999 486.175L281.349 481.275C281.886 481.275 282.341 481.147 282.714 480.89C283.111 480.61 283.519 480.155 283.939 479.525C284.359 478.872 284.849 477.997 285.409 476.9C286.109 475.5 286.832 474.403 287.579 473.61C288.349 472.817 289.131 472.257 289.924 471.93C290.741 471.58 291.557 471.405 292.374 471.405C293.401 471.405 294.357 471.627 295.244 472.07C296.131 472.513 296.901 473.12 297.554 473.89C298.207 474.637 298.709 475.5 299.059 476.48C299.432 477.437 299.619 478.428 299.619 479.455C299.619 480.692 299.351 481.812 298.814 482.815C298.301 483.795 297.577 484.577 296.644 485.16C295.734 485.72 294.684 486 293.494 486C292.491 486 291.324 485.825 289.994 485.475C288.664 485.125 287.264 484.39 285.794 483.27L287.579 479.035C288.629 479.758 289.609 480.283 290.519 480.61C291.452 480.937 292.222 481.1 292.829 481.1C293.296 481.1 293.681 481.053 293.984 480.96C294.287 480.867 294.509 480.715 294.649 480.505C294.789 480.295 294.859 480.015 294.859 479.665C294.859 479.175 294.742 478.673 294.509 478.16C294.276 477.647 293.961 477.215 293.564 476.865C293.191 476.492 292.747 476.305 292.234 476.305C291.744 476.305 291.324 476.492 290.974 476.865C290.647 477.215 290.321 477.728 289.994 478.405C289.691 479.058 289.317 479.828 288.874 480.715C288.337 481.788 287.812 482.687 287.299 483.41C286.786 484.11 286.237 484.67 285.654 485.09C285.094 485.487 284.429 485.767 283.659 485.93C282.912 486.093 282.026 486.175 280.999 486.175ZM315.644 485.02C315.644 484.483 315.691 483.853 315.784 483.13C315.878 482.407 316.053 481.59 316.309 480.68C316.566 479.747 316.951 478.708 317.464 477.565L321.769 479.07C321.513 479.793 321.291 480.458 321.104 481.065C320.918 481.648 320.778 482.197 320.684 482.71C320.591 483.2 320.544 483.69 320.544 484.18C320.544 485.23 320.801 486.14 321.314 486.91C321.851 487.703 322.574 488.31 323.484 488.73C324.418 489.173 325.491 489.395 326.704 489.395C328.688 489.395 330.204 489.068 331.254 488.415C332.328 487.785 333.051 486.782 333.424 485.405C333.821 484.005 333.973 482.197 333.879 479.98L333.179 460.38H338.114L338.639 476.935C338.686 478.102 338.849 479 339.129 479.63C339.409 480.26 339.841 480.692 340.424 480.925C341.031 481.158 341.813 481.275 342.769 481.275C343.656 481.275 344.286 481.508 344.659 481.975C345.033 482.418 345.219 482.978 345.219 483.655C345.219 484.378 344.974 484.985 344.484 485.475C343.994 485.942 343.306 486.175 342.419 486.175C341.906 486.175 341.358 486.105 340.774 485.965C340.191 485.825 339.631 485.603 339.094 485.3C338.558 484.997 338.091 484.6 337.694 484.11C337.298 483.597 337.029 482.967 336.889 482.22L338.779 481.275C338.779 483.632 338.499 485.627 337.939 487.26C337.403 488.893 336.609 490.212 335.559 491.215C334.533 492.218 333.261 492.942 331.744 493.385C330.251 493.852 328.524 494.085 326.564 494.085C325.071 494.085 323.659 493.898 322.329 493.525C321.023 493.152 319.868 492.592 318.864 491.845C317.861 491.098 317.068 490.153 316.484 489.01C315.924 487.89 315.644 486.56 315.644 485.02ZM360.55 486.63C358.38 486.63 356.572 486.537 355.125 486.35C353.702 486.163 352.547 485.895 351.66 485.545C350.773 485.195 350.073 484.775 349.56 484.285C349.047 483.795 348.627 483.258 348.3 482.675L349.28 482.395C348.697 483.515 348.032 484.343 347.285 484.88C346.538 485.417 345.757 485.767 344.94 485.93C344.123 486.093 343.283 486.175 342.42 486.175L342.77 481.275C343.493 481.275 344.065 481.158 344.485 480.925C344.905 480.692 345.243 480.307 345.5 479.77C345.78 479.233 346.037 478.522 346.27 477.635C346.503 476.748 346.783 475.663 347.11 474.38L351.555 475.465C351.392 476.095 351.252 476.643 351.135 477.11C351.042 477.577 350.96 477.985 350.89 478.335C350.843 478.662 350.82 478.93 350.82 479.14C350.82 479.583 350.925 479.98 351.135 480.33C351.345 480.657 351.753 480.925 352.36 481.135C352.967 481.322 353.853 481.473 355.02 481.59C356.21 481.683 357.762 481.73 359.675 481.73C361.705 481.73 363.397 481.66 364.75 481.52C366.103 481.357 367.177 481.135 367.97 480.855C368.787 480.552 369.37 480.19 369.72 479.77C370.07 479.327 370.245 478.825 370.245 478.265C370.245 477.822 370.14 477.413 369.93 477.04C369.743 476.643 369.428 476.317 368.985 476.06C368.542 475.803 367.97 475.675 367.27 475.675C366.43 475.675 365.578 475.885 364.715 476.305C363.875 476.702 363.047 477.238 362.23 477.915C361.413 478.568 360.632 479.303 359.885 480.12C359.162 480.937 358.508 481.753 357.925 482.57L352.675 481.975C353.585 480.505 354.612 479.093 355.755 477.74C356.898 476.387 358.123 475.197 359.43 474.17C360.737 473.12 362.09 472.292 363.49 471.685C364.89 471.078 366.313 470.775 367.76 470.775C369.323 470.775 370.653 471.078 371.75 471.685C372.847 472.292 373.687 473.132 374.27 474.205C374.853 475.278 375.145 476.515 375.145 477.915C375.145 479.618 374.655 481.123 373.675 482.43C372.718 483.737 371.167 484.763 369.02 485.51C366.897 486.257 364.073 486.63 360.55 486.63ZM379.297 486L378.562 460.38H383.462L384.197 486H379.297ZM388.062 494.05L387.047 489.15C388.704 488.94 390.151 488.683 391.387 488.38C392.624 488.1 393.662 487.703 394.502 487.19C395.342 486.677 395.972 485.977 396.392 485.09C396.812 484.18 397.022 483.013 397.022 481.59C397.022 480.213 396.812 479.117 396.392 478.3C395.972 477.483 395.412 477.075 394.712 477.075C394.222 477.075 393.814 477.25 393.487 477.6C393.161 477.927 392.916 478.323 392.752 478.79C392.612 479.233 392.542 479.63 392.542 479.98C392.542 480.19 392.601 480.412 392.717 480.645C392.834 480.878 393.091 481.077 393.487 481.24C393.884 481.403 394.502 481.497 395.342 481.52C396.206 481.543 397.372 481.462 398.842 481.275H404.722C405.609 481.275 406.239 481.508 406.612 481.975C407.009 482.418 407.207 482.978 407.207 483.655C407.207 484.378 406.962 484.985 406.472 485.475C405.982 485.942 405.282 486.175 404.372 486.175H394.747C393.277 486.175 392.017 486 390.967 485.65C389.917 485.3 389.112 484.74 388.552 483.97C387.992 483.177 387.712 482.127 387.712 480.82C387.712 479.77 387.887 478.72 388.237 477.67C388.611 476.62 389.124 475.663 389.777 474.8C390.431 473.913 391.189 473.213 392.052 472.7C392.939 472.163 393.896 471.895 394.922 471.895C396.322 471.895 397.547 472.327 398.597 473.19C399.647 474.053 400.464 475.197 401.047 476.62C401.654 478.043 401.957 479.595 401.957 481.275C401.957 483.912 401.397 486.152 400.277 487.995C399.157 489.838 397.559 491.262 395.482 492.265C393.406 493.292 390.932 493.887 388.062 494.05ZM404.422 486.175L404.772 481.275C406.172 481.275 407.245 481.205 407.992 481.065C408.739 480.925 409.252 480.668 409.532 480.295C409.835 479.898 409.987 479.338 409.987 478.615C409.987 477.962 409.894 477.18 409.707 476.27C409.544 475.36 409.322 474.415 409.042 473.435C408.785 472.455 408.505 471.557 408.202 470.74L413.032 469.41C413.335 470.203 413.627 471.125 413.907 472.175C414.187 473.225 414.42 474.31 414.607 475.43C414.794 476.527 414.887 477.588 414.887 478.615C414.887 480.202 414.63 481.497 414.117 482.5C413.604 483.48 412.88 484.238 411.947 484.775C411.037 485.312 409.94 485.685 408.657 485.895C407.374 486.082 405.962 486.175 404.422 486.175ZM413.907 466.575C413.23 466.575 412.647 466.342 412.157 465.875C411.69 465.385 411.457 464.813 411.457 464.16C411.457 463.483 411.69 462.9 412.157 462.41C412.647 461.92 413.23 461.675 413.907 461.675C414.56 461.675 415.12 461.92 415.587 462.41C416.054 462.9 416.287 463.483 416.287 464.16C416.287 464.813 416.054 465.385 415.587 465.875C415.12 466.342 414.56 466.575 413.907 466.575ZM407.852 466.54C407.175 466.54 406.592 466.307 406.102 465.84C405.635 465.35 405.402 464.778 405.402 464.125C405.402 463.448 405.635 462.865 406.102 462.375C406.592 461.885 407.175 461.64 407.852 461.64C408.505 461.64 409.065 461.885 409.532 462.375C409.999 462.865 410.232 463.448 410.232 464.125C410.232 464.778 409.999 465.35 409.532 465.84C409.065 466.307 408.505 466.54 407.852 466.54Z" fill="#DA2C38"/>
<path d="M109.293 563.15C108.773 563.15 108.113 563.1 107.313 563C106.533 562.88 105.733 562.68 104.913 562.4C104.113 562.12 103.433 561.73 102.873 561.23L105.333 560C106.033 560.28 106.753 560.47 107.493 560.57C108.253 560.65 108.953 560.69 109.593 560.69C110.013 560.69 110.313 560.81 110.493 561.05C110.693 561.27 110.793 561.54 110.793 561.86C110.793 562.18 110.653 562.48 110.373 562.76C110.093 563.02 109.733 563.15 109.293 563.15ZM95.4333 563.39C94.1733 563.39 93.0033 563.37 91.9233 563.33C90.8633 563.29 89.8933 563.24 89.0133 563.18C88.1333 563.14 87.3533 563.08 86.6733 563C85.9933 562.94 85.4233 562.88 84.9633 562.82L85.2333 560.48C85.8133 560.56 86.4733 560.63 87.2133 560.69C87.9733 560.75 88.8033 560.8 89.7033 560.84C90.6233 560.86 91.6033 560.88 92.6433 560.9C93.6833 560.92 94.7933 560.93 95.9733 560.93C97.2933 560.93 98.4733 560.85 99.5133 560.69C100.553 560.53 101.423 560.29 102.123 559.97C102.843 559.63 103.393 559.22 103.773 558.74C104.153 558.26 104.343 557.71 104.343 557.09C104.343 556.65 104.233 556.22 104.013 555.8C103.793 555.36 103.453 554.99 102.993 554.69C102.533 554.39 101.923 554.24 101.163 554.24C100.203 554.24 99.2433 554.49 98.2833 554.99C97.3433 555.49 96.4433 556.12 95.5833 556.88C94.7433 557.62 93.9933 558.38 93.3333 559.16C92.6733 559.94 92.1433 560.62 91.7433 561.2L89.1333 561.11C89.7733 560.07 90.5333 559.01 91.4133 557.93C92.3133 556.83 93.2933 555.82 94.3533 554.9C95.4333 553.96 96.5633 553.21 97.7433 552.65C98.9233 552.07 100.123 551.78 101.343 551.78C102.443 551.78 103.383 552.01 104.163 552.47C104.963 552.91 105.573 553.51 105.993 554.27C106.433 555.03 106.653 555.89 106.653 556.85C106.653 558.03 106.303 559.12 105.603 560.12C104.923 561.1 103.763 561.89 102.123 562.49C100.483 563.09 98.2533 563.39 95.4333 563.39ZM90.7533 560.03L90.1533 541.58H92.5833L93.1833 557.93L90.7533 560.03ZM109.295 563.15L109.595 560.69C110.595 560.69 111.375 560.62 111.935 560.48C112.495 560.32 112.915 560.03 113.195 559.61C113.495 559.17 113.735 558.54 113.915 557.72C114.095 556.9 114.315 555.83 114.575 554.51L116.915 554.96C116.835 555.32 116.745 555.72 116.645 556.16C116.545 556.6 116.455 557.04 116.375 557.48C116.315 557.9 116.285 558.27 116.285 558.59C116.285 558.89 116.305 559.17 116.345 559.43C116.385 559.69 116.535 559.91 116.795 560.09C117.055 560.27 117.495 560.42 118.115 560.54C118.735 560.64 119.625 560.69 120.785 560.69C121.205 560.69 121.505 560.81 121.685 561.05C121.885 561.27 121.985 561.54 121.985 561.86C121.985 562.18 121.845 562.48 121.565 562.76C121.285 563.02 120.925 563.15 120.485 563.15C119.265 563.15 118.295 563.09 117.575 562.97C116.855 562.83 116.305 562.63 115.925 562.37C115.565 562.11 115.305 561.79 115.145 561.41C115.005 561.01 114.895 560.55 114.815 560.03L115.715 560.09C115.395 560.73 115.045 561.25 114.665 561.65C114.305 562.05 113.885 562.36 113.405 562.58C112.925 562.8 112.345 562.95 111.665 563.03C111.005 563.11 110.215 563.15 109.295 563.15ZM116.855 568.82C116.435 568.82 116.075 568.67 115.775 568.37C115.495 568.09 115.355 567.75 115.355 567.35C115.355 566.95 115.495 566.6 115.775 566.3C116.075 566 116.435 565.85 116.855 565.85C117.255 565.85 117.595 566 117.875 566.3C118.175 566.6 118.325 566.95 118.325 567.35C118.325 567.75 118.175 568.09 117.875 568.37C117.595 568.67 117.255 568.82 116.855 568.82ZM112.745 568.82C112.325 568.82 111.965 568.67 111.665 568.37C111.385 568.09 111.245 567.75 111.245 567.35C111.245 566.95 111.385 566.6 111.665 566.3C111.965 566 112.325 565.85 112.745 565.85C113.145 565.85 113.485 566 113.765 566.3C114.065 566.6 114.215 566.95 114.215 567.35C114.215 567.75 114.065 568.09 113.765 568.37C113.485 568.67 113.145 568.82 112.745 568.82ZM120.486 563.15L120.786 560.69C121.426 560.69 121.946 560.65 122.346 560.57C122.746 560.47 123.076 560.24 123.336 559.88C123.616 559.5 123.876 558.91 124.116 558.11C124.356 557.31 124.636 556.19 124.956 554.75L127.206 555.38C127.126 555.72 127.036 556.11 126.936 556.55C126.836 556.97 126.746 557.41 126.666 557.87C126.586 558.31 126.546 558.72 126.546 559.1C126.546 559.6 126.736 559.99 127.116 560.27C127.496 560.55 128.186 560.69 129.186 560.69C129.786 560.69 130.276 560.64 130.656 560.54C131.036 560.44 131.346 560.2 131.586 559.82C131.846 559.44 132.076 558.83 132.276 557.99C132.476 557.15 132.686 556 132.906 554.54L135.186 554.96C135.126 555.32 135.056 555.76 134.976 556.28C134.896 556.8 134.816 557.32 134.736 557.84C134.676 558.34 134.646 558.76 134.646 559.1C134.646 559.38 134.706 559.65 134.826 559.91C134.966 560.15 135.226 560.34 135.606 560.48C136.006 560.62 136.596 560.69 137.376 560.69C137.956 560.69 138.456 560.62 138.876 560.48C139.316 560.34 139.646 560.08 139.866 559.7C140.106 559.32 140.226 558.79 140.226 558.11C140.226 557.35 140.046 556.4 139.686 555.26C139.346 554.1 138.956 552.95 138.516 551.81L140.946 550.91C141.206 551.55 141.446 552.28 141.666 553.1C141.906 553.92 142.106 554.73 142.266 555.53C142.426 556.33 142.506 557.03 142.506 557.63C142.506 558.55 142.386 559.36 142.146 560.06C141.906 560.76 141.566 561.34 141.126 561.8C140.686 562.24 140.146 562.58 139.506 562.82C138.866 563.04 138.146 563.15 137.346 563.15C136.406 563.15 135.636 563.04 135.036 562.82C134.436 562.6 133.976 562.27 133.656 561.83C133.336 561.37 133.126 560.79 133.026 560.09H134.046C133.666 560.95 133.266 561.6 132.846 562.04C132.426 562.48 131.906 562.78 131.286 562.94C130.666 563.08 129.846 563.15 128.826 563.15C128.326 563.15 127.786 563.07 127.206 562.91C126.646 562.75 126.156 562.44 125.736 561.98C125.316 561.5 125.066 560.79 124.986 559.85L125.886 559.67C125.546 560.69 125.126 561.45 124.626 561.95C124.146 562.43 123.566 562.75 122.886 562.91C122.206 563.07 121.406 563.15 120.486 563.15ZM145.752 569.9L145.212 567.44C146.412 567.28 147.512 567.05 148.512 566.75C149.532 566.47 150.402 566.06 151.122 565.52C151.862 564.98 152.432 564.27 152.832 563.39C153.232 562.51 153.432 561.41 153.432 560.09C153.432 558.73 153.182 557.6 152.682 556.7C152.182 555.8 151.532 555.35 150.732 555.35C150.312 555.35 149.922 555.51 149.562 555.83C149.202 556.15 148.902 556.58 148.662 557.12C148.442 557.66 148.332 558.25 148.332 558.89C148.332 559.25 148.412 559.55 148.572 559.79C148.732 560.01 148.962 560.19 149.262 560.33C149.582 560.45 149.982 560.54 150.462 560.6C150.942 560.66 151.502 560.69 152.142 560.69H158.472C158.892 560.69 159.192 560.81 159.372 561.05C159.572 561.27 159.672 561.54 159.672 561.86C159.672 562.18 159.532 562.48 159.252 562.76C158.972 563.02 158.612 563.15 158.172 563.15H151.002C150.102 563.15 149.262 563.02 148.482 562.76C147.722 562.5 147.102 562.1 146.622 561.56C146.162 561 145.932 560.27 145.932 559.37C145.932 558.53 146.062 557.73 146.322 556.97C146.582 556.19 146.932 555.5 147.372 554.9C147.832 554.28 148.362 553.79 148.962 553.43C149.582 553.07 150.252 552.89 150.972 552.89C151.892 552.89 152.712 553.16 153.432 553.7C154.152 554.24 154.722 555.06 155.142 556.16C155.562 557.24 155.772 558.61 155.772 560.27C155.772 562.13 155.392 563.73 154.632 565.07C153.892 566.43 152.772 567.51 151.272 568.31C149.792 569.11 147.952 569.64 145.752 569.9ZM158.162 563.15L158.432 560.69C159.572 560.69 160.372 560.58 160.832 560.36C161.292 560.14 161.552 559.75 161.612 559.19C161.692 558.63 161.712 557.85 161.672 556.85L161.102 541.58H163.532L164.132 556.58C164.172 557.64 164.132 558.58 164.012 559.4C163.912 560.22 163.652 560.91 163.232 561.47C162.832 562.03 162.222 562.45 161.402 562.73C160.602 563.01 159.522 563.15 158.162 563.15ZM168.715 563L168.115 541.58H170.545L171.145 563H168.715ZM183.838 569.9L183.298 567.44C184.498 567.28 185.598 567.05 186.598 566.75C187.618 566.47 188.488 566.06 189.208 565.52C189.948 564.98 190.518 564.27 190.918 563.39C191.318 562.51 191.518 561.41 191.518 560.09C191.518 559.47 191.458 558.88 191.338 558.32C191.218 557.74 191.038 557.23 190.798 556.79C190.558 556.35 190.268 556 189.928 555.74C189.608 555.48 189.238 555.35 188.818 555.35C188.358 555.35 187.938 555.53 187.558 555.89C187.198 556.23 186.908 556.67 186.688 557.21C186.488 557.75 186.388 558.29 186.388 558.83C186.388 559.25 186.468 559.62 186.628 559.94C186.808 560.24 187.098 560.47 187.498 560.63C187.898 560.79 188.418 560.87 189.058 560.87C189.638 560.87 190.218 560.81 190.798 560.69C191.398 560.57 191.908 560.41 192.328 560.21L192.448 562.31C191.968 562.65 191.398 562.89 190.738 563.03C190.098 563.17 189.448 563.24 188.788 563.24C188.028 563.24 187.348 563.16 186.748 563C186.168 562.84 185.668 562.61 185.248 562.31C184.848 561.99 184.538 561.59 184.318 561.11C184.118 560.63 184.018 560.07 184.018 559.43C184.018 558.67 184.138 557.91 184.378 557.15C184.618 556.37 184.958 555.66 185.398 555.02C185.838 554.38 186.368 553.87 186.988 553.49C187.608 553.09 188.298 552.89 189.058 552.89C189.858 552.89 190.558 553.1 191.158 553.52C191.758 553.92 192.258 554.47 192.658 555.17C193.058 555.87 193.358 556.66 193.558 557.54C193.758 558.42 193.858 559.33 193.858 560.27C193.858 562.13 193.478 563.73 192.718 565.07C191.978 566.43 190.858 567.51 189.358 568.31C187.878 569.11 186.038 569.64 183.838 569.9ZM198.186 563L197.676 543.68H200.106L200.616 563H198.186ZM196.206 541.88L195.846 540.26C196.366 540.14 196.786 540.04 197.106 539.96C197.426 539.88 197.786 539.79 198.186 539.69L198.036 540.32C197.516 540.16 197.016 539.82 196.536 539.3C196.076 538.78 195.846 538.19 195.846 537.53C195.846 536.93 195.986 536.43 196.266 536.03C196.566 535.61 196.946 535.3 197.406 535.1C197.886 534.9 198.396 534.8 198.936 534.8C199.156 534.8 199.386 534.82 199.626 534.86C199.886 534.9 200.126 534.96 200.346 535.04L200.106 536.54C199.906 536.5 199.716 536.46 199.536 536.42C199.356 536.38 199.156 536.36 198.936 536.36C198.476 536.36 198.116 536.46 197.856 536.66C197.596 536.84 197.466 537.1 197.466 537.44C197.466 537.86 197.596 538.22 197.856 538.52C198.136 538.82 198.446 539.06 198.786 539.24C199.146 539.4 199.436 539.48 199.656 539.48L198.426 539.6C198.966 539.46 199.466 539.32 199.926 539.18C200.406 539.02 200.836 538.87 201.216 538.73L201.696 540.26C201.216 540.44 200.646 540.63 199.986 540.83C199.346 541.03 198.696 541.22 198.036 541.4C197.376 541.58 196.766 541.74 196.206 541.88ZM223.27 563.63L224.05 561.17C226.01 561.17 227.63 561.1 228.91 560.96C230.19 560.8 231.18 560.56 231.88 560.24C232.6 559.9 233.1 559.47 233.38 558.95C233.66 558.41 233.78 557.76 233.74 557L233.17 541.58H235.6L236.2 556.73C236.24 557.75 236.4 558.55 236.68 559.13C236.98 559.71 237.38 560.12 237.88 560.36C238.38 560.58 238.93 560.69 239.53 560.69C239.95 560.69 240.25 560.81 240.43 561.05C240.63 561.27 240.73 561.54 240.73 561.86C240.73 562.18 240.59 562.48 240.31 562.76C240.03 563.02 239.67 563.15 239.23 563.15C238.29 563.15 237.53 563.01 236.95 562.73C236.37 562.43 235.92 562.06 235.6 561.62C235.3 561.18 235.1 560.72 235 560.24L235.63 560.27C235.23 560.89 234.69 561.42 234.01 561.86C233.33 562.28 232.49 562.62 231.49 562.88C230.49 563.14 229.31 563.33 227.95 563.45C226.61 563.57 225.05 563.63 223.27 563.63ZM222.49 556.88L221.92 554.99C222.76 554.77 223.44 554.58 223.96 554.42C224.48 554.26 224.85 554.11 225.07 553.97C225.31 553.81 225.43 553.65 225.43 553.49C225.43 553.27 225.31 553.07 225.07 552.89C224.85 552.69 224.59 552.49 224.29 552.29C224.01 552.07 223.75 551.82 223.51 551.54C223.29 551.26 223.18 550.92 223.18 550.52C223.18 550.16 223.28 549.79 223.48 549.41C223.7 549.01 224.08 548.6 224.62 548.18C225.16 547.74 225.92 547.28 226.9 546.8L227.83 548.51C226.91 548.95 226.23 549.33 225.79 549.65C225.37 549.95 225.16 550.22 225.16 550.46C225.16 550.64 225.27 550.83 225.49 551.03C225.73 551.23 225.99 551.45 226.27 551.69C226.57 551.93 226.83 552.21 227.05 552.53C227.29 552.83 227.41 553.19 227.41 553.61C227.41 553.89 227.35 554.17 227.23 554.45C227.11 554.71 226.87 554.98 226.51 555.26C226.17 555.52 225.68 555.79 225.04 556.07C224.4 556.33 223.55 556.6 222.49 556.88ZM223.27 563.63C221.49 563.63 219.92 563.51 218.56 563.27C217.22 563.05 216.1 562.7 215.2 562.22C214.3 561.74 213.62 561.12 213.16 560.36C212.7 559.58 212.47 558.64 212.47 557.54C212.47 557.04 212.51 556.53 212.59 556.01C212.67 555.47 212.77 554.93 212.89 554.39C213.03 553.85 213.17 553.33 213.31 552.83L215.56 553.4C215.48 553.7 215.39 554.06 215.29 554.48C215.19 554.88 215.1 555.29 215.02 555.71C214.96 556.13 214.93 556.51 214.93 556.85C214.93 557.89 215.19 558.73 215.71 559.37C216.25 559.99 217.18 560.45 218.5 560.75C219.82 561.03 221.67 561.17 224.05 561.17L224.65 562.67L223.27 563.63ZM239.227 563.15L239.497 560.69C240.637 560.69 241.437 560.58 241.897 560.36C242.357 560.14 242.617 559.75 242.677 559.19C242.757 558.63 242.777 557.85 242.737 556.85L242.167 541.58H244.597L245.197 556.58C245.237 557.64 245.197 558.58 245.077 559.4C244.977 560.22 244.717 560.91 244.297 561.47C243.897 562.03 243.287 562.45 242.467 562.73C241.667 563.01 240.587 563.15 239.227 563.15ZM255.75 563.15C254.15 563.15 252.92 562.97 252.06 562.61C251.22 562.25 250.64 561.69 250.32 560.93C250 560.17 249.82 559.19 249.78 557.99L249.18 541.58H251.64L252.24 557.03C252.28 558.01 252.37 558.77 252.51 559.31C252.67 559.83 253.01 560.19 253.53 560.39C254.07 560.59 254.91 560.69 256.05 560.69C256.47 560.69 256.77 560.81 256.95 561.05C257.15 561.27 257.25 561.54 257.25 561.86C257.25 562.18 257.11 562.48 256.83 562.76C256.55 563.02 256.19 563.15 255.75 563.15ZM255.75 563.15L256.05 560.69C256.61 560.69 257.05 560.57 257.37 560.33C257.71 560.09 258.03 559.69 258.33 559.13C258.65 558.57 259.05 557.82 259.53 556.88C260.01 555.92 260.49 555.14 260.97 554.54C261.47 553.92 261.95 553.44 262.41 553.1C262.89 552.74 263.34 552.49 263.76 552.35C264.18 552.21 264.57 552.14 264.93 552.14C265.59 552.14 266.18 552.29 266.7 552.59C267.22 552.87 267.71 553.36 268.17 554.06C268.63 554.74 269.1 555.68 269.58 556.88C270.04 557.98 270.45 558.81 270.81 559.37C271.19 559.91 271.58 560.27 271.98 560.45C272.4 560.61 272.87 560.69 273.39 560.69C273.81 560.69 274.11 560.81 274.29 561.05C274.49 561.27 274.59 561.54 274.59 561.86C274.59 562.18 274.45 562.48 274.17 562.76C273.89 563.02 273.53 563.15 273.09 563.15C272.31 563.15 271.59 563.02 270.93 562.76C270.29 562.5 269.75 562.09 269.31 561.53L269.73 560.9C269.51 561.52 269.21 562.03 268.83 562.43C268.47 562.81 268.06 563.09 267.6 563.27C267.14 563.47 266.65 563.57 266.13 563.57C265.47 563.57 264.79 563.43 264.09 563.15C263.41 562.87 262.75 562.47 262.11 561.95C261.47 561.43 260.91 560.82 260.43 560.12C259.91 561.04 259.41 561.72 258.93 562.16C258.47 562.58 257.99 562.85 257.49 562.97C256.99 563.09 256.41 563.15 255.75 563.15ZM261.57 557.84C261.91 558.4 262.27 558.89 262.65 559.31C263.05 559.73 263.45 560.08 263.85 560.36C264.25 560.62 264.64 560.82 265.02 560.96C265.42 561.08 265.78 561.14 266.1 561.14C266.8 561.14 267.31 560.89 267.63 560.39C267.97 559.89 267.96 559.19 267.6 558.29C267.42 557.83 267.23 557.38 267.03 556.94C266.85 556.5 266.65 556.1 266.43 555.74C266.21 555.36 265.96 555.07 265.68 554.87C265.4 554.65 265.09 554.54 264.75 554.54C264.45 554.54 264.13 554.64 263.79 554.84C263.47 555.04 263.12 555.38 262.74 555.86C262.38 556.34 261.99 557 261.57 557.84ZM273.094 563.15L273.364 560.69C274.504 560.69 275.304 560.58 275.764 560.36C276.224 560.14 276.484 559.75 276.544 559.19C276.624 558.63 276.644 557.85 276.604 556.85L276.034 541.58H278.464L279.064 556.58C279.104 557.64 279.064 558.58 278.944 559.4C278.844 560.22 278.584 560.91 278.164 561.47C277.764 562.03 277.154 562.45 276.334 562.73C275.534 563.01 274.454 563.15 273.094 563.15ZM283.647 563L283.047 541.58H285.477L286.077 563H283.647ZM305.939 574.82C305.039 574.82 304.089 574.73 303.089 574.55C302.089 574.39 301.149 574.07 300.269 573.59C299.409 573.13 298.699 572.47 298.139 571.61C297.599 570.77 297.329 569.68 297.329 568.34C297.329 566.98 297.579 565.79 298.079 564.77C298.599 563.77 299.259 562.89 300.059 562.13C300.879 561.35 301.739 560.65 302.639 560.03C303.539 559.41 304.389 558.83 305.189 558.29C306.009 557.75 306.669 557.21 307.169 556.67C307.689 556.11 307.949 555.5 307.949 554.84C307.949 554.58 307.859 554.32 307.679 554.06C307.519 553.78 307.249 553.55 306.869 553.37C306.509 553.19 306.019 553.1 305.399 553.1C304.959 553.1 304.469 553.16 303.929 553.28C303.389 553.4 302.869 553.57 302.369 553.79C301.889 553.99 301.489 554.22 301.169 554.48C301.709 554.92 302.209 555.35 302.669 555.77C303.149 556.19 303.639 556.65 304.139 557.15C304.639 557.63 305.179 558.18 305.759 558.8C306.259 559.08 306.749 559.34 307.229 559.58C307.729 559.8 308.259 560 308.819 560.18C309.379 560.34 310.019 560.47 310.739 560.57C311.459 560.65 312.299 560.69 313.259 560.69C313.679 560.69 313.979 560.81 314.159 561.05C314.359 561.27 314.459 561.54 314.459 561.86C314.459 562.18 314.319 562.48 314.039 562.76C313.759 563.02 313.399 563.15 312.959 563.15C311.299 563.15 309.919 563.02 308.819 562.76C307.739 562.5 306.819 562.15 306.059 561.71C305.299 561.27 304.569 560.78 303.869 560.24C303.529 559.8 303.149 559.36 302.729 558.92C302.309 558.48 301.849 558.04 301.349 557.6C300.869 557.14 300.349 556.71 299.789 556.31C299.669 556.21 299.549 556.03 299.429 555.77C299.309 555.51 299.209 555.24 299.129 554.96C299.049 554.68 299.009 554.47 299.009 554.33C299.009 554.03 299.199 553.67 299.579 553.25C299.959 552.83 300.469 552.43 301.109 552.05C301.749 551.65 302.479 551.32 303.299 551.06C304.119 550.8 304.969 550.67 305.849 550.67C307.269 550.67 308.369 551.02 309.149 551.72C309.929 552.42 310.319 553.24 310.319 554.18C310.319 555.2 310.059 556.11 309.539 556.91C309.039 557.71 308.389 558.44 307.589 559.1C306.789 559.76 305.939 560.4 305.039 561.02C304.159 561.64 303.319 562.29 302.519 562.97C301.719 563.63 301.059 564.36 300.539 565.16C300.039 565.96 299.789 566.89 299.789 567.95C299.789 568.87 300.009 569.62 300.449 570.2C300.889 570.78 301.439 571.22 302.099 571.52C302.759 571.84 303.439 572.06 304.139 572.18C304.839 572.3 305.439 572.36 305.939 572.36C306.639 572.36 307.349 572.31 308.069 572.21C308.809 572.11 309.569 571.95 310.349 571.73C311.149 571.51 311.949 571.24 312.749 570.92L313.529 572.84C312.949 573.18 312.239 573.5 311.399 573.8C310.559 574.12 309.669 574.37 308.729 574.55C307.789 574.73 306.859 574.82 305.939 574.82ZM312.967 563.15L313.267 560.69C313.827 560.69 314.297 560.57 314.677 560.33C315.057 560.09 315.427 559.69 315.787 559.13C316.147 558.57 316.537 557.82 316.957 556.88C317.537 555.6 318.107 554.63 318.667 553.97C319.247 553.31 319.817 552.86 320.377 552.62C320.957 552.38 321.527 552.26 322.087 552.26C322.767 552.26 323.397 552.44 323.977 552.8C324.557 553.14 325.067 553.6 325.507 554.18C325.947 554.76 326.287 555.4 326.527 556.1C326.787 556.78 326.917 557.46 326.917 558.14C326.917 559.34 326.707 560.3 326.287 561.02C325.867 561.72 325.327 562.23 324.667 562.55C324.027 562.85 323.357 563 322.657 563C322.037 563 321.237 562.88 320.257 562.64C319.297 562.4 318.077 561.79 316.597 560.81L317.767 558.92C318.747 559.54 319.627 559.97 320.407 560.21C321.207 560.43 321.867 560.54 322.387 560.54C322.967 560.54 323.427 560.46 323.767 560.3C324.107 560.12 324.357 559.87 324.517 559.55C324.677 559.23 324.757 558.87 324.757 558.47C324.757 557.89 324.617 557.31 324.337 556.73C324.057 556.15 323.697 555.67 323.257 555.29C322.837 554.91 322.387 554.72 321.907 554.72C321.547 554.72 321.197 554.82 320.857 555.02C320.517 555.22 320.167 555.59 319.807 556.13C319.447 556.67 319.037 557.45 318.577 558.47C318.097 559.55 317.637 560.41 317.197 561.05C316.777 561.67 316.347 562.13 315.907 562.43C315.467 562.73 315.007 562.92 314.527 563C314.067 563.1 313.547 563.15 312.967 563.15ZM338.623 563.03C338.623 562.55 338.663 562.04 338.743 561.5C338.843 560.94 338.983 560.35 339.163 559.73C339.363 559.09 339.603 558.42 339.883 557.72L342.043 558.56C341.843 559.12 341.663 559.65 341.503 560.15C341.363 560.65 341.253 561.12 341.173 561.56C341.113 562 341.083 562.42 341.083 562.82C341.083 563.84 341.353 564.7 341.893 565.4C342.433 566.1 343.133 566.62 343.993 566.96C344.873 567.32 345.813 567.5 346.813 567.5C348.773 567.5 350.303 567.15 351.403 566.45C352.503 565.77 353.273 564.86 353.713 563.72C354.153 562.6 354.343 561.37 354.283 560.03L353.623 541.58H356.113L356.593 556.79C356.633 557.81 356.793 558.61 357.073 559.19C357.373 559.75 357.773 560.14 358.273 560.36C358.773 560.58 359.323 560.69 359.923 560.69C360.343 560.69 360.643 560.81 360.823 561.05C361.023 561.27 361.123 561.54 361.123 561.86C361.123 562.18 360.983 562.48 360.703 562.76C360.423 563.02 360.063 563.15 359.623 563.15C359.003 563.15 358.473 563.07 358.033 562.91C357.593 562.73 357.233 562.51 356.953 562.25C356.673 561.97 356.453 561.66 356.293 561.32C356.133 560.96 356.013 560.6 355.933 560.24L356.773 561.08C356.693 562.14 356.463 563.19 356.083 564.23C355.723 565.29 355.163 566.25 354.403 567.11C353.643 567.97 352.623 568.66 351.343 569.18C350.083 569.7 348.523 569.96 346.663 569.96C345.623 569.96 344.613 569.8 343.633 569.48C342.673 569.18 341.813 568.73 341.053 568.13C340.313 567.53 339.723 566.8 339.283 565.94C338.843 565.1 338.623 564.13 338.623 563.03ZM374.157 563.54C372.397 563.54 370.917 563.47 369.717 563.33C368.537 563.21 367.577 563.02 366.837 562.76C366.097 562.5 365.537 562.17 365.157 561.77C364.777 561.37 364.517 560.89 364.377 560.33L365.067 560.09C364.567 561.05 364.027 561.75 363.447 562.19C362.867 562.61 362.257 562.88 361.617 563C360.997 563.1 360.337 563.15 359.637 563.15L359.937 560.69C360.637 560.69 361.207 560.59 361.647 560.39C362.107 560.19 362.477 559.86 362.757 559.4C363.057 558.94 363.317 558.33 363.537 557.57C363.757 556.81 363.997 555.87 364.257 554.75L366.447 555.32C366.327 555.78 366.217 556.22 366.117 556.64C366.017 557.06 365.937 557.43 365.877 557.75C365.837 558.05 365.817 558.29 365.817 558.47C365.817 558.95 365.927 559.36 366.147 559.7C366.367 560.02 366.787 560.29 367.407 560.51C368.027 560.71 368.917 560.86 370.077 560.96C371.257 561.04 372.797 561.08 374.697 561.08C376.017 561.08 377.197 561 378.237 560.84C379.277 560.68 380.147 560.44 380.847 560.12C381.567 559.78 382.117 559.37 382.497 558.89C382.877 558.41 383.067 557.86 383.067 557.24C383.067 556.8 382.957 556.37 382.737 555.95C382.517 555.51 382.177 555.14 381.717 554.84C381.257 554.54 380.647 554.39 379.887 554.39C378.927 554.39 377.967 554.64 377.007 555.14C376.067 555.64 375.167 556.27 374.307 557.03C373.467 557.77 372.717 558.53 372.057 559.31C371.397 560.09 370.867 560.77 370.467 561.35L367.857 561.26C368.497 560.22 369.257 559.16 370.137 558.08C371.037 556.98 372.017 555.97 373.077 555.05C374.157 554.11 375.287 553.36 376.467 552.8C377.647 552.22 378.847 551.93 380.067 551.93C381.167 551.93 382.107 552.16 382.887 552.62C383.687 553.06 384.297 553.66 384.717 554.42C385.157 555.18 385.377 556.04 385.377 557C385.377 558.18 385.027 559.27 384.327 560.27C383.647 561.25 382.487 562.04 380.847 562.64C379.207 563.24 376.977 563.54 374.157 563.54ZM389.496 563L388.896 541.58H391.326L391.926 563H389.496ZM395.625 569.9L395.085 567.44C396.285 567.28 397.385 567.05 398.385 566.75C399.405 566.47 400.275 566.06 400.995 565.52C401.735 564.98 402.305 564.27 402.705 563.39C403.105 562.51 403.305 561.41 403.305 560.09C403.305 558.73 403.055 557.6 402.555 556.7C402.055 555.8 401.405 555.35 400.605 555.35C400.185 555.35 399.795 555.51 399.435 555.83C399.075 556.15 398.775 556.58 398.535 557.12C398.315 557.66 398.205 558.25 398.205 558.89C398.205 559.25 398.285 559.55 398.445 559.79C398.605 560.01 398.835 560.19 399.135 560.33C399.455 560.45 399.855 560.54 400.335 560.6C400.815 560.66 401.375 560.69 402.015 560.69H408.345C408.765 560.69 409.065 560.81 409.245 561.05C409.445 561.27 409.545 561.54 409.545 561.86C409.545 562.18 409.405 562.48 409.125 562.76C408.845 563.02 408.485 563.15 408.045 563.15H400.875C399.975 563.15 399.135 563.02 398.355 562.76C397.595 562.5 396.975 562.1 396.495 561.56C396.035 561 395.805 560.27 395.805 559.37C395.805 558.53 395.935 557.73 396.195 556.97C396.455 556.19 396.805 555.5 397.245 554.9C397.705 554.28 398.235 553.79 398.835 553.43C399.455 553.07 400.125 552.89 400.845 552.89C401.765 552.89 402.585 553.16 403.305 553.7C404.025 554.24 404.595 555.06 405.015 556.16C405.435 557.24 405.645 558.61 405.645 560.27C405.645 562.13 405.265 563.73 404.505 565.07C403.765 566.43 402.645 567.51 401.145 568.31C399.665 569.11 397.825 569.64 395.625 569.9ZM408.035 563.15L408.335 560.69C409.515 560.69 410.435 560.65 411.095 560.57C411.755 560.47 412.225 560.24 412.505 559.88C412.785 559.5 412.925 558.91 412.925 558.11C412.925 557.61 412.845 557.02 412.685 556.34C412.525 555.64 412.315 554.9 412.055 554.12C411.795 553.34 411.515 552.57 411.215 551.81L413.645 550.91C413.905 551.55 414.145 552.28 414.365 553.1C414.605 553.92 414.805 554.73 414.965 555.53C415.125 556.33 415.205 557.03 415.205 557.63C415.205 558.63 415.065 559.48 414.785 560.18C414.525 560.88 414.105 561.45 413.525 561.89C412.945 562.33 412.195 562.65 411.275 562.85C410.375 563.05 409.295 563.15 408.035 563.15ZM414.575 547.79C414.155 547.79 413.795 547.65 413.495 547.37C413.215 547.07 413.075 546.72 413.075 546.32C413.075 545.92 413.215 545.57 413.495 545.27C413.795 544.97 414.155 544.82 414.575 544.82C414.975 544.82 415.315 544.97 415.595 545.27C415.895 545.57 416.045 545.92 416.045 546.32C416.045 546.72 415.895 547.07 415.595 547.37C415.315 547.65 414.975 547.79 414.575 547.79ZM410.465 547.79C410.045 547.79 409.685 547.65 409.385 547.37C409.105 547.07 408.965 546.72 408.965 546.32C408.965 545.92 409.105 545.57 409.385 545.27C409.685 544.97 410.045 544.82 410.465 544.82C410.865 544.82 411.205 544.97 411.485 545.27C411.785 545.57 411.935 545.92 411.935 546.32C411.935 546.72 411.785 547.07 411.485 547.37C411.205 547.65 410.865 547.79 410.465 547.79ZM171.293 598.18C170.813 598.18 170.433 598.05 170.153 597.79C169.873 597.53 169.733 597.15 169.733 596.65C169.733 596.13 169.903 595.69 170.243 595.33C170.603 594.97 171.023 594.79 171.503 594.79C172.003 594.79 172.393 594.93 172.673 595.21C172.973 595.47 173.123 595.86 173.123 596.38C173.123 596.88 172.943 597.31 172.583 597.67C172.223 598.01 171.793 598.18 171.293 598.18ZM184.114 606.16C182.914 606.16 181.784 606.02 180.724 605.74C179.664 605.48 178.714 605.06 177.874 604.48C177.054 603.92 176.404 603.19 175.924 602.29C175.464 601.39 175.234 600.31 175.234 599.05C175.234 598.75 175.264 598.33 175.324 597.79C175.404 597.23 175.564 596.56 175.804 595.78C176.044 595 176.424 594.14 176.944 593.2L179.134 594.22C178.834 594.84 178.584 595.41 178.384 595.93C178.184 596.43 178.034 596.9 177.934 597.34C177.854 597.76 177.814 598.18 177.814 598.6C177.814 599.84 178.124 600.83 178.744 601.57C179.384 602.31 180.224 602.84 181.264 603.16C182.324 603.48 183.494 603.64 184.774 603.64C185.694 603.64 186.554 603.57 187.354 603.43C188.154 603.29 188.874 603.09 189.514 602.83C190.174 602.57 190.754 602.26 191.254 601.9C191.754 601.54 192.174 601.14 192.514 600.7C192.854 600.28 193.104 599.82 193.264 599.32C193.464 598.72 193.604 598.06 193.684 597.34C193.784 596.62 193.834 596.07 193.834 595.69C193.834 594.57 193.714 593.63 193.474 592.87C193.234 592.09 192.904 591.5 192.484 591.1C192.084 590.7 191.634 590.5 191.134 590.5C190.814 590.5 190.504 590.6 190.204 590.8C189.924 590.98 189.674 591.23 189.454 591.55C189.234 591.87 189.054 592.24 188.914 592.66C188.794 593.06 188.734 593.48 188.734 593.92C188.734 594.28 188.814 594.58 188.974 594.82C189.134 595.04 189.364 595.22 189.664 595.36C189.984 595.48 190.384 595.57 190.864 595.63C191.344 595.67 191.904 595.69 192.544 595.69H198.874C199.294 595.69 199.594 595.81 199.774 596.05C199.974 596.27 200.074 596.54 200.074 596.86C200.074 597.18 199.934 597.48 199.654 597.76C199.374 598.02 199.014 598.15 198.574 598.15H191.404C190.724 598.15 190.084 598.08 189.484 597.94C188.884 597.8 188.344 597.58 187.864 597.28C187.404 596.98 187.034 596.59 186.754 596.11C186.494 595.63 186.354 595.05 186.334 594.37C186.314 593.63 186.424 592.89 186.664 592.15C186.924 591.41 187.284 590.73 187.744 590.11C188.204 589.49 188.744 589 189.364 588.64C189.984 588.26 190.654 588.07 191.374 588.07C192.294 588.07 193.124 588.35 193.864 588.91C194.604 589.47 195.194 590.35 195.634 591.55C196.074 592.73 196.294 594.25 196.294 596.11C196.294 596.65 196.184 597.39 195.964 598.33C195.764 599.27 195.464 600.17 195.064 601.03C194.584 601.97 193.974 602.76 193.234 603.4C192.494 604.06 191.644 604.59 190.684 604.99C189.744 605.41 188.724 605.71 187.624 605.89C186.524 606.07 185.354 606.16 184.114 606.16ZM193.504 584.98C193.084 584.98 192.724 584.84 192.424 584.56C192.144 584.26 192.004 583.91 192.004 583.51C192.004 583.11 192.144 582.76 192.424 582.46C192.724 582.16 193.084 582.01 193.504 582.01C193.904 582.01 194.244 582.16 194.524 582.46C194.824 582.76 194.974 583.11 194.974 583.51C194.974 583.91 194.824 584.26 194.524 584.56C194.244 584.84 193.904 584.98 193.504 584.98ZM189.394 584.98C188.974 584.98 188.614 584.84 188.314 584.56C188.034 584.26 187.894 583.91 187.894 583.51C187.894 583.11 188.034 582.76 188.314 582.46C188.614 582.16 188.974 582.01 189.394 582.01C189.794 582.01 190.134 582.16 190.414 582.46C190.714 582.76 190.864 583.11 190.864 583.51C190.864 583.91 190.714 584.26 190.414 584.56C190.134 584.84 189.794 584.98 189.394 584.98ZM198.562 598.15L198.863 595.69C199.863 595.69 200.643 595.62 201.203 595.48C201.763 595.32 202.183 595.03 202.463 594.61C202.763 594.17 203.003 593.54 203.183 592.72C203.363 591.9 203.583 590.83 203.843 589.51L206.183 589.96C206.103 590.32 206.013 590.72 205.913 591.16C205.813 591.6 205.723 592.04 205.643 592.48C205.583 592.9 205.553 593.27 205.553 593.59C205.553 593.89 205.573 594.17 205.613 594.43C205.653 594.69 205.803 594.91 206.062 595.09C206.323 595.27 206.763 595.42 207.382 595.54C208.003 595.64 208.893 595.69 210.053 595.69C210.473 595.69 210.773 595.81 210.953 596.05C211.153 596.27 211.253 596.54 211.253 596.86C211.253 597.18 211.113 597.48 210.833 597.76C210.553 598.02 210.193 598.15 209.753 598.15C208.533 598.15 207.563 598.09 206.843 597.97C206.123 597.83 205.573 597.63 205.193 597.37C204.833 597.11 204.573 596.79 204.413 596.41C204.273 596.01 204.163 595.55 204.083 595.03L204.983 595.09C204.663 595.73 204.313 596.25 203.933 596.65C203.573 597.05 203.153 597.36 202.673 597.58C202.193 597.8 201.613 597.95 200.933 598.03C200.273 598.11 199.483 598.15 198.562 598.15ZM206.123 603.82C205.703 603.82 205.343 603.67 205.043 603.37C204.763 603.09 204.623 602.75 204.623 602.35C204.623 601.95 204.763 601.6 205.043 601.3C205.343 601 205.703 600.85 206.123 600.85C206.523 600.85 206.863 601 207.143 601.3C207.443 601.6 207.593 601.95 207.593 602.35C207.593 602.75 207.443 603.09 207.143 603.37C206.863 603.67 206.523 603.82 206.123 603.82ZM202.013 603.82C201.593 603.82 201.233 603.67 200.933 603.37C200.653 603.09 200.513 602.75 200.513 602.35C200.513 601.95 200.653 601.6 200.933 601.3C201.233 601 201.593 600.85 202.013 600.85C202.413 600.85 202.753 601 203.033 601.3C203.333 601.6 203.483 601.95 203.483 602.35C203.483 602.75 203.333 603.09 203.033 603.37C202.753 603.67 202.413 603.82 202.013 603.82ZM209.754 598.15L210.054 595.69C210.894 595.69 211.554 595.62 212.034 595.48C212.514 595.32 212.874 595.03 213.114 594.61C213.374 594.17 213.594 593.54 213.774 592.72C213.954 591.9 214.174 590.83 214.434 589.51L216.774 589.96C216.694 590.32 216.604 590.72 216.504 591.16C216.404 591.6 216.314 592.04 216.234 592.48C216.174 592.9 216.144 593.27 216.144 593.59C216.144 593.99 216.234 594.35 216.414 594.67C216.594 594.99 216.984 595.24 217.584 595.42C218.184 595.6 219.104 595.69 220.344 595.69C220.764 595.69 221.064 595.81 221.244 596.05C221.444 596.27 221.544 596.54 221.544 596.86C221.544 597.18 221.404 597.48 221.124 597.76C220.844 598.02 220.484 598.15 220.044 598.15C218.744 598.15 217.724 598.04 216.984 597.82C216.244 597.58 215.704 597.23 215.364 596.77C215.024 596.29 214.794 595.71 214.674 595.03L215.574 595.09C215.254 595.73 214.904 596.25 214.524 596.65C214.164 597.05 213.764 597.36 213.324 597.58C212.884 597.8 212.374 597.95 211.794 598.03C211.214 598.11 210.534 598.15 209.754 598.15ZM214.854 603.73C214.434 603.73 214.074 603.58 213.774 603.28C213.494 603 213.354 602.66 213.354 602.26C213.354 601.86 213.494 601.51 213.774 601.21C214.074 600.91 214.434 600.76 214.854 600.76C215.254 600.76 215.594 600.91 215.874 601.21C216.174 601.51 216.324 601.86 216.324 602.26C216.324 602.66 216.174 603 215.874 603.28C215.594 603.58 215.254 603.73 214.854 603.73ZM241.337 598.15C240.817 598.15 240.157 598.1 239.357 598C238.577 597.88 237.777 597.68 236.957 597.4C236.157 597.12 235.477 596.73 234.917 596.23L237.377 595C238.077 595.28 238.797 595.47 239.537 595.57C240.297 595.65 240.997 595.69 241.637 595.69C242.057 595.69 242.357 595.81 242.537 596.05C242.737 596.27 242.837 596.54 242.837 596.86C242.837 597.18 242.697 597.48 242.417 597.76C242.137 598.02 241.777 598.15 241.337 598.15ZM220.037 598.15L220.337 595.69H226.607C228.347 595.69 229.847 595.62 231.107 595.48C232.387 595.32 233.437 595.09 234.257 594.79C235.077 594.49 235.687 594.11 236.087 593.65C236.487 593.17 236.687 592.61 236.687 591.97C236.687 591.63 236.577 591.26 236.357 590.86C236.137 590.46 235.797 590.12 235.337 589.84C234.877 589.54 234.267 589.39 233.507 589.39C232.547 589.39 231.587 589.64 230.627 590.14C229.687 590.64 228.787 591.27 227.927 592.03C227.087 592.77 226.337 593.53 225.677 594.31C225.017 595.09 224.487 595.77 224.087 596.35L221.477 596.26C222.117 595.22 222.877 594.16 223.757 593.08C224.657 591.98 225.637 590.97 226.697 590.05C227.777 589.11 228.907 588.36 230.087 587.8C231.267 587.22 232.467 586.93 233.687 586.93C234.787 586.93 235.727 587.16 236.507 587.62C237.307 588.06 237.917 588.66 238.337 589.42C238.777 590.18 238.997 591.04 238.997 592C238.997 592.94 238.657 593.89 237.977 594.85C237.297 595.79 236.127 596.53 234.467 597.07C233.627 597.35 232.667 597.57 231.587 597.73C230.507 597.89 229.277 598 227.897 598.06C226.517 598.12 224.947 598.15 223.187 598.15H220.037ZM222.887 595.18L222.287 576.58H224.717L225.317 593.08L222.887 595.18ZM241.336 598.15L241.636 595.69C242.636 595.69 243.416 595.62 243.976 595.48C244.536 595.32 244.956 595.03 245.236 594.61C245.536 594.17 245.776 593.54 245.956 592.72C246.136 591.9 246.356 590.83 246.616 589.51L248.956 589.96C248.876 590.32 248.786 590.72 248.686 591.16C248.586 591.6 248.496 592.04 248.416 592.48C248.356 592.9 248.326 593.27 248.326 593.59C248.326 593.89 248.346 594.17 248.386 594.43C248.426 594.69 248.576 594.91 248.836 595.09C249.096 595.27 249.536 595.42 250.156 595.54C250.776 595.64 251.666 595.69 252.826 595.69C253.246 595.69 253.546 595.81 253.726 596.05C253.926 596.27 254.026 596.54 254.026 596.86C254.026 597.18 253.886 597.48 253.606 597.76C253.326 598.02 252.966 598.15 252.526 598.15C251.306 598.15 250.336 598.09 249.616 597.97C248.896 597.83 248.346 597.63 247.966 597.37C247.606 597.11 247.346 596.79 247.186 596.41C247.046 596.01 246.936 595.55 246.856 595.03L247.756 595.09C247.436 595.73 247.086 596.25 246.706 596.65C246.346 597.05 245.926 597.36 245.446 597.58C244.966 597.8 244.386 597.95 243.706 598.03C243.046 598.11 242.256 598.15 241.336 598.15ZM249.346 586.42C248.926 586.42 248.566 586.28 248.266 586C247.986 585.7 247.846 585.35 247.846 584.95C247.846 584.55 247.986 584.2 248.266 583.9C248.566 583.6 248.926 583.45 249.346 583.45C249.746 583.45 250.086 583.6 250.366 583.9C250.666 584.2 250.816 584.55 250.816 584.95C250.816 585.35 250.666 585.7 250.366 586C250.086 586.28 249.746 586.42 249.346 586.42ZM245.236 586.42C244.816 586.42 244.456 586.28 244.156 586C243.876 585.7 243.736 585.35 243.736 584.95C243.736 584.55 243.876 584.2 244.156 583.9C244.456 583.6 244.816 583.45 245.236 583.45C245.636 583.45 245.976 583.6 246.256 583.9C246.556 584.2 246.706 584.55 246.706 584.95C246.706 585.35 246.556 585.7 246.256 586C245.976 586.28 245.636 586.42 245.236 586.42ZM252.527 598.15L252.797 595.69C253.937 595.69 254.737 595.58 255.197 595.36C255.657 595.14 255.917 594.75 255.977 594.19C256.057 593.63 256.077 592.85 256.037 591.85L255.467 576.58H257.897L258.497 591.58C258.537 592.64 258.497 593.58 258.377 594.4C258.277 595.22 258.017 595.91 257.597 596.47C257.197 597.03 256.587 597.45 255.767 597.73C254.967 598.01 253.887 598.15 252.527 598.15ZM263.08 598L262.48 576.58H264.91L265.51 598H263.08ZM276.583 604.96L275.713 602.68C277.173 602.2 278.383 601.65 279.343 601.03C280.323 600.41 281.093 599.75 281.653 599.05C282.233 598.35 282.643 597.64 282.883 596.92C283.123 596.18 283.243 595.47 283.243 594.79C283.243 593.81 283.023 592.82 282.583 591.82C282.163 590.8 281.693 589.84 281.173 588.94L283.363 587.83C283.743 588.53 284.073 589.22 284.353 589.9C284.653 590.58 284.913 591.22 285.133 591.82C285.373 592.42 285.563 592.97 285.703 593.47C285.983 594.33 286.343 594.92 286.783 595.24C287.243 595.54 287.863 595.69 288.643 595.69C289.063 595.69 289.363 595.81 289.543 596.05C289.743 596.27 289.843 596.54 289.843 596.86C289.843 597.18 289.703 597.48 289.423 597.76C289.143 598.02 288.783 598.15 288.343 598.15C287.463 598.15 286.743 598 286.183 597.7C285.643 597.38 285.233 596.97 284.953 596.47C284.673 595.95 284.483 595.41 284.383 594.85L285.343 595.39C285.343 596.71 285.043 597.91 284.443 598.99C283.863 600.09 283.113 601.04 282.193 601.84C281.273 602.66 280.313 603.33 279.313 603.85C278.313 604.37 277.403 604.74 276.583 604.96ZM288.357 598.15L288.657 595.69C289.497 595.69 290.157 595.62 290.637 595.48C291.117 595.32 291.477 595.03 291.717 594.61C291.977 594.17 292.197 593.54 292.377 592.72C292.557 591.9 292.777 590.83 293.037 589.51L295.377 589.96C295.297 590.32 295.207 590.72 295.107 591.16C295.007 591.6 294.917 592.04 294.837 592.48C294.777 592.9 294.747 593.27 294.747 593.59C294.747 593.99 294.837 594.35 295.017 594.67C295.197 594.99 295.587 595.24 296.187 595.42C296.787 595.6 297.707 595.69 298.947 595.69C299.367 595.69 299.667 595.81 299.847 596.05C300.047 596.27 300.147 596.54 300.147 596.86C300.147 597.18 300.007 597.48 299.727 597.76C299.447 598.02 299.087 598.15 298.647 598.15C297.347 598.15 296.327 598.04 295.587 597.82C294.847 597.58 294.307 597.23 293.967 596.77C293.627 596.29 293.397 595.71 293.277 595.03L294.177 595.09C293.857 595.73 293.507 596.25 293.127 596.65C292.767 597.05 292.367 597.36 291.927 597.58C291.487 597.8 290.977 597.95 290.397 598.03C289.817 598.11 289.137 598.15 288.357 598.15ZM293.457 603.73C293.037 603.73 292.677 603.58 292.377 603.28C292.097 603 291.957 602.66 291.957 602.26C291.957 601.86 292.097 601.51 292.377 601.21C292.677 600.91 293.037 600.76 293.457 600.76C293.857 600.76 294.197 600.91 294.477 601.21C294.777 601.51 294.927 601.86 294.927 602.26C294.927 602.66 294.777 603 294.477 603.28C294.197 603.58 293.857 603.73 293.457 603.73ZM298.641 598.15L298.941 595.69C300.201 595.69 301.171 595.68 301.851 595.66C302.551 595.64 303.061 595.62 303.381 595.6C303.701 595.56 303.921 595.54 304.041 595.54C303.681 595.34 303.261 595.03 302.781 594.61C302.301 594.17 301.881 593.62 301.521 592.96C301.161 592.28 300.981 591.48 300.981 590.56C300.981 589.42 301.241 588.42 301.761 587.56C302.301 586.7 303.031 586.03 303.951 585.55C304.891 585.07 305.961 584.83 307.161 584.83C307.621 584.83 308.111 584.87 308.631 584.95C309.151 585.03 309.651 585.15 310.131 585.31L309.621 587.62C309.221 587.52 308.801 587.44 308.361 587.38C307.921 587.32 307.521 587.29 307.161 587.29C306.441 587.29 305.801 587.43 305.241 587.71C304.681 587.97 304.241 588.34 303.921 588.82C303.601 589.3 303.441 589.88 303.441 590.56C303.441 591.08 303.551 591.56 303.771 592C303.991 592.42 304.281 592.8 304.641 593.14C305.001 593.48 305.401 593.76 305.841 593.98C306.281 594.2 306.711 594.37 307.131 594.49C307.571 594.61 307.961 594.66 308.301 594.64C308.541 594.56 308.761 594.49 308.961 594.43C309.161 594.37 309.381 594.3 309.621 594.22C309.881 594.12 310.191 593.99 310.551 593.83C310.931 593.67 311.411 593.46 311.991 593.2L312.831 595.39C311.491 595.93 310.121 596.41 308.721 596.83C307.341 597.25 305.831 597.58 304.191 597.82C302.571 598.04 300.721 598.15 298.641 598.15ZM337.303 598.15C336.223 598.15 335.263 598 334.423 597.7C333.603 597.38 332.943 596.85 332.443 596.11C331.963 595.35 331.693 594.3 331.633 592.96L331.153 582.52H333.583L334.063 592.42C334.123 593.36 334.293 594.07 334.573 594.55C334.853 595.01 335.243 595.32 335.743 595.48C336.263 595.62 336.883 595.69 337.603 595.69C338.023 595.69 338.323 595.81 338.503 596.05C338.703 596.27 338.803 596.54 338.803 596.86C338.803 597.18 338.663 597.48 338.383 597.76C338.103 598.02 337.743 598.15 337.303 598.15ZM332.773 594.85C331.633 595.21 330.523 595.39 329.443 595.39C328.363 595.39 327.383 595.23 326.503 594.91C325.623 594.59 324.923 594.13 324.403 593.53C323.883 592.91 323.623 592.17 323.623 591.31C323.623 590.47 323.833 589.68 324.253 588.94C324.693 588.2 325.283 587.54 326.023 586.96C326.783 586.38 327.653 585.9 328.633 585.52C329.633 585.12 330.693 584.85 331.813 584.71L332.233 587.23C331.233 587.27 330.343 587.41 329.563 587.65C328.803 587.87 328.153 588.16 327.613 588.52C327.093 588.88 326.693 589.27 326.413 589.69C326.133 590.11 325.993 590.52 325.993 590.92C325.993 591.36 326.153 591.72 326.473 592C326.793 592.28 327.203 592.5 327.703 592.66C328.203 592.8 328.753 592.89 329.353 592.93C329.953 592.95 330.533 592.93 331.093 592.87C331.653 592.79 332.133 592.68 332.533 592.54L332.773 594.85ZM332.143 579.07C331.723 579.07 331.363 578.93 331.063 578.65C330.783 578.35 330.643 578 330.643 577.6C330.643 577.2 330.783 576.85 331.063 576.55C331.363 576.25 331.723 576.1 332.143 576.1C332.543 576.1 332.883 576.25 333.163 576.55C333.463 576.85 333.613 577.2 333.613 577.6C333.613 578 333.463 578.35 333.163 578.65C332.883 578.93 332.543 579.07 332.143 579.07ZM328.033 579.07C327.613 579.07 327.253 578.93 326.953 578.65C326.673 578.35 326.533 578 326.533 577.6C326.533 577.2 326.673 576.85 326.953 576.55C327.253 576.25 327.613 576.1 328.033 576.1C328.433 576.1 328.773 576.25 329.053 576.55C329.353 576.85 329.503 577.2 329.503 577.6C329.503 578 329.353 578.35 329.053 578.65C328.773 578.93 328.433 579.07 328.033 579.07ZM337.312 598.15L337.583 595.69C338.722 595.69 339.523 595.58 339.983 595.36C340.443 595.14 340.703 594.75 340.763 594.19C340.843 593.63 340.863 592.85 340.823 591.85L340.253 576.58H342.683L343.283 591.58C343.323 592.64 343.283 593.58 343.163 594.4C343.063 595.22 342.803 595.91 342.383 596.47C341.983 597.03 341.373 597.45 340.553 597.73C339.753 598.01 338.673 598.15 337.312 598.15ZM346.845 604.9L346.305 602.44C347.505 602.28 348.605 602.05 349.605 601.75C350.625 601.47 351.495 601.06 352.215 600.52C352.955 599.98 353.525 599.27 353.925 598.39C354.325 597.51 354.525 596.41 354.525 595.09C354.525 593.73 354.275 592.6 353.775 591.7C353.275 590.8 352.625 590.35 351.825 590.35C351.405 590.35 351.015 590.51 350.655 590.83C350.295 591.15 349.995 591.58 349.755 592.12C349.535 592.66 349.425 593.25 349.425 593.89C349.425 594.25 349.505 594.55 349.665 594.79C349.825 595.01 350.055 595.19 350.355 595.33C350.675 595.45 351.075 595.54 351.555 595.6C352.035 595.66 352.595 595.69 353.235 595.69H359.565C359.985 595.69 360.285 595.81 360.465 596.05C360.665 596.27 360.765 596.54 360.765 596.86C360.765 597.18 360.625 597.48 360.345 597.76C360.065 598.02 359.705 598.15 359.265 598.15H352.095C351.195 598.15 350.355 598.02 349.575 597.76C348.815 597.5 348.195 597.1 347.715 596.56C347.255 596 347.025 595.27 347.025 594.37C347.025 593.53 347.155 592.73 347.415 591.97C347.675 591.19 348.025 590.5 348.465 589.9C348.925 589.28 349.455 588.79 350.055 588.43C350.675 588.07 351.345 587.89 352.065 587.89C352.985 587.89 353.805 588.16 354.525 588.7C355.245 589.24 355.815 590.06 356.235 591.16C356.655 592.24 356.865 593.61 356.865 595.27C356.865 597.13 356.485 598.73 355.725 600.07C354.985 601.43 353.865 602.51 352.365 603.31C350.885 604.11 349.045 604.64 346.845 604.9ZM368.466 604.51C367.206 604.51 366.066 604.22 365.046 603.64C364.026 603.06 363.216 602.18 362.616 601C362.016 599.84 361.716 598.38 361.716 596.62C361.716 595 361.906 593.51 362.286 592.15C362.666 590.79 363.166 589.62 363.786 588.64C364.426 587.64 365.126 586.87 365.886 586.33C366.646 585.79 367.396 585.52 368.136 585.52C368.796 585.52 369.386 585.71 369.906 586.09C370.426 586.47 370.836 587 371.136 587.68C371.436 588.36 371.586 589.17 371.586 590.11C371.586 590.95 371.456 591.79 371.196 592.63C370.936 593.47 370.446 594.23 369.726 594.91C369.026 595.59 368.016 596.11 366.696 596.47L368.646 594.82C369.286 594.98 369.926 595.13 370.566 595.27C371.226 595.39 371.896 595.49 372.576 595.57C373.276 595.65 374.006 595.69 374.766 595.69C375.186 595.69 375.486 595.81 375.666 596.05C375.866 596.27 375.966 596.54 375.966 596.86C375.966 597.18 375.826 597.48 375.546 597.76C375.266 598.02 374.906 598.15 374.466 598.15C373.926 598.15 373.346 598.12 372.726 598.06C372.106 598 371.486 597.93 370.866 597.85C370.246 597.75 369.656 597.64 369.096 597.52L371.706 597.43C372.206 597.97 372.546 598.55 372.726 599.17C372.926 599.81 372.976 600.44 372.876 601.06C372.796 601.7 372.566 602.28 372.186 602.8C371.826 603.32 371.336 603.73 370.716 604.03C370.096 604.35 369.346 604.51 368.466 604.51ZM359.256 598.15L359.556 595.69C359.976 595.69 360.396 595.69 360.816 595.69C361.236 595.69 361.636 595.68 362.016 595.66L362.136 597.88C361.676 597.96 361.196 598.02 360.696 598.06C360.216 598.12 359.736 598.15 359.256 598.15ZM368.526 602.05C368.886 602.05 369.236 601.98 369.576 601.84C369.936 601.72 370.226 601.5 370.446 601.18C370.686 600.88 370.806 600.47 370.806 599.95C370.806 599.45 370.676 598.99 370.416 598.57C370.176 598.17 369.746 597.84 369.126 597.58C368.506 597.32 367.626 597.19 366.486 597.19C366.246 597.19 365.976 597.21 365.676 597.25C365.396 597.27 365.106 597.31 364.806 597.37C364.506 597.41 364.196 597.47 363.876 597.55V595.51C364.636 595.41 365.326 595.26 365.946 595.06C366.586 594.84 367.146 594.54 367.626 594.16C368.106 593.78 368.476 593.28 368.736 592.66C368.996 592.04 369.126 591.28 369.126 590.38C369.126 590.08 369.086 589.74 369.006 589.36C368.946 588.98 368.826 588.66 368.646 588.4C368.466 588.12 368.226 587.98 367.926 587.98C367.626 587.98 367.256 588.18 366.816 588.58C366.396 588.98 365.976 589.54 365.556 590.26C365.156 590.98 364.816 591.84 364.536 592.84C364.276 593.82 364.146 594.9 364.146 596.08C364.146 597.38 364.286 598.42 364.566 599.2C364.866 600 365.246 600.6 365.706 601C366.166 601.42 366.646 601.7 367.146 601.84C367.646 601.98 368.106 602.05 368.526 602.05ZM374.461 598.15L374.761 595.69C375.401 595.69 375.921 595.65 376.321 595.57C376.721 595.47 377.051 595.24 377.311 594.88C377.591 594.5 377.851 593.91 378.091 593.11C378.331 592.31 378.611 591.19 378.931 589.75L381.181 590.38C381.061 590.88 380.921 591.48 380.761 592.18C380.601 592.88 380.521 593.52 380.521 594.1C380.521 594.42 380.601 594.7 380.761 594.94C380.921 595.18 381.191 595.37 381.571 595.51C381.971 595.63 382.501 595.69 383.161 595.69C383.761 595.69 384.251 595.64 384.631 595.54C385.011 595.44 385.321 595.2 385.561 594.82C385.821 594.44 386.051 593.83 386.251 592.99C386.451 592.15 386.661 591 386.881 589.54L389.161 589.96C389.101 590.32 389.031 590.76 388.951 591.28C388.871 591.8 388.791 592.32 388.711 592.84C388.651 593.34 388.621 593.76 388.621 594.1C388.621 594.38 388.681 594.65 388.801 594.91C388.941 595.15 389.201 595.34 389.581 595.48C389.981 595.62 390.571 595.69 391.351 595.69C392.351 595.69 393.071 595.48 393.511 595.06C393.971 594.64 394.201 594 394.201 593.14C394.201 592.68 394.191 592.2 394.171 591.7C394.151 591.18 394.111 590.61 394.051 589.99C394.011 589.35 393.941 588.62 393.841 587.8L396.031 587.65C396.151 589.27 396.281 590.6 396.421 591.64C396.581 592.68 396.801 593.5 397.081 594.1C397.381 594.68 397.781 595.09 398.281 595.33C398.781 595.57 399.441 595.69 400.261 595.69C400.681 595.69 400.981 595.81 401.161 596.05C401.361 596.27 401.461 596.54 401.461 596.86C401.461 597.18 401.321 597.48 401.041 597.76C400.761 598.02 400.401 598.15 399.961 598.15C399.281 598.15 398.671 598.06 398.131 597.88C397.611 597.68 397.151 597.42 396.751 597.1C396.371 596.76 396.051 596.38 395.791 595.96C395.551 595.52 395.381 595.06 395.281 594.58L395.821 594.76C395.601 595.66 395.251 596.36 394.771 596.86C394.311 597.34 393.761 597.68 393.121 597.88C392.481 598.06 391.801 598.15 391.081 598.15C390.201 598.15 389.481 598.04 388.921 597.82C388.361 597.6 387.921 597.27 387.601 596.83C387.301 596.37 387.101 595.79 387.001 595.09H388.021C387.641 595.95 387.241 596.6 386.821 597.04C386.401 597.48 385.881 597.78 385.261 597.94C384.641 598.08 383.821 598.15 382.801 598.15C382.301 598.15 381.761 598.07 381.181 597.91C380.621 597.75 380.131 597.44 379.711 596.98C379.291 596.5 379.041 595.79 378.961 594.85L379.861 594.67C379.521 595.69 379.101 596.45 378.601 596.95C378.121 597.43 377.541 597.75 376.861 597.91C376.181 598.07 375.381 598.15 374.461 598.15ZM399.949 598.15L400.249 595.69C401.229 595.69 402.009 595.63 402.589 595.51C403.169 595.39 403.589 595.15 403.849 594.79C404.109 594.41 404.239 593.85 404.239 593.11C404.239 592.61 404.159 592.02 403.999 591.34C403.839 590.64 403.629 589.9 403.369 589.12C403.109 588.34 402.829 587.57 402.529 586.81L404.959 585.91C405.219 586.55 405.459 587.28 405.679 588.1C405.919 588.92 406.119 589.73 406.279 590.53C406.439 591.33 406.519 592.03 406.519 592.63C406.519 593.43 406.429 594.14 406.249 594.76C406.089 595.36 405.839 595.88 405.499 596.32C405.159 596.74 404.719 597.09 404.179 597.37C403.659 597.63 403.049 597.83 402.349 597.97C401.649 598.09 400.849 598.15 399.949 598.15ZM403.159 603.73C402.739 603.73 402.379 603.58 402.079 603.28C401.799 603 401.659 602.66 401.659 602.26C401.659 601.86 401.799 601.51 402.079 601.21C402.379 600.91 402.739 600.76 403.159 600.76C403.559 600.76 403.899 600.91 404.179 601.21C404.479 601.51 404.629 601.86 404.629 602.26C404.629 602.66 404.479 603 404.179 603.28C403.899 603.58 403.559 603.73 403.159 603.73Z" fill="#F18701"/>
<path d="M314.905 846.448C415.439 856.883 431.98 788.201 427.683 752.271L442.7 875.908L415.338 971.439L260.606 982.971C248.131 963.081 221.143 925.011 212.99 931.842C202.799 940.382 188.898 833.37 314.905 846.448Z" fill="#5C27FE"/>
</g>
<defs>
<clipPath id="clip0_6_31">
<rect width="430" height="932" fill="white"/>
</clipPath>
</defs>
</svg>
