<svg width="430" height="932" viewBox="0 0 430 932" fill="none" xmlns="http://www.w3.org/2000/svg">
<g clip-path="url(#clip0_6_16)">
<rect width="430" height="932" fill="#CBF3F0"/>
<path d="M99.1541 90.3985C-1.92009 90.3985 -11.2825 160.421 -3.29872 195.715L-31 74.2899L-13.6461 -23.5556L139.068 -51C153.53 -32.5048 184.304 2.57632 191.708 -5.06039C200.964 -14.6063 225.837 90.3985 99.1541 90.3985Z" fill="#5C27FE"/>
<path d="M314.905 846.448C415.439 856.883 431.98 788.201 427.683 752.271L442.7 875.908L415.338 971.439L260.606 982.971C248.131 963.081 221.143 925.011 212.99 931.842C202.799 940.382 188.898 833.37 314.905 846.448Z" fill="#5C27FE"/>
<path d="M145.585 178.88C143.798 178.88 142.118 178.68 140.545 178.28C138.998 177.907 137.625 177.307 136.425 176.48C135.252 175.68 134.332 174.627 133.665 173.32C132.998 172.04 132.665 170.493 132.665 168.68C132.665 168.067 132.705 167.373 132.785 166.6C132.892 165.827 133.105 164.907 133.425 163.84C133.745 162.747 134.238 161.48 134.905 160.04L139.785 161.92C139.412 162.88 139.105 163.693 138.865 164.36C138.652 165 138.492 165.587 138.385 166.12C138.305 166.627 138.265 167.16 138.265 167.72C138.265 168.893 138.598 169.893 139.265 170.72C139.932 171.573 140.878 172.213 142.105 172.64C143.358 173.067 144.838 173.28 146.545 173.28C147.718 173.28 148.798 173.187 149.785 173C150.798 172.84 151.705 172.6 152.505 172.28C153.305 171.96 154.012 171.587 154.625 171.16C155.238 170.76 155.745 170.307 156.145 169.8C156.572 169.32 156.878 168.827 157.065 168.32C157.305 167.627 157.478 166.853 157.585 166C157.692 165.147 157.745 164.253 157.745 163.32C157.745 162.147 157.638 161.16 157.425 160.36C157.212 159.56 156.905 158.96 156.505 158.56C156.105 158.133 155.625 157.92 155.065 157.92C154.692 157.92 154.345 158.013 154.025 158.2C153.732 158.387 153.465 158.627 153.225 158.92C153.012 159.213 152.838 159.533 152.705 159.88C152.598 160.2 152.545 160.52 152.545 160.84C152.545 161.187 152.625 161.507 152.785 161.8C152.945 162.067 153.252 162.293 153.705 162.48C154.185 162.64 154.905 162.747 155.865 162.8C156.825 162.827 158.105 162.76 159.705 162.6L166.225 162.56C167.238 162.56 167.958 162.827 168.385 163.36C168.812 163.867 169.025 164.507 169.025 165.28C169.025 166.133 168.745 166.84 168.185 167.4C167.625 167.933 166.838 168.2 165.825 168.2H156.065C154.545 168.2 153.225 168.067 152.105 167.8C150.985 167.533 150.052 167.133 149.305 166.6C148.585 166.04 148.038 165.36 147.665 164.56C147.292 163.76 147.105 162.84 147.105 161.8C147.105 160.6 147.318 159.44 147.745 158.32C148.198 157.173 148.812 156.16 149.585 155.28C150.358 154.4 151.225 153.707 152.185 153.2C153.172 152.667 154.185 152.4 155.225 152.4C156.905 152.4 158.345 152.867 159.545 153.8C160.772 154.733 161.705 156.067 162.345 157.8C163.012 159.507 163.345 161.573 163.345 164C163.345 165.227 163.158 166.507 162.785 167.84C162.412 169.173 161.945 170.373 161.385 171.44C160.718 172.667 159.878 173.747 158.865 174.68C157.852 175.613 156.678 176.387 155.345 177C154.012 177.64 152.532 178.107 150.905 178.4C149.278 178.72 147.505 178.88 145.585 178.88ZM158.665 148.76C157.892 148.76 157.225 148.493 156.665 147.96C156.132 147.4 155.865 146.747 155.865 146C155.865 145.227 156.132 144.56 156.665 144C157.225 143.44 157.892 143.16 158.665 143.16C159.412 143.16 160.052 143.44 160.585 144C161.118 144.56 161.385 145.227 161.385 146C161.385 146.747 161.118 147.4 160.585 147.96C160.052 148.493 159.412 148.76 158.665 148.76ZM151.745 148.72C150.972 148.72 150.305 148.453 149.745 147.92C149.212 147.36 148.945 146.707 148.945 145.96C148.945 145.187 149.212 144.52 149.745 143.96C150.305 143.4 150.972 143.12 151.745 143.12C152.492 143.12 153.132 143.4 153.665 143.96C154.198 144.52 154.465 145.187 154.465 145.96C154.465 146.707 154.198 147.36 153.665 147.92C153.132 148.453 152.492 148.72 151.745 148.72ZM165.844 168.2L166.244 162.6C167.204 162.6 168.03 162.507 168.724 162.32C169.417 162.133 170.004 161.76 170.484 161.2C170.964 160.613 171.364 159.76 171.684 158.64C172.03 157.52 172.337 156.027 172.604 154.16L177.844 155.04C177.79 155.44 177.71 155.907 177.604 156.44C177.524 156.973 177.444 157.52 177.364 158.08C177.31 158.613 177.284 159.12 177.284 159.6C177.284 160.08 177.377 160.507 177.564 160.88C177.75 161.253 178.044 161.573 178.444 161.84C178.87 162.08 179.417 162.267 180.084 162.4C180.777 162.533 181.617 162.6 182.604 162.6C183.617 162.6 184.337 162.867 184.764 163.4C185.19 163.907 185.404 164.547 185.404 165.32C185.404 166.147 185.124 166.84 184.564 167.4C184.03 167.933 183.244 168.2 182.204 168.2C181.004 168.2 179.91 168.107 178.924 167.92C177.964 167.733 177.124 167.427 176.404 167C175.71 166.547 175.137 165.96 174.684 165.24C174.257 164.493 173.99 163.587 173.884 162.52H175.804C175.324 163.8 174.71 164.827 173.964 165.6C173.244 166.347 172.43 166.907 171.524 167.28C170.617 167.653 169.67 167.893 168.684 168C167.724 168.133 166.777 168.2 165.844 168.2ZM177.004 177.48C176.23 177.48 175.564 177.2 175.004 176.64C174.47 176.107 174.204 175.467 174.204 174.72C174.204 173.947 174.47 173.28 175.004 172.72C175.564 172.16 176.23 171.88 177.004 171.88C177.75 171.88 178.39 172.16 178.924 172.72C179.457 173.28 179.724 173.947 179.724 174.72C179.724 175.467 179.457 176.107 178.924 176.64C178.39 177.2 177.75 177.48 177.004 177.48ZM170.084 177.48C169.31 177.48 168.644 177.2 168.084 176.64C167.55 176.107 167.284 175.467 167.284 174.72C167.284 173.947 167.55 173.28 168.084 172.72C168.644 172.16 169.31 171.88 170.084 171.88C170.83 171.88 171.47 172.16 172.004 172.72C172.537 173.28 172.804 173.947 172.804 174.72C172.804 175.467 172.537 176.107 172.004 176.64C171.47 177.2 170.83 177.48 170.084 177.48ZM182.211 168.2L182.611 162.6C183.624 162.6 184.424 162.507 185.011 162.32C185.624 162.133 186.104 161.76 186.451 161.2C186.824 160.613 187.131 159.76 187.371 158.64C187.638 157.52 187.904 156.027 188.171 154.16L193.411 155.04C193.358 155.44 193.278 155.907 193.171 156.44C193.091 156.973 193.011 157.52 192.931 158.08C192.878 158.613 192.851 159.12 192.851 159.6C192.851 160.24 192.984 160.787 193.251 161.24C193.544 161.667 194.051 162 194.771 162.24C195.518 162.48 196.584 162.6 197.971 162.6C198.984 162.6 199.704 162.867 200.131 163.4C200.558 163.907 200.771 164.547 200.771 165.32C200.771 166.147 200.491 166.84 199.931 167.4C199.398 167.933 198.611 168.2 197.571 168.2C195.731 168.2 194.238 168.027 193.091 167.68C191.944 167.333 191.091 166.747 190.531 165.92C189.971 165.093 189.611 163.96 189.451 162.52H191.371C190.891 163.8 190.331 164.827 189.691 165.6C189.051 166.347 188.331 166.907 187.531 167.28C186.731 167.653 185.878 167.893 184.971 168C184.091 168.133 183.171 168.2 182.211 168.2ZM189.331 177.4C188.558 177.4 187.891 177.133 187.331 176.6C186.798 176.067 186.531 175.413 186.531 174.64C186.531 173.867 186.798 173.187 187.331 172.6C187.891 172.04 188.558 171.76 189.331 171.76C190.104 171.76 190.758 172.04 191.291 172.6C191.851 173.187 192.131 173.867 192.131 174.64C192.131 175.413 191.851 176.067 191.291 176.6C190.758 177.133 190.104 177.4 189.331 177.4ZM228.003 168.2C226.643 168.2 225.336 168.08 224.083 167.84C222.829 167.573 221.696 167.227 220.683 166.8C219.696 166.373 218.883 165.893 218.243 165.36L221.843 161.48C222.803 161.88 223.789 162.173 224.803 162.36C225.816 162.52 227.016 162.6 228.403 162.6C229.416 162.6 230.136 162.867 230.563 163.4C231.016 163.907 231.243 164.547 231.243 165.32C231.243 166.147 230.963 166.84 230.403 167.4C229.843 167.933 229.043 168.2 228.003 168.2ZM197.562 168.2L197.963 162.6H206.923C209.429 162.6 211.509 162.507 213.163 162.32C214.843 162.133 216.176 161.867 217.163 161.52C218.149 161.147 218.843 160.72 219.243 160.24C219.669 159.76 219.883 159.24 219.883 158.68C219.883 158.173 219.763 157.693 219.523 157.24C219.283 156.76 218.923 156.373 218.443 156.08C217.963 155.787 217.336 155.64 216.563 155.64C215.576 155.64 214.589 155.88 213.603 156.36C212.616 156.813 211.656 157.44 210.723 158.24C209.789 159.013 208.896 159.88 208.043 160.84C207.216 161.8 206.456 162.773 205.763 163.76L199.723 162.92C200.843 161.187 202.056 159.547 203.363 158C204.696 156.427 206.096 155.053 207.562 153.88C209.056 152.68 210.589 151.747 212.163 151.08C213.763 150.387 215.389 150.04 217.043 150.04C218.803 150.04 220.309 150.4 221.563 151.12C222.816 151.84 223.776 152.827 224.443 154.08C225.136 155.333 225.483 156.787 225.483 158.44C225.483 160.173 224.989 161.733 224.003 163.12C223.043 164.507 221.403 165.653 219.083 166.56C218.096 166.933 217.029 167.24 215.883 167.48C214.736 167.72 213.389 167.893 211.843 168C210.296 168.133 208.443 168.2 206.283 168.2H197.562ZM201.723 164.12L200.883 138.72H206.483L207.203 157.92L201.723 164.12ZM228.031 168.2L228.431 162.6C229.391 162.6 230.218 162.507 230.911 162.32C231.605 162.133 232.191 161.76 232.671 161.2C233.151 160.613 233.551 159.76 233.871 158.64C234.218 157.52 234.525 156.027 234.791 154.16L240.031 155.04C239.978 155.44 239.898 155.907 239.791 156.44C239.711 156.973 239.631 157.52 239.551 158.08C239.498 158.613 239.471 159.12 239.471 159.6C239.471 160.08 239.565 160.507 239.751 160.88C239.938 161.253 240.231 161.573 240.631 161.84C241.058 162.08 241.605 162.267 242.271 162.4C242.965 162.533 243.805 162.6 244.791 162.6C245.805 162.6 246.525 162.867 246.951 163.4C247.378 163.907 247.591 164.547 247.591 165.32C247.591 166.147 247.311 166.84 246.751 167.4C246.218 167.933 245.431 168.2 244.391 168.2C243.191 168.2 242.098 168.107 241.111 167.92C240.151 167.733 239.311 167.427 238.591 167C237.898 166.547 237.325 165.96 236.871 165.24C236.445 164.493 236.178 163.587 236.071 162.52H237.991C237.511 163.8 236.898 164.827 236.151 165.6C235.431 166.347 234.618 166.907 233.711 167.28C232.805 167.653 231.858 167.893 230.871 168C229.911 168.133 228.965 168.2 228.031 168.2ZM240.871 150.56C240.098 150.56 239.431 150.293 238.871 149.76C238.338 149.2 238.071 148.547 238.071 147.8C238.071 147.027 238.338 146.36 238.871 145.8C239.431 145.24 240.098 144.96 240.871 144.96C241.618 144.96 242.258 145.24 242.791 145.8C243.325 146.36 243.591 147.027 243.591 147.8C243.591 148.547 243.325 149.2 242.791 149.76C242.258 150.293 241.618 150.56 240.871 150.56ZM233.951 150.52C233.178 150.52 232.511 150.253 231.951 149.72C231.418 149.16 231.151 148.507 231.151 147.76C231.151 146.987 231.418 146.32 231.951 145.76C232.511 145.2 233.178 144.92 233.951 144.92C234.698 144.92 235.338 145.2 235.871 145.76C236.405 146.32 236.671 146.987 236.671 147.76C236.671 148.507 236.405 149.16 235.871 149.72C235.338 150.253 234.698 150.52 233.951 150.52ZM244.398 168.2L244.798 162.6C246.025 162.6 246.905 162.48 247.438 162.24C247.972 161.973 248.292 161.493 248.398 160.8C248.505 160.08 248.532 159.04 248.478 157.68L247.758 138.72H253.398L254.198 158.08C254.252 159.627 254.185 161.027 253.998 162.28C253.838 163.507 253.425 164.56 252.758 165.44C252.118 166.32 251.118 167 249.758 167.48C248.425 167.96 246.638 168.2 244.398 168.2ZM259.473 168L258.633 138.72H264.233L265.073 168H259.473ZM299.484 168.84L300.524 163.24C303.111 163.24 305.364 163.173 307.284 163.04C309.204 162.88 310.791 162.653 312.044 162.36C313.324 162.04 314.271 161.627 314.884 161.12C315.524 160.613 315.844 160 315.844 159.28C315.844 158.32 315.684 157.173 315.364 155.84C315.044 154.48 314.631 153.107 314.124 151.72L319.364 150.2C319.711 151.107 320.044 152.107 320.364 153.2C320.684 154.267 320.938 155.347 321.124 156.44C321.338 157.507 321.444 158.507 321.444 159.44C321.444 161.093 321.084 162.52 320.364 163.72C319.644 164.893 318.444 165.867 316.764 166.64C315.111 167.387 312.871 167.933 310.044 168.28C307.218 168.653 303.698 168.84 299.484 168.84ZM299.444 168.84C296.564 168.84 294.124 168.613 292.124 168.16C290.151 167.733 288.538 167.12 287.284 166.32C286.058 165.493 285.164 164.533 284.604 163.44C284.044 162.347 283.764 161.147 283.764 159.84C283.764 158.987 283.831 158.133 283.964 157.28C284.124 156.4 284.311 155.547 284.524 154.72C284.764 153.893 284.978 153.147 285.164 152.48L290.164 153.64C290.058 154.12 289.938 154.64 289.804 155.2C289.671 155.76 289.564 156.307 289.484 156.84C289.404 157.347 289.364 157.813 289.364 158.24C289.364 159.227 289.711 160.107 290.404 160.88C291.124 161.627 292.298 162.213 293.924 162.64C295.551 163.04 297.738 163.24 300.484 163.24L301.284 167.56L299.444 168.84ZM306.044 150.56C305.271 150.56 304.604 150.293 304.044 149.76C303.511 149.2 303.244 148.547 303.244 147.8C303.244 147.027 303.511 146.36 304.044 145.8C304.604 145.24 305.271 144.96 306.044 144.96C306.791 144.96 307.431 145.24 307.964 145.8C308.498 146.36 308.764 147.027 308.764 147.8C308.764 148.547 308.498 149.2 307.964 149.76C307.431 150.293 306.791 150.56 306.044 150.56ZM299.124 150.52C298.351 150.52 297.684 150.253 297.124 149.72C296.591 149.16 296.324 148.507 296.324 147.76C296.324 146.987 296.591 146.32 297.124 145.76C297.684 145.2 298.351 144.92 299.124 144.92C299.871 144.92 300.511 145.2 301.044 145.76C301.578 146.32 301.844 146.987 301.844 147.76C301.844 148.507 301.578 149.16 301.044 149.72C300.511 150.253 299.871 150.52 299.124 150.52ZM326.661 168L325.821 138.72H331.421L332.261 168H326.661ZM334.023 177.24L331.983 172.28C333.396 171.8 334.689 171.24 335.863 170.6C337.063 169.96 338.103 169.253 338.983 168.48C339.863 167.707 340.543 166.867 341.023 165.96C341.503 165.027 341.743 164.027 341.743 162.96C341.743 161.84 341.489 160.613 340.983 159.28C340.476 157.947 339.863 156.587 339.143 155.2L344.383 152.68C344.863 153.507 345.276 154.4 345.623 155.36C345.996 156.293 346.303 157.133 346.543 157.88C346.783 158.627 346.943 159.133 347.023 159.4C347.396 160.68 347.903 161.533 348.543 161.96C349.209 162.387 350.276 162.6 351.743 162.6C352.756 162.6 353.476 162.867 353.903 163.4C354.356 163.907 354.583 164.547 354.583 165.32C354.583 166.147 354.303 166.84 353.743 167.4C353.183 167.933 352.383 168.2 351.343 168.2C350.249 168.2 349.289 168.04 348.463 167.72C347.636 167.4 346.969 166.933 346.463 166.32C345.983 165.707 345.676 164.987 345.543 164.16L347.023 165C346.863 166.413 346.396 167.747 345.623 169C344.876 170.28 343.903 171.453 342.703 172.52C341.503 173.587 340.156 174.52 338.663 175.32C337.169 176.12 335.623 176.76 334.023 177.24ZM342.183 148.6C341.356 148.6 340.649 148.32 340.063 147.76C339.503 147.2 339.223 146.507 339.223 145.68C339.223 144.853 339.503 144.147 340.063 143.56C340.649 142.973 341.356 142.68 342.183 142.68C342.983 142.68 343.663 142.973 344.223 143.56C344.809 144.147 345.103 144.853 345.103 145.68C345.103 146.507 344.809 147.2 344.223 147.76C343.663 148.32 342.983 148.6 342.183 148.6ZM351.391 168.2L351.791 162.6C352.751 162.6 353.577 162.507 354.271 162.32C354.964 162.133 355.551 161.76 356.031 161.2C356.511 160.613 356.911 159.76 357.231 158.64C357.577 157.52 357.884 156.027 358.151 154.16L363.391 155.04C363.337 155.44 363.257 155.907 363.151 156.44C363.071 156.973 362.991 157.52 362.911 158.08C362.857 158.613 362.831 159.12 362.831 159.6C362.831 160.08 362.924 160.507 363.111 160.88C363.297 161.253 363.591 161.573 363.991 161.84C364.417 162.08 364.964 162.267 365.631 162.4C366.324 162.533 367.164 162.6 368.151 162.6C369.164 162.6 369.884 162.867 370.311 163.4C370.737 163.907 370.951 164.547 370.951 165.32C370.951 166.147 370.671 166.84 370.111 167.4C369.577 167.933 368.791 168.2 367.751 168.2C366.551 168.2 365.457 168.107 364.471 167.92C363.511 167.733 362.671 167.427 361.951 167C361.257 166.547 360.684 165.96 360.231 165.24C359.804 164.493 359.537 163.587 359.431 162.52H361.351C360.871 163.8 360.257 164.827 359.511 165.6C358.791 166.347 357.977 166.907 357.071 167.28C356.164 167.653 355.217 167.893 354.231 168C353.271 168.133 352.324 168.2 351.391 168.2ZM362.551 177.48C361.777 177.48 361.111 177.2 360.551 176.64C360.017 176.107 359.751 175.467 359.751 174.72C359.751 173.947 360.017 173.28 360.551 172.72C361.111 172.16 361.777 171.88 362.551 171.88C363.297 171.88 363.937 172.16 364.471 172.72C365.004 173.28 365.271 173.947 365.271 174.72C365.271 175.467 365.004 176.107 364.471 176.64C363.937 177.2 363.297 177.48 362.551 177.48ZM355.631 177.48C354.857 177.48 354.191 177.2 353.631 176.64C353.097 176.107 352.831 175.467 352.831 174.72C352.831 173.947 353.097 173.28 353.631 172.72C354.191 172.16 354.857 171.88 355.631 171.88C356.377 171.88 357.017 172.16 357.551 172.72C358.084 173.28 358.351 173.947 358.351 174.72C358.351 175.467 358.084 176.107 357.551 176.64C357.017 177.2 356.377 177.48 355.631 177.48ZM367.758 168.2L368.158 162.6C368.824 162.6 369.331 162.467 369.678 162.2C370.024 161.933 370.371 161.467 370.718 160.8C371.064 160.133 371.544 159.227 372.158 158.08C372.824 156.8 373.518 155.733 374.238 154.88C374.958 154 375.678 153.307 376.398 152.8C377.144 152.267 377.878 151.893 378.598 151.68C379.344 151.44 380.078 151.32 380.798 151.32C381.784 151.32 382.704 151.533 383.558 151.96C384.438 152.36 385.278 153.067 386.078 154.08C386.878 155.067 387.638 156.427 388.358 158.16C388.864 159.36 389.371 160.28 389.878 160.92C390.384 161.56 390.904 162 391.438 162.24C391.998 162.48 392.558 162.6 393.118 162.6C394.131 162.6 394.851 162.867 395.278 163.4C395.704 163.907 395.918 164.547 395.918 165.32C395.918 166.147 395.638 166.84 395.078 167.4C394.518 167.933 393.731 168.2 392.718 168.2C391.411 168.2 390.224 167.987 389.158 167.56C388.091 167.133 387.251 166.493 386.638 165.64L387.798 164.76C387.558 165.32 387.198 165.907 386.718 166.52C386.264 167.133 385.664 167.653 384.918 168.08C384.198 168.507 383.331 168.72 382.318 168.72C381.651 168.72 380.864 168.587 379.958 168.32C379.078 168.08 378.158 167.667 377.198 167.08C376.264 166.467 375.398 165.64 374.598 164.6C374.091 165.533 373.531 166.267 372.918 166.8C372.304 167.307 371.584 167.667 370.758 167.88C369.931 168.093 368.931 168.2 367.758 168.2ZM376.918 159.88C377.184 160.28 377.504 160.68 377.878 161.08C378.251 161.48 378.664 161.84 379.118 162.16C379.571 162.453 380.051 162.693 380.558 162.88C381.091 163.067 381.611 163.16 382.118 163.16C382.651 163.16 383.091 162.96 383.438 162.56C383.784 162.133 383.798 161.507 383.478 160.68C383.344 160.333 383.158 159.947 382.918 159.52C382.704 159.067 382.451 158.64 382.158 158.24C381.891 157.84 381.584 157.507 381.238 157.24C380.918 156.973 380.584 156.84 380.238 156.84C379.891 156.84 379.531 156.947 379.158 157.16C378.784 157.373 378.411 157.707 378.038 158.16C377.664 158.587 377.291 159.16 376.918 159.88ZM392.719 168.2L393.119 162.6C393.732 162.6 394.252 162.453 394.679 162.16C395.132 161.84 395.599 161.32 396.079 160.6C396.559 159.853 397.119 158.853 397.759 157.6C398.559 156 399.385 154.747 400.239 153.84C401.119 152.933 402.012 152.293 402.919 151.92C403.852 151.52 404.785 151.32 405.719 151.32C406.892 151.32 407.985 151.573 408.999 152.08C410.012 152.587 410.892 153.28 411.639 154.16C412.385 155.013 412.959 156 413.359 157.12C413.785 158.213 413.999 159.347 413.999 160.52C413.999 161.933 413.692 163.213 413.079 164.36C412.492 165.48 411.665 166.373 410.599 167.04C409.559 167.68 408.359 168 406.999 168C405.852 168 404.519 167.8 402.999 167.4C401.479 167 399.879 166.16 398.199 164.88L400.239 160.04C401.439 160.867 402.559 161.467 403.599 161.84C404.665 162.213 405.545 162.4 406.239 162.4C406.772 162.4 407.212 162.347 407.559 162.24C407.905 162.133 408.159 161.96 408.319 161.72C408.479 161.48 408.559 161.16 408.559 160.76C408.559 160.2 408.425 159.627 408.159 159.04C407.892 158.453 407.532 157.96 407.079 157.56C406.652 157.133 406.145 156.92 405.559 156.92C404.999 156.92 404.519 157.133 404.119 157.56C403.745 157.96 403.372 158.547 402.999 159.32C402.652 160.067 402.225 160.947 401.719 161.96C401.105 163.187 400.505 164.213 399.919 165.04C399.332 165.84 398.705 166.48 398.039 166.96C397.399 167.413 396.639 167.733 395.759 167.92C394.905 168.107 393.892 168.2 392.719 168.2Z" fill="black"/>
<path d="M205.992 464.618C205.992 465.37 205.695 466.013 205.103 466.549C204.522 467.084 203.816 467.352 202.984 467.352C202.175 467.352 201.48 467.084 200.899 466.549C200.329 466.013 200.044 465.37 200.044 464.618C200.044 463.866 200.335 463.222 200.916 462.687C201.497 462.151 202.198 461.883 203.018 461.883C203.838 461.883 204.539 462.151 205.12 462.687C205.701 463.222 205.992 463.866 205.992 464.618ZM204.385 471.795C204.385 472.547 204.095 473.191 203.514 473.727C202.933 474.262 202.232 474.53 201.412 474.53C200.58 474.53 199.874 474.262 199.292 473.727C198.723 473.191 198.438 472.547 198.438 471.795C198.438 471.043 198.723 470.4 199.292 469.864C199.874 469.329 200.58 469.061 201.412 469.061C202.232 469.061 202.933 469.329 203.514 469.864C204.095 470.4 204.385 471.043 204.385 471.795ZM227.861 474.175C226.205 474.175 224.77 473.965 223.556 473.545C222.366 473.102 221.445 472.402 220.791 471.445C220.138 470.465 219.765 469.158 219.671 467.525L219.041 453.42H223.976L224.571 465.81C224.618 466.767 224.77 467.502 225.026 468.015C225.306 468.505 225.703 468.843 226.216 469.03C226.73 469.193 227.395 469.275 228.211 469.275C229.098 469.275 229.728 469.508 230.101 469.975C230.475 470.418 230.661 470.978 230.661 471.655C230.661 472.378 230.416 472.985 229.926 473.475C229.46 473.942 228.771 474.175 227.861 474.175ZM221.456 470.92C219.893 471.27 218.388 471.433 216.941 471.41C215.495 471.363 214.2 471.107 213.056 470.64C211.913 470.15 211.003 469.45 210.326 468.54C209.673 467.63 209.346 466.475 209.346 465.075C209.346 463.838 209.615 462.718 210.151 461.715C210.711 460.688 211.481 459.79 212.461 459.02C213.465 458.25 214.631 457.597 215.961 457.06C217.291 456.523 218.738 456.115 220.301 455.835L220.791 460.805C219.788 460.852 218.878 460.992 218.061 461.225C217.268 461.435 216.58 461.715 215.996 462.065C215.436 462.415 215.005 462.812 214.701 463.255C214.398 463.675 214.246 464.13 214.246 464.62C214.246 465.017 214.386 465.343 214.666 465.6C214.946 465.857 215.32 466.067 215.786 466.23C216.253 466.37 216.79 466.452 217.396 466.475C218.003 466.498 218.621 466.463 219.251 466.37C219.905 466.277 220.546 466.125 221.176 465.915L221.456 470.92ZM221.561 449.815C220.885 449.815 220.301 449.582 219.811 449.115C219.345 448.625 219.111 448.053 219.111 447.4C219.111 446.723 219.345 446.14 219.811 445.65C220.301 445.16 220.885 444.915 221.561 444.915C222.215 444.915 222.775 445.16 223.241 445.65C223.708 446.14 223.941 446.723 223.941 447.4C223.941 448.053 223.708 448.625 223.241 449.115C222.775 449.582 222.215 449.815 221.561 449.815ZM215.506 449.78C214.83 449.78 214.246 449.547 213.756 449.08C213.29 448.59 213.056 448.018 213.056 447.365C213.056 446.688 213.29 446.105 213.756 445.615C214.246 445.125 214.83 444.88 215.506 444.88C216.16 444.88 216.72 445.125 217.186 445.615C217.653 446.105 217.886 446.688 217.886 447.365C217.886 448.018 217.653 448.59 217.186 449.08C216.72 449.547 216.16 449.78 215.506 449.78ZM227.85 474.175L228.2 469.275C229.04 469.275 229.763 469.193 230.37 469.03C230.976 468.867 231.49 468.54 231.91 468.05C232.33 467.537 232.68 466.79 232.96 465.81C233.263 464.83 233.531 463.523 233.765 461.89L238.35 462.66C238.303 463.01 238.233 463.418 238.14 463.885C238.07 464.352 238 464.83 237.93 465.32C237.883 465.787 237.86 466.23 237.86 466.65C237.86 467.07 237.941 467.443 238.105 467.77C238.268 468.097 238.525 468.377 238.875 468.61C239.248 468.82 239.726 468.983 240.31 469.1C240.916 469.217 241.651 469.275 242.515 469.275C243.401 469.275 244.031 469.508 244.405 469.975C244.778 470.418 244.965 470.978 244.965 471.655C244.965 472.378 244.72 472.985 244.23 473.475C243.763 473.942 243.075 474.175 242.165 474.175C241.115 474.175 240.158 474.093 239.295 473.93C238.455 473.767 237.72 473.498 237.09 473.125C236.483 472.728 235.981 472.215 235.585 471.585C235.211 470.932 234.978 470.138 234.885 469.205H236.565C236.145 470.325 235.608 471.223 234.955 471.9C234.325 472.553 233.613 473.043 232.82 473.37C232.026 473.697 231.198 473.907 230.335 474C229.495 474.117 228.666 474.175 227.85 474.175ZM237.615 482.295C236.938 482.295 236.355 482.05 235.865 481.56C235.398 481.093 235.165 480.533 235.165 479.88C235.165 479.203 235.398 478.62 235.865 478.13C236.355 477.64 236.938 477.395 237.615 477.395C238.268 477.395 238.828 477.64 239.295 478.13C239.761 478.62 239.995 479.203 239.995 479.88C239.995 480.533 239.761 481.093 239.295 481.56C238.828 482.05 238.268 482.295 237.615 482.295ZM231.56 482.295C230.883 482.295 230.3 482.05 229.81 481.56C229.343 481.093 229.11 480.533 229.11 479.88C229.11 479.203 229.343 478.62 229.81 478.13C230.3 477.64 230.883 477.395 231.56 477.395C232.213 477.395 232.773 477.64 233.24 478.13C233.706 478.62 233.94 479.203 233.94 479.88C233.94 480.533 233.706 481.093 233.24 481.56C232.773 482.05 232.213 482.295 231.56 482.295ZM242.171 474.175L242.521 469.275C243.618 469.275 244.388 469.17 244.831 468.96C245.298 468.727 245.578 468.307 245.671 467.7C245.764 467.07 245.788 466.16 245.741 464.97L245.181 448.38H250.151L250.746 464.935C250.793 466.102 250.933 467 251.166 467.63C251.399 468.26 251.784 468.692 252.321 468.925C252.881 469.158 253.628 469.275 254.561 469.275C255.448 469.275 256.078 469.508 256.451 469.975C256.824 470.418 257.011 470.978 257.011 471.655C257.011 472.378 256.766 472.985 256.276 473.475C255.786 473.942 255.098 474.175 254.211 474.175C253.184 474.175 252.228 474.058 251.341 473.825C250.454 473.592 249.719 473.148 249.136 472.495C248.553 471.842 248.168 470.897 247.981 469.66L249.521 469.695C249.124 470.908 248.611 471.842 247.981 472.495C247.351 473.125 246.558 473.568 245.601 473.825C244.668 474.058 243.524 474.175 242.171 474.175ZM254.202 474.175L254.552 469.275C255.649 469.275 256.489 469.263 257.072 469.24C257.679 469.217 258.134 469.193 258.437 469.17C258.74 469.123 258.997 469.088 259.207 469.065C258.974 468.832 258.67 468.493 258.297 468.05C257.924 467.607 257.585 467.035 257.282 466.335C257.002 465.635 256.862 464.795 256.862 463.815C256.862 462.392 257.224 461.143 257.947 460.07C258.694 458.997 259.697 458.157 260.957 457.55C262.217 456.943 263.629 456.64 265.192 456.64C265.939 456.64 266.627 456.687 267.257 456.78C267.91 456.873 268.564 457.013 269.217 457.2L268.447 461.855C267.98 461.738 267.49 461.645 266.977 461.575C266.464 461.505 266.009 461.47 265.612 461.47C264.842 461.47 264.165 461.598 263.582 461.855C263.022 462.088 262.579 462.427 262.252 462.87C261.949 463.29 261.797 463.803 261.797 464.41C261.797 464.807 261.867 465.18 262.007 465.53C262.17 465.88 262.369 466.195 262.602 466.475C262.835 466.755 263.092 467 263.372 467.21C263.652 467.42 263.92 467.595 264.177 467.735C264.457 467.852 264.69 467.933 264.877 467.98C265.46 467.817 265.962 467.677 266.382 467.56C266.825 467.42 267.245 467.292 267.642 467.175C268.062 467.035 268.517 466.86 269.007 466.65C269.497 466.44 270.104 466.183 270.827 465.88L272.402 470.5C270.442 471.457 268.529 472.203 266.662 472.74C264.795 473.277 262.859 473.65 260.852 473.86C258.845 474.07 256.629 474.175 254.202 474.175ZM284.78 474.175C282.61 474.175 280.93 473.953 279.74 473.51C278.573 473.067 277.756 472.378 277.29 471.445C276.823 470.488 276.555 469.287 276.485 467.84L275.75 448.38H280.65L281.385 465.495C281.431 466.568 281.548 467.373 281.735 467.91C281.921 468.447 282.271 468.808 282.785 468.995C283.321 469.182 284.103 469.275 285.13 469.275C286.016 469.275 286.646 469.508 287.02 469.975C287.416 470.418 287.615 470.978 287.615 471.655C287.615 472.378 287.37 472.985 286.88 473.475C286.39 473.942 285.69 474.175 284.78 474.175ZM284.827 474.175L285.177 469.31C286.087 469.333 286.927 469.322 287.697 469.275C288.467 469.228 289.155 469.158 289.762 469.065C290.392 468.972 290.94 468.867 291.407 468.75C291.897 468.633 292.305 468.528 292.632 468.435C293.425 468.178 294.102 467.875 294.662 467.525C295.222 467.152 295.654 466.732 295.957 466.265C296.26 465.798 296.412 465.297 296.412 464.76C296.412 464.34 296.319 463.92 296.132 463.5C295.969 463.057 295.724 462.695 295.397 462.415C295.07 462.135 294.685 461.995 294.242 461.995C293.822 461.995 293.437 462.123 293.087 462.38C292.737 462.637 292.457 462.987 292.247 463.43C292.037 463.85 291.932 464.34 291.932 464.9C291.932 465.39 292.049 465.857 292.282 466.3C292.515 466.72 292.842 467.128 293.262 467.525C293.682 467.922 294.184 468.295 294.767 468.645L290.112 470.43C289.599 469.94 289.109 469.415 288.642 468.855C288.199 468.295 287.825 467.665 287.522 466.965C287.242 466.242 287.102 465.437 287.102 464.55C287.102 463.477 287.312 462.497 287.732 461.61C288.152 460.723 288.712 459.965 289.412 459.335C290.112 458.682 290.894 458.18 291.757 457.83C292.62 457.48 293.484 457.305 294.347 457.305C295.747 457.305 296.96 457.632 297.987 458.285C299.014 458.938 299.807 459.79 300.367 460.84C300.95 461.89 301.242 463.033 301.242 464.27C301.242 465.413 301.032 466.44 300.612 467.35C300.192 468.237 299.62 469.03 298.897 469.73C298.197 470.407 297.415 471.002 296.552 471.515C295.712 472.028 294.86 472.46 293.997 472.81C293.577 472.997 293.052 473.172 292.422 473.335C291.792 473.498 291.08 473.65 290.287 473.79C289.494 473.907 288.642 474 287.732 474.07C286.822 474.14 285.854 474.175 284.827 474.175ZM303.307 474.175C301.954 474.175 300.624 474.105 299.317 473.965C298.01 473.825 296.797 473.615 295.677 473.335C294.58 473.055 293.624 472.717 292.807 472.32L295.222 468.54C295.922 468.727 296.739 468.878 297.672 468.995C298.629 469.088 299.62 469.158 300.647 469.205C301.697 469.252 302.7 469.275 303.657 469.275C304.544 469.275 305.174 469.508 305.547 469.975C305.944 470.418 306.142 470.978 306.142 471.655C306.142 472.378 305.897 472.985 305.407 473.475C304.917 473.942 304.217 474.175 303.307 474.175ZM294.382 454.05C293.659 454.05 293.04 453.805 292.527 453.315C292.037 452.825 291.792 452.218 291.792 451.495C291.792 450.772 292.037 450.153 292.527 449.64C293.04 449.127 293.659 448.87 294.382 448.87C295.082 448.87 295.677 449.127 296.167 449.64C296.68 450.153 296.937 450.772 296.937 451.495C296.937 452.218 296.68 452.825 296.167 453.315C295.677 453.805 295.082 454.05 294.382 454.05ZM303.353 474.175L303.703 469.275C305.103 469.275 306.176 469.205 306.923 469.065C307.669 468.925 308.183 468.668 308.463 468.295C308.766 467.898 308.918 467.338 308.918 466.615C308.918 465.962 308.824 465.18 308.638 464.27C308.474 463.36 308.253 462.415 307.973 461.435C307.716 460.455 307.436 459.557 307.133 458.74L311.963 457.41C312.266 458.203 312.558 459.125 312.838 460.175C313.118 461.225 313.351 462.31 313.538 463.43C313.724 464.527 313.818 465.588 313.818 466.615C313.818 468.202 313.561 469.497 313.048 470.5C312.534 471.48 311.811 472.238 310.878 472.775C309.968 473.312 308.871 473.685 307.588 473.895C306.304 474.082 304.893 474.175 303.353 474.175ZM312.838 454.575C312.161 454.575 311.578 454.342 311.088 453.875C310.621 453.385 310.388 452.813 310.388 452.16C310.388 451.483 310.621 450.9 311.088 450.41C311.578 449.92 312.161 449.675 312.838 449.675C313.491 449.675 314.051 449.92 314.518 450.41C314.984 450.9 315.218 451.483 315.218 452.16C315.218 452.813 314.984 453.385 314.518 453.875C314.051 454.342 313.491 454.575 312.838 454.575ZM306.783 454.54C306.106 454.54 305.523 454.307 305.033 453.84C304.566 453.35 304.333 452.778 304.333 452.125C304.333 451.448 304.566 450.865 305.033 450.375C305.523 449.885 306.106 449.64 306.783 449.64C307.436 449.64 307.996 449.885 308.463 450.375C308.929 450.865 309.163 451.448 309.163 452.125C309.163 452.778 308.929 453.35 308.463 453.84C307.996 454.307 307.436 454.54 306.783 454.54ZM359.395 474.175C358.205 474.175 357.062 474.07 355.965 473.86C354.868 473.627 353.877 473.323 352.99 472.95C352.127 472.577 351.415 472.157 350.855 471.69L354.005 468.295C354.845 468.645 355.708 468.902 356.595 469.065C357.482 469.205 358.532 469.275 359.745 469.275C360.632 469.275 361.262 469.508 361.635 469.975C362.032 470.418 362.23 470.978 362.23 471.655C362.23 472.378 361.985 472.985 361.495 473.475C361.005 473.942 360.305 474.175 359.395 474.175ZM342.84 474.455C341.627 474.455 340.437 474.432 339.27 474.385C338.103 474.362 336.972 474.327 335.875 474.28C334.778 474.233 333.74 474.163 332.76 474.07C331.78 473.977 330.858 473.883 329.995 473.79L330.555 468.96C331.722 469.077 332.807 469.182 333.81 469.275C334.837 469.345 335.817 469.403 336.75 469.45C337.683 469.497 338.617 469.532 339.55 469.555C340.483 469.555 341.44 469.555 342.42 469.555C344.333 469.555 345.943 469.473 347.25 469.31C348.557 469.147 349.595 468.913 350.365 468.61C351.158 468.307 351.718 467.945 352.045 467.525C352.395 467.105 352.57 466.65 352.57 466.16C352.57 465.717 352.453 465.297 352.22 464.9C352.01 464.503 351.683 464.177 351.24 463.92C350.82 463.663 350.283 463.535 349.63 463.535C348.743 463.535 347.868 463.745 347.005 464.165C346.142 464.585 345.302 465.145 344.485 465.845C343.692 466.522 342.945 467.268 342.245 468.085C341.545 468.878 340.915 469.648 340.355 470.395L335 469.8C335.957 468.307 336.995 466.895 338.115 465.565C339.258 464.212 340.472 463.022 341.755 461.995C343.062 460.945 344.415 460.128 345.815 459.545C347.215 458.938 348.638 458.635 350.085 458.635C351.578 458.635 352.873 458.938 353.97 459.545C355.067 460.152 355.918 460.992 356.525 462.065C357.155 463.138 357.47 464.375 357.47 465.775C357.47 467.455 356.992 468.948 356.035 470.255C355.078 471.562 353.527 472.588 351.38 473.335C349.257 474.082 346.41 474.455 342.84 474.455ZM336.75 470.535L336.015 448.38H340.915L341.545 465.11L336.75 470.535ZM359.441 474.175L359.791 469.275C360.818 469.275 361.623 469.205 362.206 469.065C362.813 468.925 363.245 468.668 363.501 468.295C363.758 467.898 363.886 467.338 363.886 466.615C363.886 465.962 363.793 465.18 363.606 464.27C363.443 463.36 363.221 462.415 362.941 461.435C362.661 460.455 362.381 459.557 362.101 458.74L366.931 457.41C367.211 458.203 367.491 459.125 367.771 460.175C368.051 461.225 368.285 462.31 368.471 463.43C368.681 464.527 368.786 465.588 368.786 466.615C368.786 467.898 368.623 468.983 368.296 469.87C367.97 470.733 367.515 471.457 366.931 472.04C366.371 472.6 365.695 473.043 364.901 473.37C364.131 473.673 363.28 473.883 362.346 474C361.413 474.117 360.445 474.175 359.441 474.175ZM360.806 453.77L360.211 451.32C361.028 451.18 361.635 451.063 362.031 450.97C362.451 450.877 362.895 450.772 363.361 450.655L363.011 451.53C362.405 451.32 361.821 450.912 361.261 450.305C360.725 449.675 360.456 448.963 360.456 448.17C360.456 447.33 360.643 446.653 361.016 446.14C361.39 445.627 361.868 445.253 362.451 445.02C363.035 444.787 363.641 444.67 364.271 444.67C364.621 444.67 364.948 444.693 365.251 444.74C365.578 444.787 365.87 444.857 366.126 444.95L365.846 447.47C365.613 447.423 365.38 447.377 365.146 447.33C364.913 447.283 364.656 447.26 364.376 447.26C364.073 447.26 363.793 447.365 363.536 447.575C363.303 447.762 363.186 447.995 363.186 448.275C363.186 448.672 363.326 449.022 363.606 449.325C363.886 449.628 364.213 449.873 364.586 450.06C364.983 450.223 365.31 450.317 365.566 450.34L363.641 450.55C364.271 450.387 364.866 450.223 365.426 450.06C365.986 449.873 366.511 449.687 367.001 449.5L367.701 451.845C367.118 452.055 366.43 452.288 365.636 452.545C364.866 452.778 364.061 453 363.221 453.21C362.405 453.42 361.6 453.607 360.806 453.77ZM373.35 474L372.615 448.38H377.515L378.25 474H373.35ZM379.791 482.085L378.006 477.745C379.243 477.325 380.375 476.835 381.401 476.275C382.451 475.715 383.361 475.097 384.131 474.42C384.901 473.743 385.496 473.008 385.916 472.215C386.336 471.398 386.546 470.523 386.546 469.59C386.546 468.61 386.325 467.537 385.881 466.37C385.438 465.203 384.901 464.013 384.271 462.8L388.856 460.595C389.276 461.318 389.638 462.1 389.941 462.94C390.268 463.757 390.536 464.492 390.746 465.145C390.956 465.798 391.096 466.242 391.166 466.475C391.493 467.595 391.936 468.342 392.496 468.715C393.08 469.088 394.013 469.275 395.296 469.275C396.183 469.275 396.813 469.508 397.186 469.975C397.583 470.418 397.781 470.978 397.781 471.655C397.781 472.378 397.536 472.985 397.046 473.475C396.556 473.942 395.856 474.175 394.946 474.175C393.99 474.175 393.15 474.035 392.426 473.755C391.703 473.475 391.12 473.067 390.676 472.53C390.256 471.993 389.988 471.363 389.871 470.64L391.166 471.375C391.026 472.612 390.618 473.778 389.941 474.875C389.288 475.995 388.436 477.022 387.386 477.955C386.336 478.888 385.158 479.705 383.851 480.405C382.545 481.105 381.191 481.665 379.791 482.085ZM394.988 474.175L395.338 469.275C396.598 469.275 397.847 469.205 399.083 469.065C400.32 468.925 401.522 468.715 402.688 468.435C403.855 468.155 404.963 467.793 406.013 467.35C407.087 466.907 408.09 466.37 409.023 465.74C408.323 465.32 407.565 464.958 406.748 464.655C405.932 464.352 405.057 464.13 404.123 463.99C403.213 463.827 402.245 463.745 401.218 463.745C400.845 463.745 400.448 463.757 400.028 463.78C399.632 463.803 399.223 463.85 398.803 463.92C398.383 463.967 397.963 464.037 397.543 464.13L396.843 459.335C397.52 459.148 398.232 459.02 398.978 458.95C399.748 458.857 400.425 458.81 401.008 458.81C402.268 458.81 403.423 458.95 404.473 459.23C405.547 459.51 406.527 459.86 407.413 460.28C408.323 460.7 409.163 461.12 409.933 461.54C410.727 461.96 411.473 462.31 412.173 462.59C412.897 462.87 413.597 463.01 414.273 463.01H415.568L416.128 467.665C415.125 467.712 414.18 467.91 413.293 468.26C412.43 468.587 411.567 469.007 410.703 469.52C409.863 470.01 408.953 470.523 407.973 471.06C407.017 471.597 405.932 472.098 404.718 472.565C403.505 473.032 402.105 473.417 400.518 473.72C398.932 474.023 397.088 474.175 394.988 474.175ZM401.043 455.555C400.32 455.555 399.702 455.31 399.188 454.82C398.698 454.33 398.453 453.723 398.453 453C398.453 452.277 398.698 451.658 399.188 451.145C399.702 450.632 400.32 450.375 401.043 450.375C401.743 450.375 402.338 450.632 402.828 451.145C403.342 451.658 403.598 452.277 403.598 453C403.598 453.723 403.342 454.33 402.828 454.82C402.338 455.31 401.743 455.555 401.043 455.555Z" fill="#DA2C38"/>
<path d="M25.4081 557.15C24.3281 557.15 23.3681 557 22.5281 556.7C21.7081 556.38 21.0481 555.85 20.5481 555.11C20.0681 554.35 19.7981 553.3 19.7381 551.96L19.2581 541.52H21.6881L22.1681 551.42C22.2281 552.36 22.3981 553.07 22.6781 553.55C22.9581 554.01 23.3481 554.32 23.8481 554.48C24.3681 554.62 24.9881 554.69 25.7081 554.69C26.1281 554.69 26.4281 554.81 26.6081 555.05C26.8081 555.27 26.9081 555.54 26.9081 555.86C26.9081 556.18 26.7681 556.48 26.4881 556.76C26.2081 557.02 25.8481 557.15 25.4081 557.15ZM20.8781 553.85C19.7381 554.21 18.6281 554.39 17.5481 554.39C16.4681 554.39 15.4881 554.23 14.6081 553.91C13.7281 553.59 13.0281 553.13 12.5081 552.53C11.9881 551.91 11.7281 551.17 11.7281 550.31C11.7281 549.47 11.9381 548.68 12.3581 547.94C12.7981 547.2 13.3881 546.54 14.1281 545.96C14.8881 545.38 15.7581 544.9 16.7381 544.52C17.7381 544.12 18.7981 543.85 19.9181 543.71L20.3381 546.23C19.3381 546.27 18.4481 546.41 17.6681 546.65C16.9081 546.87 16.2581 547.16 15.7181 547.52C15.1981 547.88 14.7981 548.27 14.5181 548.69C14.2381 549.11 14.0981 549.52 14.0981 549.92C14.0981 550.36 14.2581 550.72 14.5781 551C14.8981 551.28 15.3081 551.5 15.8081 551.66C16.3081 551.8 16.8581 551.89 17.4581 551.93C18.0581 551.95 18.6381 551.93 19.1981 551.87C19.7581 551.79 20.2381 551.68 20.6381 551.54L20.8781 553.85ZM20.2481 538.07C19.8281 538.07 19.4681 537.93 19.1681 537.65C18.8881 537.35 18.7481 537 18.7481 536.6C18.7481 536.2 18.8881 535.85 19.1681 535.55C19.4681 535.25 19.8281 535.1 20.2481 535.1C20.6481 535.1 20.9881 535.25 21.2681 535.55C21.5681 535.85 21.7181 536.2 21.7181 536.6C21.7181 537 21.5681 537.35 21.2681 537.65C20.9881 537.93 20.6481 538.07 20.2481 538.07ZM16.1381 538.07C15.7181 538.07 15.3581 537.93 15.0581 537.65C14.7781 537.35 14.6381 537 14.6381 536.6C14.6381 536.2 14.7781 535.85 15.0581 535.55C15.3581 535.25 15.7181 535.1 16.1381 535.1C16.5381 535.1 16.8781 535.25 17.1581 535.55C17.4581 535.85 17.6081 536.2 17.6081 536.6C17.6081 537 17.4581 537.35 17.1581 537.65C16.8781 537.93 16.5381 538.07 16.1381 538.07ZM46.718 557.15C46.198 557.15 45.538 557.1 44.738 557C43.958 556.88 43.158 556.68 42.338 556.4C41.538 556.12 40.858 555.73 40.298 555.23L42.758 554C43.458 554.28 44.178 554.47 44.918 554.57C45.678 554.65 46.378 554.69 47.018 554.69C47.438 554.69 47.738 554.81 47.918 555.05C48.118 555.27 48.218 555.54 48.218 555.86C48.218 556.18 48.078 556.48 47.798 556.76C47.518 557.02 47.158 557.15 46.718 557.15ZM25.418 557.15L25.718 554.69H31.988C33.728 554.69 35.228 554.62 36.488 554.48C37.768 554.32 38.818 554.09 39.638 553.79C40.458 553.49 41.068 553.11 41.468 552.65C41.868 552.17 42.068 551.61 42.068 550.97C42.068 550.63 41.958 550.26 41.738 549.86C41.518 549.46 41.178 549.12 40.718 548.84C40.258 548.54 39.648 548.39 38.888 548.39C37.928 548.39 36.968 548.64 36.008 549.14C35.068 549.64 34.168 550.27 33.308 551.03C32.468 551.77 31.718 552.53 31.058 553.31C30.398 554.09 29.868 554.77 29.468 555.35L26.858 555.26C27.498 554.22 28.258 553.16 29.138 552.08C30.038 550.98 31.018 549.97 32.078 549.05C33.158 548.11 34.288 547.36 35.468 546.8C36.648 546.22 37.848 545.93 39.068 545.93C40.168 545.93 41.108 546.16 41.888 546.62C42.688 547.06 43.298 547.66 43.718 548.42C44.158 549.18 44.378 550.04 44.378 551C44.378 551.94 44.038 552.89 43.358 553.85C42.678 554.79 41.508 555.53 39.848 556.07C39.008 556.35 38.048 556.57 36.968 556.73C35.888 556.89 34.658 557 33.278 557.06C31.898 557.12 30.328 557.15 28.568 557.15H25.418ZM28.268 554.18L27.668 535.58H30.098L30.698 552.08L28.268 554.18ZM46.7168 557.15L47.0168 554.69C48.1968 554.69 49.1168 554.65 49.7768 554.57C50.4368 554.47 50.9068 554.24 51.1868 553.88C51.4668 553.5 51.6068 552.91 51.6068 552.11C51.6068 551.61 51.5268 551.02 51.3668 550.34C51.2068 549.64 50.9968 548.9 50.7368 548.12C50.4768 547.34 50.1968 546.57 49.8968 545.81L52.3268 544.91C52.5868 545.55 52.8268 546.28 53.0468 547.1C53.2868 547.92 53.4868 548.73 53.6468 549.53C53.8068 550.33 53.8868 551.03 53.8868 551.63C53.8868 552.63 53.7468 553.48 53.4668 554.18C53.2068 554.88 52.7868 555.45 52.2068 555.89C51.6268 556.33 50.8768 556.65 49.9568 556.85C49.0568 557.05 47.9768 557.15 46.7168 557.15ZM52.2668 562.82C51.8468 562.82 51.4868 562.67 51.1868 562.37C50.9068 562.09 50.7668 561.75 50.7668 561.35C50.7668 560.95 50.9068 560.6 51.1868 560.3C51.4868 560 51.8468 559.85 52.2668 559.85C52.6668 559.85 53.0068 560 53.2868 560.3C53.5868 560.6 53.7368 560.95 53.7368 561.35C53.7368 561.75 53.5868 562.09 53.2868 562.37C53.0068 562.67 52.6668 562.82 52.2668 562.82ZM48.1568 562.82C47.7368 562.82 47.3768 562.67 47.0768 562.37C46.7968 562.09 46.6568 561.75 46.6568 561.35C46.6568 560.95 46.7968 560.6 47.0768 560.3C47.3768 560 47.7368 559.85 48.1568 559.85C48.5568 559.85 48.8968 560 49.1768 560.3C49.4768 560.6 49.6268 560.95 49.6268 561.35C49.6268 561.75 49.4768 562.09 49.1768 562.37C48.8968 562.67 48.5568 562.82 48.1568 562.82ZM55.8016 563.96L54.9316 561.68C56.3916 561.2 57.6016 560.65 58.5616 560.03C59.5416 559.41 60.3116 558.75 60.8716 558.05C61.4516 557.35 61.8616 556.64 62.1016 555.92C62.3416 555.18 62.4616 554.47 62.4616 553.79C62.4616 552.81 62.2416 551.82 61.8016 550.82C61.3816 549.8 60.9116 548.84 60.3916 547.94L62.5816 546.83C62.9616 547.53 63.2916 548.22 63.5716 548.9C63.8716 549.58 64.1316 550.22 64.3516 550.82C64.5916 551.42 64.7816 551.97 64.9216 552.47C65.2016 553.33 65.5616 553.92 66.0016 554.24C66.4616 554.54 67.0816 554.69 67.8616 554.69C68.2816 554.69 68.5816 554.81 68.7616 555.05C68.9616 555.27 69.0616 555.54 69.0616 555.86C69.0616 556.18 68.9216 556.48 68.6416 556.76C68.3616 557.02 68.0016 557.15 67.5616 557.15C66.6816 557.15 65.9616 557 65.4016 556.7C64.8616 556.38 64.4516 555.97 64.1716 555.47C63.8916 554.95 63.7016 554.41 63.6016 553.85L64.5616 554.39C64.5616 555.71 64.2616 556.91 63.6616 557.99C63.0816 559.09 62.3316 560.04 61.4116 560.84C60.4916 561.66 59.5316 562.33 58.5316 562.85C57.5316 563.37 56.6216 563.74 55.8016 563.96ZM86.6862 557.15C85.8462 557.15 85.0762 557.1 84.3762 557C83.6762 556.88 83.0462 556.67 82.4862 556.37C81.9262 556.07 81.4562 555.64 81.0762 555.08C80.6962 554.5 80.4062 553.74 80.2062 552.8L81.9762 551.75C82.2362 552.55 82.5562 553.16 82.9362 553.58C83.3162 554 83.8262 554.29 84.4662 554.45C85.1262 554.61 85.9662 554.69 86.9862 554.69C87.4062 554.69 87.7062 554.81 87.8862 555.05C88.0862 555.27 88.1862 555.54 88.1862 555.86C88.1862 556.18 88.0462 556.48 87.7662 556.76C87.4862 557.02 87.1262 557.15 86.6862 557.15ZM67.5762 557.15L67.8462 554.69C68.8862 554.69 69.9062 554.61 70.9062 554.45C71.9062 554.29 72.8862 554.06 73.8462 553.76C74.8062 553.46 75.7262 553.1 76.6062 552.68C77.5062 552.24 78.3562 551.74 79.1562 551.18C78.6362 550.72 78.0362 550.32 77.3562 549.98C76.6762 549.64 75.9262 549.38 75.1062 549.2C74.3062 549 73.4562 548.9 72.5562 548.9C72.2362 548.9 71.9362 548.91 71.6562 548.93C71.3762 548.95 71.0962 548.99 70.8162 549.05C70.5362 549.09 70.2162 549.15 69.8562 549.23L69.3762 546.95C69.9162 546.79 70.4562 546.67 70.9962 546.59C71.5362 546.49 72.0562 546.44 72.5562 546.44C73.5962 546.44 74.5362 546.57 75.3762 546.83C76.2162 547.07 76.9762 547.37 77.6562 547.73C78.3562 548.09 79.0062 548.45 79.6062 548.81C80.2262 549.17 80.8262 549.48 81.4062 549.74C81.9862 549.98 82.5862 550.1 83.2062 550.1H83.8362L84.0462 552.26C83.1862 552.26 82.3962 552.38 81.6762 552.62C80.9562 552.86 80.2462 553.17 79.5462 553.55C78.8662 553.91 78.1462 554.3 77.3862 554.72C76.6262 555.12 75.7862 555.51 74.8662 555.89C73.9462 556.25 72.8862 556.55 71.6862 556.79C70.5062 557.03 69.1362 557.15 67.5762 557.15ZM72.2862 543.35C71.8662 543.35 71.5062 543.21 71.2062 542.93C70.9262 542.63 70.7862 542.28 70.7862 541.88C70.7862 541.48 70.9262 541.13 71.2062 540.83C71.5062 540.53 71.8662 540.38 72.2862 540.38C72.6862 540.38 73.0262 540.53 73.3062 540.83C73.6062 541.13 73.7562 541.48 73.7562 541.88C73.7562 542.28 73.6062 542.63 73.3062 542.93C73.0262 543.21 72.6862 543.35 72.2862 543.35ZM86.6777 557.15L86.9477 554.69C88.0877 554.69 88.8877 554.58 89.3477 554.36C89.8077 554.14 90.0677 553.75 90.1277 553.19C90.2077 552.63 90.2277 551.85 90.1877 550.85L89.6177 535.58H92.0477L92.6477 550.58C92.6877 551.64 92.6477 552.58 92.5277 553.4C92.4277 554.22 92.1677 554.91 91.7477 555.47C91.3477 556.03 90.7377 556.45 89.9177 556.73C89.1177 557.01 88.0377 557.15 86.6777 557.15ZM97.2307 557L96.6307 535.58H99.0607L99.6607 557H97.2307ZM132.693 557.15L132.963 554.69C134.103 554.69 134.903 554.58 135.363 554.36C135.823 554.14 136.083 553.75 136.143 553.19C136.223 552.63 136.243 551.85 136.203 550.85L135.693 535.58H138.183L138.663 550.79C138.703 551.81 138.863 552.61 139.143 553.19C139.443 553.75 139.843 554.14 140.343 554.36C140.843 554.58 141.393 554.69 141.993 554.69C142.413 554.69 142.713 554.81 142.893 555.05C143.093 555.27 143.193 555.54 143.193 555.86C143.193 556.18 143.053 556.48 142.773 556.76C142.493 557.02 142.133 557.15 141.693 557.15C140.853 557.15 140.153 557.02 139.593 556.76C139.053 556.48 138.623 556.13 138.303 555.71C138.003 555.27 137.803 554.81 137.703 554.33L138.333 554.39C138.133 554.99 137.803 555.5 137.343 555.92C136.903 556.32 136.303 556.63 135.543 556.85C134.783 557.05 133.833 557.15 132.693 557.15ZM111.513 557.03C111.513 556.55 111.553 556.04 111.633 555.5C111.733 554.94 111.873 554.35 112.053 553.73C112.253 553.09 112.493 552.42 112.773 551.72L114.933 552.56C114.733 553.12 114.553 553.65 114.393 554.15C114.253 554.65 114.143 555.12 114.063 555.56C114.003 556 113.973 556.42 113.973 556.82C113.973 557.66 114.153 558.37 114.513 558.95C114.893 559.55 115.413 560.04 116.073 560.42C116.733 560.8 117.483 561.08 118.323 561.26C119.183 561.44 120.093 561.53 121.053 561.53C122.213 561.53 123.293 561.43 124.293 561.23C125.313 561.03 126.203 560.74 126.963 560.36C127.743 560 128.353 559.58 128.793 559.1C129.233 558.64 129.453 558.14 129.453 557.6C129.453 557.34 129.353 557.1 129.153 556.88C128.953 556.66 128.653 556.45 128.253 556.25C127.853 556.05 127.373 555.86 126.813 555.68C126.253 555.48 125.613 555.28 124.893 555.08L125.463 552.59C126.503 552.99 127.423 553.33 128.223 553.61C129.023 553.87 129.723 554.08 130.323 554.24C130.923 554.4 131.443 554.52 131.883 554.6C132.323 554.66 132.693 554.69 132.993 554.69C133.413 554.69 133.713 554.81 133.893 555.05C134.093 555.27 134.193 555.54 134.193 555.86C134.193 556.18 134.053 556.48 133.773 556.76C133.493 557.02 133.133 557.15 132.693 557.15C132.573 557.15 132.453 557.15 132.333 557.15C132.213 557.15 132.083 557.15 131.943 557.15C131.823 557.15 131.703 557.15 131.583 557.15C131.623 557.33 131.653 557.47 131.673 557.57C131.693 557.69 131.703 557.84 131.703 558.02C131.703 558.76 131.443 559.48 130.923 560.18C130.423 560.88 129.683 561.51 128.703 562.07C127.723 562.65 126.533 563.11 125.133 563.45C123.753 563.79 122.173 563.96 120.393 563.96C118.813 563.96 117.343 563.7 115.983 563.18C114.643 562.68 113.563 561.92 112.743 560.9C111.923 559.88 111.513 558.59 111.513 557.03ZM141.697 557.15L141.997 554.69C143.257 554.69 144.227 554.68 144.907 554.66C145.607 554.64 146.117 554.62 146.437 554.6C146.757 554.56 146.977 554.54 147.097 554.54C146.737 554.34 146.317 554.03 145.837 553.61C145.357 553.17 144.937 552.62 144.577 551.96C144.217 551.28 144.037 550.48 144.037 549.56C144.037 548.42 144.297 547.42 144.817 546.56C145.357 545.7 146.087 545.03 147.007 544.55C147.947 544.07 149.017 543.83 150.217 543.83C150.677 543.83 151.167 543.87 151.687 543.95C152.207 544.03 152.707 544.15 153.187 544.31L152.677 546.62C152.277 546.52 151.857 546.44 151.417 546.38C150.977 546.32 150.577 546.29 150.217 546.29C149.497 546.29 148.857 546.43 148.297 546.71C147.737 546.97 147.297 547.34 146.977 547.82C146.657 548.3 146.497 548.88 146.497 549.56C146.497 550.08 146.607 550.56 146.827 551C147.047 551.42 147.337 551.8 147.697 552.14C148.057 552.48 148.457 552.76 148.897 552.98C149.337 553.2 149.767 553.37 150.187 553.49C150.627 553.61 151.017 553.66 151.357 553.64C151.597 553.56 151.817 553.49 152.017 553.43C152.217 553.37 152.437 553.3 152.677 553.22C152.937 553.12 153.247 552.99 153.607 552.83C153.987 552.67 154.467 552.46 155.047 552.2L155.887 554.39C154.547 554.93 153.177 555.41 151.777 555.83C150.397 556.25 148.887 556.58 147.247 556.82C145.627 557.04 143.777 557.15 141.697 557.15ZM177.479 557.63L178.259 555.17C180.599 555.17 182.609 555.11 184.289 554.99C185.989 554.87 187.379 554.68 188.459 554.42C189.559 554.14 190.369 553.77 190.889 553.31C191.429 552.83 191.699 552.25 191.699 551.57C191.699 550.81 191.559 549.93 191.279 548.93C190.999 547.93 190.639 546.86 190.199 545.72L192.509 544.91C192.769 545.55 193.009 546.24 193.229 546.98C193.469 547.7 193.669 548.42 193.829 549.14C193.989 549.84 194.069 550.49 194.069 551.09C194.069 552.27 193.799 553.28 193.259 554.12C192.719 554.94 191.819 555.61 190.559 556.13C189.299 556.65 187.599 557.03 185.459 557.27C183.339 557.51 180.679 557.63 177.479 557.63ZM177.479 557.63C175.699 557.63 174.129 557.51 172.769 557.27C171.429 557.05 170.309 556.7 169.409 556.22C168.509 555.74 167.829 555.12 167.369 554.36C166.909 553.58 166.679 552.64 166.679 551.54C166.679 551.04 166.719 550.53 166.799 550.01C166.879 549.47 166.979 548.93 167.099 548.39C167.239 547.85 167.379 547.33 167.519 546.83L169.769 547.4C169.689 547.7 169.599 548.06 169.499 548.48C169.399 548.88 169.309 549.29 169.229 549.71C169.169 550.13 169.139 550.51 169.139 550.85C169.139 551.89 169.399 552.73 169.919 553.37C170.459 553.99 171.389 554.45 172.709 554.75C174.029 555.03 175.879 555.17 178.259 555.17L178.859 556.67L177.479 557.63ZM182.489 544.97C182.069 544.97 181.709 544.83 181.409 544.55C181.129 544.25 180.989 543.9 180.989 543.5C180.989 543.1 181.129 542.75 181.409 542.45C181.709 542.15 182.069 542 182.489 542C182.889 542 183.229 542.15 183.509 542.45C183.809 542.75 183.959 543.1 183.959 543.5C183.959 543.9 183.809 544.25 183.509 544.55C183.229 544.83 182.889 544.97 182.489 544.97ZM178.379 544.97C177.959 544.97 177.599 544.83 177.299 544.55C177.019 544.25 176.879 543.9 176.879 543.5C176.879 543.1 177.019 542.75 177.299 542.45C177.599 542.15 177.959 542 178.379 542C178.779 542 179.119 542.15 179.399 542.45C179.699 542.75 179.849 543.1 179.849 543.5C179.849 543.9 179.699 544.25 179.399 544.55C179.119 544.83 178.779 544.97 178.379 544.97ZM198.334 557L197.734 535.58H200.164L200.764 557H198.334ZM202.081 563.9L201.211 561.62C203.231 560.98 204.781 560.21 205.861 559.31C206.961 558.43 207.711 557.51 208.111 556.55C208.531 555.59 208.741 554.67 208.741 553.79C208.741 553.23 208.681 552.69 208.561 552.17C208.441 551.65 208.231 551.06 207.931 550.4C207.631 549.74 207.211 548.92 206.671 547.94L208.861 546.83C209.621 548.13 210.161 549.36 210.481 550.52C210.821 551.68 210.991 552.7 210.991 553.58C210.991 554.84 210.781 555.98 210.361 557C209.961 558.02 209.421 558.92 208.741 559.7C208.081 560.5 207.351 561.18 206.551 561.74C205.771 562.3 204.981 562.76 204.181 563.12C203.401 563.48 202.701 563.74 202.081 563.9ZM221.707 557.15C220.107 557.15 218.877 556.97 218.017 556.61C217.177 556.25 216.597 555.69 216.277 554.93C215.957 554.17 215.777 553.19 215.737 551.99L215.137 535.58H217.597L218.197 551.03C218.237 552.01 218.327 552.77 218.467 553.31C218.627 553.83 218.967 554.19 219.487 554.39C220.027 554.59 220.867 554.69 222.007 554.69C222.427 554.69 222.727 554.81 222.907 555.05C223.107 555.27 223.207 555.54 223.207 555.86C223.207 556.18 223.067 556.48 222.787 556.76C222.507 557.02 222.147 557.15 221.707 557.15ZM221.707 557.15L222.007 554.69C222.507 554.69 223.017 554.69 223.537 554.69C224.077 554.67 224.607 554.64 225.127 554.6C225.647 554.56 226.147 554.51 226.627 554.45C227.107 554.39 227.537 554.3 227.917 554.18C228.617 553.96 229.257 553.67 229.837 553.31C230.437 552.95 230.917 552.51 231.277 551.99C231.657 551.47 231.847 550.87 231.847 550.19C231.847 549.73 231.737 549.26 231.517 548.78C231.297 548.28 230.997 547.86 230.617 547.52C230.237 547.18 229.797 547.01 229.297 547.01C228.817 547.01 228.367 547.17 227.947 547.49C227.547 547.81 227.217 548.23 226.957 548.75C226.717 549.25 226.597 549.77 226.597 550.31C226.597 550.95 226.757 551.53 227.077 552.05C227.417 552.55 227.827 552.98 228.307 553.34C228.787 553.7 229.267 553.99 229.747 554.21L226.897 555.05C226.577 554.81 226.197 554.48 225.757 554.06C225.337 553.62 224.957 553.08 224.617 552.44C224.297 551.8 224.137 551.07 224.137 550.25C224.137 549.45 224.277 548.71 224.557 548.03C224.857 547.33 225.247 546.72 225.727 546.2C226.227 545.68 226.787 545.28 227.407 545C228.047 544.7 228.707 544.55 229.387 544.55C230.367 544.55 231.227 544.82 231.967 545.36C232.707 545.9 233.277 546.59 233.677 547.43C234.097 548.25 234.307 549.11 234.307 550.01C234.307 550.87 234.147 551.65 233.827 552.35C233.507 553.03 233.067 553.64 232.507 554.18C231.967 554.72 231.327 555.18 230.587 555.56C229.867 555.94 229.097 556.25 228.277 556.49C227.817 556.63 227.317 556.74 226.777 556.82C226.257 556.9 225.707 556.96 225.127 557C224.547 557.06 223.967 557.1 223.387 557.12C222.807 557.14 222.247 557.15 221.707 557.15ZM236.557 557.15C235.557 557.15 234.517 557.09 233.437 556.97C232.377 556.83 231.367 556.66 230.407 556.46C229.467 556.24 228.687 556 228.067 555.74L230.137 554.24C230.737 554.32 231.447 554.4 232.267 554.48C233.087 554.54 233.907 554.59 234.727 554.63C235.547 554.67 236.257 554.69 236.857 554.69C237.277 554.69 237.577 554.81 237.757 555.05C237.957 555.27 238.057 555.54 238.057 555.86C238.057 556.18 237.917 556.48 237.637 556.76C237.357 557.02 236.997 557.15 236.557 557.15ZM231.217 541.46C230.797 541.46 230.437 541.32 230.137 541.04C229.857 540.74 229.717 540.39 229.717 539.99C229.717 539.59 229.857 539.24 230.137 538.94C230.437 538.64 230.797 538.49 231.217 538.49C231.617 538.49 231.957 538.64 232.237 538.94C232.537 539.24 232.687 539.59 232.687 539.99C232.687 540.39 232.537 540.74 232.237 541.04C231.957 541.32 231.617 541.46 231.217 541.46ZM227.107 541.46C226.687 541.46 226.327 541.32 226.027 541.04C225.747 540.74 225.607 540.39 225.607 539.99C225.607 539.59 225.747 539.24 226.027 538.94C226.327 538.64 226.687 538.49 227.107 538.49C227.507 538.49 227.847 538.64 228.127 538.94C228.427 539.24 228.577 539.59 228.577 539.99C228.577 540.39 228.427 540.74 228.127 541.04C227.847 541.32 227.507 541.46 227.107 541.46ZM236.561 557.15L236.861 554.69C238.061 554.69 239.191 554.58 240.251 554.36C241.311 554.12 242.281 553.81 243.161 553.43C244.061 553.03 244.831 552.58 245.471 552.08C246.111 551.56 246.601 551.03 246.941 550.49C247.301 549.93 247.481 549.38 247.481 548.84C247.481 548.58 247.391 548.32 247.211 548.06C247.031 547.78 246.721 547.55 246.281 547.37C245.861 547.19 245.291 547.1 244.571 547.1C244.131 547.1 243.641 547.16 243.101 547.28C242.561 547.4 242.041 547.57 241.541 547.79C241.061 547.99 240.661 548.22 240.341 548.48C240.881 548.92 241.381 549.35 241.841 549.77C242.321 550.19 242.811 550.65 243.311 551.15C243.811 551.63 244.351 552.18 244.931 552.8C245.391 553.14 245.901 553.43 246.461 553.67C247.041 553.91 247.661 554.11 248.321 554.27C249.001 554.41 249.691 554.52 250.391 554.6C251.091 554.66 251.791 554.69 252.491 554.69C252.911 554.69 253.211 554.81 253.391 555.05C253.591 555.27 253.691 555.54 253.691 555.86C253.691 556.18 253.551 556.48 253.271 556.76C252.991 557.02 252.631 557.15 252.191 557.15C251.091 557.15 249.961 557.05 248.801 556.85C247.661 556.63 246.591 556.31 245.591 555.89C244.591 555.45 243.741 554.9 243.041 554.24C242.701 553.8 242.321 553.36 241.901 552.92C241.481 552.48 241.021 552.04 240.521 551.6C240.041 551.14 239.521 550.71 238.961 550.31C238.841 550.21 238.721 550.03 238.601 549.77C238.481 549.51 238.381 549.24 238.301 548.96C238.221 548.68 238.181 548.47 238.181 548.33C238.181 548.03 238.371 547.67 238.751 547.25C239.131 546.83 239.641 546.43 240.281 546.05C240.921 545.65 241.651 545.32 242.471 545.06C243.291 544.8 244.141 544.67 245.021 544.67C246.161 544.67 247.081 544.84 247.781 545.18C248.501 545.52 249.021 545.96 249.341 546.5C249.681 547.02 249.851 547.58 249.851 548.18C249.851 549.06 249.631 549.94 249.191 550.82C248.751 551.68 248.121 552.49 247.301 553.25C246.481 554.01 245.521 554.69 244.421 555.29C243.321 555.87 242.101 556.33 240.761 556.67C239.441 556.99 238.041 557.15 236.561 557.15ZM252.205 557.15L252.475 554.69C253.615 554.69 254.415 554.58 254.875 554.36C255.335 554.14 255.595 553.75 255.655 553.19C255.735 552.63 255.755 551.85 255.715 550.85L255.145 535.58H257.575L258.175 550.58C258.215 551.64 258.175 552.58 258.055 553.4C257.955 554.22 257.695 554.91 257.275 555.47C256.875 556.03 256.265 556.45 255.445 556.73C254.645 557.01 253.565 557.15 252.205 557.15ZM262.758 557L262.158 535.58H264.588L265.188 557H262.758ZM285.051 568.82C284.151 568.82 283.201 568.73 282.201 568.55C281.201 568.39 280.261 568.07 279.381 567.59C278.521 567.13 277.811 566.47 277.251 565.61C276.711 564.77 276.441 563.68 276.441 562.34C276.441 560.98 276.691 559.79 277.191 558.77C277.711 557.77 278.371 556.89 279.171 556.13C279.991 555.35 280.851 554.65 281.751 554.03C282.651 553.41 283.501 552.83 284.301 552.29C285.121 551.75 285.781 551.21 286.281 550.67C286.801 550.11 287.061 549.5 287.061 548.84C287.061 548.58 286.971 548.32 286.791 548.06C286.631 547.78 286.361 547.55 285.981 547.37C285.621 547.19 285.131 547.1 284.511 547.1C284.071 547.1 283.581 547.16 283.041 547.28C282.501 547.4 281.981 547.57 281.481 547.79C281.001 547.99 280.601 548.22 280.281 548.48C280.821 548.92 281.321 549.35 281.781 549.77C282.261 550.19 282.751 550.65 283.251 551.15C283.751 551.63 284.291 552.18 284.871 552.8C285.371 553.08 285.861 553.34 286.341 553.58C286.841 553.8 287.371 554 287.931 554.18C288.491 554.34 289.131 554.47 289.851 554.57C290.571 554.65 291.411 554.69 292.371 554.69C292.791 554.69 293.091 554.81 293.271 555.05C293.471 555.27 293.571 555.54 293.571 555.86C293.571 556.18 293.431 556.48 293.151 556.76C292.871 557.02 292.511 557.15 292.071 557.15C290.411 557.15 289.031 557.02 287.931 556.76C286.851 556.5 285.931 556.15 285.171 555.71C284.411 555.27 283.681 554.78 282.981 554.24C282.641 553.8 282.261 553.36 281.841 552.92C281.421 552.48 280.961 552.04 280.461 551.6C279.981 551.14 279.461 550.71 278.901 550.31C278.781 550.21 278.661 550.03 278.541 549.77C278.421 549.51 278.321 549.24 278.241 548.96C278.161 548.68 278.121 548.47 278.121 548.33C278.121 548.03 278.311 547.67 278.691 547.25C279.071 546.83 279.581 546.43 280.221 546.05C280.861 545.65 281.591 545.32 282.411 545.06C283.231 544.8 284.081 544.67 284.961 544.67C286.381 544.67 287.481 545.02 288.261 545.72C289.041 546.42 289.431 547.24 289.431 548.18C289.431 549.2 289.171 550.11 288.651 550.91C288.151 551.71 287.501 552.44 286.701 553.1C285.901 553.76 285.051 554.4 284.151 555.02C283.271 555.64 282.431 556.29 281.631 556.97C280.831 557.63 280.171 558.36 279.651 559.16C279.151 559.96 278.901 560.89 278.901 561.95C278.901 562.87 279.121 563.62 279.561 564.2C280.001 564.78 280.551 565.22 281.211 565.52C281.871 565.84 282.551 566.06 283.251 566.18C283.951 566.3 284.551 566.36 285.051 566.36C285.751 566.36 286.461 566.31 287.181 566.21C287.921 566.11 288.681 565.95 289.461 565.73C290.261 565.51 291.061 565.24 291.861 564.92L292.641 566.84C292.061 567.18 291.351 567.5 290.511 567.8C289.671 568.12 288.781 568.37 287.841 568.55C286.901 568.73 285.971 568.82 285.051 568.82ZM292.078 557.15L292.378 554.69C292.878 554.69 293.428 554.69 294.028 554.69C294.648 554.67 295.268 554.65 295.888 554.63C296.528 554.61 297.118 554.57 297.658 554.51C298.198 554.43 298.648 554.33 299.008 554.21C299.728 553.95 300.288 553.63 300.688 553.25C301.088 552.85 301.368 552.33 301.528 551.69C301.708 551.03 301.798 550.19 301.798 549.17C301.798 548.33 301.688 547.55 301.468 546.83C301.248 546.11 300.938 545.53 300.538 545.09C300.138 544.65 299.658 544.43 299.098 544.43C298.638 544.43 298.218 544.61 297.838 544.97C297.478 545.31 297.188 545.75 296.968 546.29C296.768 546.83 296.668 547.37 296.668 547.91C296.668 548.33 296.748 548.69 296.908 548.99C297.088 549.29 297.378 549.53 297.778 549.71C298.178 549.87 298.698 549.95 299.338 549.95C299.918 549.95 300.498 549.89 301.078 549.77C301.678 549.65 302.188 549.49 302.608 549.29L302.728 551.39C302.408 551.61 302.048 551.79 301.648 551.93C301.248 552.07 300.828 552.17 300.388 552.23C299.948 552.29 299.508 552.32 299.068 552.32C298.048 552.32 297.178 552.16 296.458 551.84C295.758 551.5 295.218 551.05 294.838 550.49C294.478 549.91 294.298 549.25 294.298 548.51C294.298 547.75 294.418 546.99 294.658 546.23C294.898 545.45 295.238 544.74 295.678 544.1C296.118 543.46 296.648 542.95 297.268 542.57C297.888 542.17 298.578 541.97 299.338 541.97C300.418 541.97 301.308 542.32 302.008 543.02C302.728 543.72 303.258 544.64 303.598 545.78C303.958 546.9 304.138 548.09 304.138 549.35C304.138 550.85 303.878 552.14 303.358 553.22C302.858 554.28 302.018 555.16 300.838 555.86C300.378 556.12 299.818 556.34 299.158 556.52C298.518 556.68 297.808 556.81 297.028 556.91C296.268 557.01 295.468 557.07 294.628 557.09C293.788 557.13 292.938 557.15 292.078 557.15ZM300.868 538.88C300.448 538.88 300.088 538.74 299.788 538.46C299.508 538.16 299.368 537.81 299.368 537.41C299.368 537.01 299.508 536.66 299.788 536.36C300.088 536.06 300.448 535.91 300.868 535.91C301.268 535.91 301.608 536.06 301.888 536.36C302.188 536.66 302.338 537.01 302.338 537.41C302.338 537.81 302.188 538.16 301.888 538.46C301.608 538.74 301.268 538.88 300.868 538.88ZM296.758 538.88C296.338 538.88 295.978 538.74 295.678 538.46C295.398 538.16 295.258 537.81 295.258 537.41C295.258 537.01 295.398 536.66 295.678 536.36C295.978 536.06 296.338 535.91 296.758 535.91C297.158 535.91 297.498 536.06 297.778 536.36C298.078 536.66 298.228 537.01 298.228 537.41C298.228 537.81 298.078 538.16 297.778 538.46C297.498 538.74 297.158 538.88 296.758 538.88ZM308.256 557L307.656 535.58H310.086L310.686 557H308.256ZM314.385 563.9L313.845 561.44C315.045 561.28 316.145 561.05 317.145 560.75C318.165 560.47 319.035 560.06 319.755 559.52C320.495 558.98 321.065 558.27 321.465 557.39C321.865 556.51 322.065 555.41 322.065 554.09C322.065 552.73 321.815 551.6 321.315 550.7C320.815 549.8 320.165 549.35 319.365 549.35C318.945 549.35 318.555 549.51 318.195 549.83C317.835 550.15 317.535 550.58 317.295 551.12C317.075 551.66 316.965 552.25 316.965 552.89C316.965 553.25 317.045 553.55 317.205 553.79C317.365 554.01 317.595 554.19 317.895 554.33C318.215 554.45 318.615 554.54 319.095 554.6C319.575 554.66 320.135 554.69 320.775 554.69H327.105C327.525 554.69 327.825 554.81 328.005 555.05C328.205 555.27 328.305 555.54 328.305 555.86C328.305 556.18 328.165 556.48 327.885 556.76C327.605 557.02 327.245 557.15 326.805 557.15H319.635C318.735 557.15 317.895 557.02 317.115 556.76C316.355 556.5 315.735 556.1 315.255 555.56C314.795 555 314.565 554.27 314.565 553.37C314.565 552.53 314.695 551.73 314.955 550.97C315.215 550.19 315.565 549.5 316.005 548.9C316.465 548.28 316.995 547.79 317.595 547.43C318.215 547.07 318.885 546.89 319.605 546.89C320.525 546.89 321.345 547.16 322.065 547.7C322.785 548.24 323.355 549.06 323.775 550.16C324.195 551.24 324.405 552.61 324.405 554.27C324.405 556.13 324.025 557.73 323.265 559.07C322.525 560.43 321.405 561.51 319.905 562.31C318.425 563.11 316.585 563.64 314.385 563.9ZM326.795 557.15L327.095 554.69C327.655 554.69 328.125 554.57 328.505 554.33C328.885 554.09 329.255 553.69 329.615 553.13C329.975 552.57 330.365 551.82 330.785 550.88C331.365 549.6 331.935 548.63 332.495 547.97C333.075 547.31 333.645 546.86 334.205 546.62C334.785 546.38 335.355 546.26 335.915 546.26C336.595 546.26 337.225 546.44 337.805 546.8C338.385 547.14 338.895 547.6 339.335 548.18C339.775 548.76 340.115 549.4 340.355 550.1C340.615 550.78 340.745 551.46 340.745 552.14C340.745 553.34 340.535 554.3 340.115 555.02C339.695 555.72 339.155 556.23 338.495 556.55C337.855 556.85 337.185 557 336.485 557C335.865 557 335.065 556.88 334.085 556.64C333.125 556.4 331.905 555.79 330.425 554.81L331.595 552.92C332.575 553.54 333.455 553.97 334.235 554.21C335.035 554.43 335.695 554.54 336.215 554.54C336.795 554.54 337.255 554.46 337.595 554.3C337.935 554.12 338.185 553.87 338.345 553.55C338.505 553.23 338.585 552.87 338.585 552.47C338.585 551.89 338.445 551.31 338.165 550.73C337.885 550.15 337.525 549.67 337.085 549.29C336.665 548.91 336.215 548.72 335.735 548.72C335.375 548.72 335.025 548.82 334.685 549.02C334.345 549.22 333.995 549.59 333.635 550.13C333.275 550.67 332.865 551.45 332.405 552.47C331.925 553.55 331.465 554.41 331.025 555.05C330.605 555.67 330.175 556.13 329.735 556.43C329.295 556.73 328.835 556.92 328.355 557C327.895 557.1 327.375 557.15 326.795 557.15ZM358.001 554.69C359.001 554.69 359.791 554.59 360.371 554.39C360.971 554.19 361.401 553.9 361.661 553.52C361.941 553.12 362.081 552.66 362.081 552.14C362.081 551.74 361.971 551.26 361.751 550.7C361.551 550.14 361.271 549.52 360.911 548.84C360.551 548.14 360.131 547.41 359.651 546.65C359.191 545.87 358.691 545.08 358.151 544.28L360.221 542.93C361.001 544.11 361.681 545.23 362.261 546.29C362.841 547.33 363.331 548.31 363.731 549.23C364.131 550.13 364.451 550.98 364.691 551.78C364.971 552.66 365.281 553.31 365.621 553.73C365.981 554.15 366.351 554.42 366.731 554.54C367.111 554.64 367.461 554.69 367.781 554.69C368.201 554.69 368.511 554.81 368.711 555.05C368.911 555.27 369.011 555.54 369.011 555.86C369.011 556.18 368.871 556.48 368.591 556.76C368.311 557.02 367.951 557.15 367.511 557.15C366.851 557.15 366.201 557.03 365.561 556.79C364.941 556.53 364.401 556.12 363.941 555.56C363.481 554.98 363.161 554.21 362.981 553.25L364.181 552.29C364.181 553.09 364.011 553.87 363.671 554.63C363.331 555.37 362.711 555.98 361.811 556.46C360.931 556.94 359.661 557.18 358.001 557.18C357.281 557.18 356.581 557.12 355.901 557C355.241 556.88 354.631 556.71 354.071 556.49C353.511 556.25 353.021 555.97 352.601 555.65L353.801 553.58C354.201 553.84 354.761 554.09 355.481 554.33C356.201 554.57 357.041 554.69 358.001 554.69ZM379.068 557.24C378.248 557.24 377.408 557.13 376.548 556.91C375.688 556.67 374.858 556.34 374.058 555.92C373.278 555.5 372.568 554.99 371.928 554.39C371.308 553.77 370.808 553.08 370.428 552.32C370.068 551.56 369.888 550.74 369.888 549.86C369.888 548.96 370.068 548.13 370.428 547.37C370.808 546.61 371.338 546 372.018 545.54C372.718 545.06 373.528 544.82 374.448 544.82C375.348 544.82 376.118 545.07 376.758 545.57C377.398 546.05 377.888 546.68 378.228 547.46C378.588 548.22 378.768 549.02 378.768 549.86C378.768 551.02 378.438 552.06 377.778 552.98C377.138 553.88 376.268 554.64 375.168 555.26C374.068 555.88 372.858 556.35 371.538 556.67C370.218 556.99 368.878 557.15 367.518 557.15L367.818 554.69C368.898 554.69 369.858 554.62 370.698 554.48C371.558 554.32 372.298 554.11 372.918 553.85C373.838 553.49 374.558 553.06 375.078 552.56C375.618 552.04 375.998 551.51 376.218 550.97C376.438 550.43 376.548 549.94 376.548 549.5C376.548 549.08 376.458 548.68 376.278 548.3C376.118 547.9 375.878 547.58 375.558 547.34C375.258 547.08 374.888 546.95 374.448 546.95C374.008 546.95 373.608 547.08 373.248 547.34C372.908 547.58 372.638 547.9 372.438 548.3C372.238 548.7 372.138 549.12 372.138 549.56C372.138 550.4 372.348 551.15 372.768 551.81C373.208 552.45 373.768 553 374.448 553.46C375.148 553.92 375.888 554.27 376.668 554.51C377.468 554.75 378.228 554.87 378.948 554.87C379.628 554.87 380.128 554.76 380.448 554.54C380.768 554.3 380.928 553.91 380.928 553.37C380.928 553.27 380.898 553.09 380.838 552.83C380.798 552.55 380.638 552.17 380.358 551.69C380.098 551.21 379.648 550.62 379.008 549.92C378.368 549.2 377.468 548.35 376.308 547.37C375.148 546.37 373.648 545.21 371.808 543.89L373.218 542.03C375.138 543.43 376.718 544.67 377.958 545.75C379.218 546.81 380.208 547.74 380.928 548.54C381.668 549.32 382.208 550.01 382.548 550.61C382.908 551.19 383.138 551.71 383.238 552.17C383.338 552.61 383.388 553.03 383.388 553.43C383.388 554.09 383.238 554.71 382.938 555.29C382.658 555.87 382.198 556.34 381.558 556.7C380.938 557.06 380.108 557.24 379.068 557.24ZM393.474 557.15C391.874 557.15 390.644 556.97 389.784 556.61C388.944 556.25 388.364 555.69 388.044 554.93C387.724 554.17 387.544 553.19 387.504 551.99L386.904 535.58H389.364L389.964 551.03C390.004 552.01 390.094 552.77 390.234 553.31C390.394 553.83 390.734 554.19 391.254 554.39C391.794 554.59 392.634 554.69 393.774 554.69C394.194 554.69 394.494 554.81 394.674 555.05C394.874 555.27 394.974 555.54 394.974 555.86C394.974 556.18 394.834 556.48 394.554 556.76C394.274 557.02 393.914 557.15 393.474 557.15ZM393.475 557.15L393.775 554.69C394.415 554.69 394.935 554.65 395.335 554.57C395.735 554.47 396.065 554.24 396.325 553.88C396.605 553.5 396.865 552.91 397.105 552.11C397.345 551.31 397.625 550.19 397.945 548.75L400.195 549.38C400.115 549.72 400.025 550.11 399.925 550.55C399.825 550.97 399.735 551.41 399.655 551.87C399.575 552.31 399.535 552.72 399.535 553.1C399.535 553.6 399.725 553.99 400.105 554.27C400.485 554.55 401.175 554.69 402.175 554.69C402.775 554.69 403.265 554.64 403.645 554.54C404.025 554.44 404.335 554.2 404.575 553.82C404.835 553.44 405.065 552.83 405.265 551.99C405.465 551.15 405.675 550 405.895 548.54L408.175 548.96C408.115 549.32 408.045 549.76 407.965 550.28C407.885 550.8 407.805 551.32 407.725 551.84C407.665 552.34 407.635 552.76 407.635 553.1C407.635 553.38 407.695 553.65 407.815 553.91C407.955 554.15 408.215 554.34 408.595 554.48C408.995 554.62 409.585 554.69 410.365 554.69C410.945 554.69 411.445 554.62 411.865 554.48C412.305 554.34 412.635 554.08 412.855 553.7C413.095 553.32 413.215 552.79 413.215 552.11C413.215 551.35 413.035 550.4 412.675 549.26C412.335 548.1 411.945 546.95 411.505 545.81L413.935 544.91C414.195 545.55 414.435 546.28 414.655 547.1C414.895 547.92 415.095 548.73 415.255 549.53C415.415 550.33 415.495 551.03 415.495 551.63C415.495 552.55 415.375 553.36 415.135 554.06C414.895 554.76 414.555 555.34 414.115 555.8C413.675 556.24 413.135 556.58 412.495 556.82C411.855 557.04 411.135 557.15 410.335 557.15C409.395 557.15 408.625 557.04 408.025 556.82C407.425 556.6 406.965 556.27 406.645 555.83C406.325 555.37 406.115 554.79 406.015 554.09H407.035C406.655 554.95 406.255 555.6 405.835 556.04C405.415 556.48 404.895 556.78 404.275 556.94C403.655 557.08 402.835 557.15 401.815 557.15C401.315 557.15 400.775 557.07 400.195 556.91C399.635 556.75 399.145 556.44 398.725 555.98C398.305 555.5 398.055 554.79 397.975 553.85L398.875 553.67C398.535 554.69 398.115 555.45 397.615 555.95C397.135 556.43 396.555 556.75 395.875 556.91C395.195 557.07 394.395 557.15 393.475 557.15ZM406.405 540.65C405.985 540.65 405.625 540.51 405.325 540.23C405.045 539.93 404.905 539.58 404.905 539.18C404.905 538.78 405.045 538.43 405.325 538.13C405.625 537.83 405.985 537.68 406.405 537.68C406.805 537.68 407.145 537.83 407.425 538.13C407.725 538.43 407.875 538.78 407.875 539.18C407.875 539.58 407.725 539.93 407.425 540.23C407.145 540.51 406.805 540.65 406.405 540.65ZM404.365 543.95C403.945 543.95 403.585 543.81 403.285 543.53C403.005 543.23 402.865 542.88 402.865 542.48C402.865 542.08 403.005 541.73 403.285 541.43C403.585 541.13 403.945 540.98 404.365 540.98C404.765 540.98 405.105 541.13 405.385 541.43C405.685 541.73 405.835 542.08 405.835 542.48C405.835 542.88 405.685 543.23 405.385 543.53C405.105 543.81 404.765 543.95 404.365 543.95ZM408.445 543.95C408.025 543.95 407.665 543.81 407.365 543.53C407.085 543.23 406.945 542.88 406.945 542.48C406.945 542.08 407.085 541.73 407.365 541.43C407.665 541.13 408.025 540.98 408.445 540.98C408.845 540.98 409.185 541.13 409.465 541.43C409.765 541.73 409.915 542.08 409.915 542.48C409.915 542.88 409.765 543.23 409.465 543.53C409.185 543.81 408.845 543.95 408.445 543.95ZM246.577 592.21C246.017 592.21 245.574 592.058 245.247 591.755C244.921 591.452 244.757 591.008 244.757 590.425C244.757 589.818 244.956 589.305 245.352 588.885C245.772 588.465 246.262 588.255 246.822 588.255C247.406 588.255 247.861 588.418 248.187 588.745C248.537 589.048 248.712 589.503 248.712 590.11C248.712 590.693 248.502 591.195 248.082 591.615C247.662 592.012 247.161 592.21 246.577 592.21ZM251.025 592.03C251.025 591.55 251.065 591.04 251.145 590.5C251.245 589.94 251.385 589.35 251.565 588.73C251.765 588.09 252.005 587.42 252.285 586.72L254.445 587.56C254.245 588.12 254.065 588.65 253.905 589.15C253.765 589.65 253.655 590.12 253.575 590.56C253.515 591 253.485 591.42 253.485 591.82C253.485 592.66 253.665 593.37 254.025 593.95C254.405 594.55 254.925 595.04 255.585 595.42C256.245 595.8 256.995 596.08 257.835 596.26C258.695 596.44 259.605 596.53 260.565 596.53C261.725 596.53 262.805 596.43 263.805 596.23C264.825 596.03 265.715 595.74 266.475 595.36C267.255 595 267.865 594.58 268.305 594.1C268.745 593.64 268.965 593.14 268.965 592.6C268.965 592.34 268.865 592.1 268.665 591.88C268.465 591.66 268.165 591.45 267.765 591.25C267.365 591.05 266.885 590.86 266.325 590.68C265.765 590.48 265.125 590.28 264.405 590.08L264.975 587.59C266.015 587.99 266.935 588.33 267.735 588.61C268.535 588.87 269.235 589.08 269.835 589.24C270.435 589.4 270.955 589.52 271.395 589.6C271.835 589.66 272.205 589.69 272.505 589.69C272.925 589.69 273.225 589.81 273.405 590.05C273.605 590.27 273.705 590.54 273.705 590.86C273.705 591.18 273.565 591.48 273.285 591.76C273.005 592.02 272.645 592.15 272.205 592.15C272.085 592.15 271.965 592.15 271.845 592.15C271.725 592.15 271.595 592.15 271.455 592.15C271.335 592.15 271.215 592.15 271.095 592.15C271.135 592.33 271.165 592.47 271.185 592.57C271.205 592.69 271.215 592.84 271.215 593.02C271.215 593.76 270.955 594.48 270.435 595.18C269.935 595.88 269.195 596.51 268.215 597.07C267.235 597.65 266.045 598.11 264.645 598.45C263.265 598.79 261.685 598.96 259.905 598.96C258.325 598.96 256.855 598.7 255.495 598.18C254.155 597.68 253.075 596.92 252.255 595.9C251.435 594.88 251.025 593.59 251.025 592.03ZM262.065 604.63C261.645 604.63 261.285 604.48 260.985 604.18C260.705 603.9 260.565 603.56 260.565 603.16C260.565 602.76 260.705 602.41 260.985 602.11C261.285 601.81 261.645 601.66 262.065 601.66C262.465 601.66 262.805 601.81 263.085 602.11C263.385 602.41 263.535 602.76 263.535 603.16C263.535 603.56 263.385 603.9 263.085 604.18C262.805 604.48 262.465 604.63 262.065 604.63ZM257.955 604.63C257.535 604.63 257.175 604.48 256.875 604.18C256.595 603.9 256.455 603.56 256.455 603.16C256.455 602.76 256.595 602.41 256.875 602.11C257.175 601.81 257.535 601.66 257.955 601.66C258.355 601.66 258.695 601.81 258.975 602.11C259.275 602.41 259.425 602.76 259.425 603.16C259.425 603.56 259.275 603.9 258.975 604.18C258.695 604.48 258.355 604.63 257.955 604.63ZM272.215 592.15L272.485 589.69C273.625 589.69 274.425 589.58 274.885 589.36C275.345 589.14 275.605 588.75 275.665 588.19C275.745 587.63 275.765 586.85 275.725 585.85L275.155 570.58H277.585L278.185 585.58C278.225 586.64 278.185 587.58 278.065 588.4C277.965 589.22 277.705 589.91 277.285 590.47C276.885 591.03 276.275 591.45 275.455 591.73C274.655 592.01 273.575 592.15 272.215 592.15ZM288.738 592.15C287.138 592.15 285.908 591.97 285.048 591.61C284.208 591.25 283.628 590.69 283.308 589.93C282.988 589.17 282.808 588.19 282.768 586.99L282.168 570.58H284.628L285.228 586.03C285.268 587.01 285.358 587.77 285.498 588.31C285.658 588.83 285.998 589.19 286.518 589.39C287.058 589.59 287.898 589.69 289.038 589.69C289.458 589.69 289.758 589.81 289.938 590.05C290.138 590.27 290.238 590.54 290.238 590.86C290.238 591.18 290.098 591.48 289.818 591.76C289.538 592.02 289.178 592.15 288.738 592.15ZM288.738 592.15L289.038 589.69C290.038 589.69 290.818 589.62 291.378 589.48C291.938 589.32 292.358 589.03 292.638 588.61C292.938 588.17 293.178 587.54 293.358 586.72C293.538 585.9 293.758 584.83 294.018 583.51L296.358 583.96C296.278 584.32 296.188 584.72 296.088 585.16C295.988 585.6 295.898 586.04 295.818 586.48C295.758 586.9 295.728 587.27 295.728 587.59C295.728 587.89 295.748 588.17 295.788 588.43C295.828 588.69 295.978 588.91 296.238 589.09C296.498 589.27 296.938 589.42 297.558 589.54C298.178 589.64 299.068 589.69 300.228 589.69C300.648 589.69 300.948 589.81 301.128 590.05C301.328 590.27 301.428 590.54 301.428 590.86C301.428 591.18 301.288 591.48 301.008 591.76C300.728 592.02 300.368 592.15 299.928 592.15C298.708 592.15 297.738 592.09 297.018 591.97C296.298 591.83 295.748 591.63 295.368 591.37C295.008 591.11 294.748 590.79 294.588 590.41C294.448 590.01 294.338 589.55 294.258 589.03L295.158 589.09C294.838 589.73 294.488 590.25 294.108 590.65C293.748 591.05 293.328 591.36 292.848 591.58C292.368 591.8 291.788 591.95 291.108 592.03C290.448 592.11 289.658 592.15 288.738 592.15ZM294.708 577.12C294.288 577.12 293.928 576.98 293.628 576.7C293.348 576.4 293.208 576.05 293.208 575.65C293.208 575.25 293.348 574.9 293.628 574.6C293.928 574.3 294.288 574.15 294.708 574.15C295.108 574.15 295.448 574.3 295.728 574.6C296.028 574.9 296.178 575.25 296.178 575.65C296.178 576.05 296.028 576.4 295.728 576.7C295.448 576.98 295.108 577.12 294.708 577.12ZM292.668 580.42C292.248 580.42 291.888 580.28 291.588 580C291.308 579.7 291.168 579.35 291.168 578.95C291.168 578.55 291.308 578.2 291.588 577.9C291.888 577.6 292.248 577.45 292.668 577.45C293.068 577.45 293.408 577.6 293.688 577.9C293.988 578.2 294.138 578.55 294.138 578.95C294.138 579.35 293.988 579.7 293.688 580C293.408 580.28 293.068 580.42 292.668 580.42ZM296.748 580.42C296.328 580.42 295.968 580.28 295.668 580C295.388 579.7 295.248 579.35 295.248 578.95C295.248 578.55 295.388 578.2 295.668 577.9C295.968 577.6 296.328 577.45 296.748 577.45C297.148 577.45 297.488 577.6 297.768 577.9C298.068 578.2 298.218 578.55 298.218 578.95C298.218 579.35 298.068 579.7 297.768 580C297.488 580.28 297.148 580.42 296.748 580.42ZM299.93 592.15L300.23 589.69C300.79 589.69 301.23 589.57 301.55 589.33C301.89 589.09 302.21 588.69 302.51 588.13C302.83 587.57 303.23 586.82 303.71 585.88C304.19 584.92 304.67 584.14 305.15 583.54C305.65 582.92 306.13 582.44 306.59 582.1C307.07 581.74 307.52 581.49 307.94 581.35C308.36 581.21 308.75 581.14 309.11 581.14C309.77 581.14 310.36 581.29 310.88 581.59C311.4 581.87 311.89 582.36 312.35 583.06C312.81 583.74 313.28 584.68 313.76 585.88C314.22 586.98 314.63 587.81 314.99 588.37C315.37 588.91 315.76 589.27 316.16 589.45C316.58 589.61 317.05 589.69 317.57 589.69C317.99 589.69 318.29 589.81 318.47 590.05C318.67 590.27 318.77 590.54 318.77 590.86C318.77 591.18 318.63 591.48 318.35 591.76C318.07 592.02 317.71 592.15 317.27 592.15C316.49 592.15 315.77 592.02 315.11 591.76C314.47 591.5 313.93 591.09 313.49 590.53L313.91 589.9C313.69 590.52 313.39 591.03 313.01 591.43C312.65 591.81 312.24 592.09 311.78 592.27C311.32 592.47 310.83 592.57 310.31 592.57C309.65 592.57 308.97 592.43 308.27 592.15C307.59 591.87 306.93 591.47 306.29 590.95C305.65 590.43 305.09 589.82 304.61 589.12C304.09 590.04 303.59 590.72 303.11 591.16C302.65 591.58 302.17 591.85 301.67 591.97C301.17 592.09 300.59 592.15 299.93 592.15ZM305.75 586.84C306.09 587.4 306.45 587.89 306.83 588.31C307.23 588.73 307.63 589.08 308.03 589.36C308.43 589.62 308.82 589.82 309.2 589.96C309.6 590.08 309.96 590.14 310.28 590.14C310.98 590.14 311.49 589.89 311.81 589.39C312.15 588.89 312.14 588.19 311.78 587.29C311.6 586.83 311.41 586.38 311.21 585.94C311.03 585.5 310.83 585.1 310.61 584.74C310.39 584.36 310.14 584.07 309.86 583.87C309.58 583.65 309.27 583.54 308.93 583.54C308.63 583.54 308.31 583.64 307.97 583.84C307.65 584.04 307.3 584.38 306.92 584.86C306.56 585.34 306.17 586 305.75 586.84ZM317.273 592.15L317.543 589.69C318.683 589.69 319.483 589.58 319.943 589.36C320.403 589.14 320.663 588.75 320.723 588.19C320.803 587.63 320.823 586.85 320.783 585.85L320.213 570.58H322.643L323.243 585.58C323.283 586.64 323.243 587.58 323.123 588.4C323.023 589.22 322.763 589.91 322.343 590.47C321.943 591.03 321.333 591.45 320.513 591.73C319.713 592.01 318.633 592.15 317.273 592.15ZM327.826 592L327.226 570.58H329.656L330.256 592H327.826ZM350.119 603.82C349.219 603.82 348.269 603.73 347.269 603.55C346.269 603.39 345.329 603.07 344.449 602.59C343.589 602.13 342.879 601.47 342.319 600.61C341.779 599.77 341.509 598.68 341.509 597.34C341.509 595.98 341.759 594.79 342.259 593.77C342.779 592.77 343.439 591.89 344.239 591.13C345.059 590.35 345.919 589.65 346.819 589.03C347.719 588.41 348.569 587.83 349.369 587.29C350.189 586.75 350.849 586.21 351.349 585.67C351.869 585.11 352.129 584.5 352.129 583.84C352.129 583.58 352.039 583.32 351.859 583.06C351.699 582.78 351.429 582.55 351.049 582.37C350.689 582.19 350.199 582.1 349.579 582.1C349.139 582.1 348.649 582.16 348.109 582.28C347.569 582.4 347.049 582.57 346.549 582.79C346.069 582.99 345.669 583.22 345.349 583.48C345.889 583.92 346.389 584.35 346.849 584.77C347.329 585.19 347.819 585.65 348.319 586.15C348.819 586.63 349.359 587.18 349.939 587.8C350.439 588.08 350.929 588.34 351.409 588.58C351.909 588.8 352.439 589 352.999 589.18C353.559 589.34 354.199 589.47 354.919 589.57C355.639 589.65 356.479 589.69 357.439 589.69C357.859 589.69 358.159 589.81 358.339 590.05C358.539 590.27 358.639 590.54 358.639 590.86C358.639 591.18 358.499 591.48 358.219 591.76C357.939 592.02 357.579 592.15 357.139 592.15C355.479 592.15 354.099 592.02 352.999 591.76C351.919 591.5 350.999 591.15 350.239 590.71C349.479 590.27 348.749 589.78 348.049 589.24C347.709 588.8 347.329 588.36 346.909 587.92C346.489 587.48 346.029 587.04 345.529 586.6C345.049 586.14 344.529 585.71 343.969 585.31C343.849 585.21 343.729 585.03 343.609 584.77C343.489 584.51 343.389 584.24 343.309 583.96C343.229 583.68 343.189 583.47 343.189 583.33C343.189 583.03 343.379 582.67 343.759 582.25C344.139 581.83 344.649 581.43 345.289 581.05C345.929 580.65 346.659 580.32 347.479 580.06C348.299 579.8 349.149 579.67 350.029 579.67C351.449 579.67 352.549 580.02 353.329 580.72C354.109 581.42 354.499 582.24 354.499 583.18C354.499 584.2 354.239 585.11 353.719 585.91C353.219 586.71 352.569 587.44 351.769 588.1C350.969 588.76 350.119 589.4 349.219 590.02C348.339 590.64 347.499 591.29 346.699 591.97C345.899 592.63 345.239 593.36 344.719 594.16C344.219 594.96 343.969 595.89 343.969 596.95C343.969 597.87 344.189 598.62 344.629 599.2C345.069 599.78 345.619 600.22 346.279 600.52C346.939 600.84 347.619 601.06 348.319 601.18C349.019 601.3 349.619 601.36 350.119 601.36C350.819 601.36 351.529 601.31 352.249 601.21C352.989 601.11 353.749 600.95 354.529 600.73C355.329 600.51 356.129 600.24 356.929 599.92L357.709 601.84C357.129 602.18 356.419 602.5 355.579 602.8C354.739 603.12 353.849 603.37 352.909 603.55C351.969 603.73 351.039 603.82 350.119 603.82ZM357.146 592.15L357.446 589.69C357.946 589.69 358.496 589.69 359.096 589.69C359.716 589.67 360.336 589.65 360.956 589.63C361.596 589.61 362.186 589.57 362.726 589.51C363.266 589.43 363.716 589.33 364.076 589.21C364.796 588.95 365.356 588.63 365.756 588.25C366.156 587.85 366.436 587.33 366.596 586.69C366.776 586.03 366.866 585.19 366.866 584.17C366.866 583.33 366.756 582.55 366.536 581.83C366.316 581.11 366.006 580.53 365.606 580.09C365.206 579.65 364.726 579.43 364.166 579.43C363.706 579.43 363.286 579.61 362.906 579.97C362.546 580.31 362.256 580.75 362.036 581.29C361.836 581.83 361.736 582.37 361.736 582.91C361.736 583.33 361.816 583.69 361.976 583.99C362.156 584.29 362.446 584.53 362.846 584.71C363.246 584.87 363.766 584.95 364.406 584.95C364.986 584.95 365.566 584.89 366.146 584.77C366.746 584.65 367.256 584.49 367.676 584.29L367.796 586.39C367.476 586.61 367.116 586.79 366.716 586.93C366.316 587.07 365.896 587.17 365.456 587.23C365.016 587.29 364.576 587.32 364.136 587.32C363.116 587.32 362.246 587.16 361.526 586.84C360.826 586.5 360.286 586.05 359.906 585.49C359.546 584.91 359.366 584.25 359.366 583.51C359.366 582.75 359.486 581.99 359.726 581.23C359.966 580.45 360.306 579.74 360.746 579.1C361.186 578.46 361.716 577.95 362.336 577.57C362.956 577.17 363.646 576.97 364.406 576.97C365.486 576.97 366.376 577.32 367.076 578.02C367.796 578.72 368.326 579.64 368.666 580.78C369.026 581.9 369.206 583.09 369.206 584.35C369.206 585.85 368.946 587.14 368.426 588.22C367.926 589.28 367.086 590.16 365.906 590.86C365.446 591.12 364.886 591.34 364.226 591.52C363.586 591.68 362.876 591.81 362.096 591.91C361.336 592.01 360.536 592.07 359.696 592.09C358.856 592.13 358.006 592.15 357.146 592.15ZM365.936 573.88C365.516 573.88 365.156 573.74 364.856 573.46C364.576 573.16 364.436 572.81 364.436 572.41C364.436 572.01 364.576 571.66 364.856 571.36C365.156 571.06 365.516 570.91 365.936 570.91C366.336 570.91 366.676 571.06 366.956 571.36C367.256 571.66 367.406 572.01 367.406 572.41C367.406 572.81 367.256 573.16 366.956 573.46C366.676 573.74 366.336 573.88 365.936 573.88ZM361.826 573.88C361.406 573.88 361.046 573.74 360.746 573.46C360.466 573.16 360.326 572.81 360.326 572.41C360.326 572.01 360.466 571.66 360.746 571.36C361.046 571.06 361.406 570.91 361.826 570.91C362.226 570.91 362.566 571.06 362.846 571.36C363.146 571.66 363.296 572.01 363.296 572.41C363.296 572.81 363.146 573.16 362.846 573.46C362.566 573.74 362.226 573.88 361.826 573.88ZM372.304 598.9L371.764 596.44C372.964 596.28 374.064 596.05 375.064 595.75C376.084 595.47 376.954 595.06 377.674 594.52C378.414 593.98 378.984 593.27 379.384 592.39C379.784 591.51 379.984 590.41 379.984 589.09C379.984 587.73 379.734 586.6 379.234 585.7C378.734 584.8 378.084 584.35 377.284 584.35C376.864 584.35 376.474 584.51 376.114 584.83C375.754 585.15 375.454 585.58 375.214 586.12C374.994 586.66 374.884 587.25 374.884 587.89C374.884 588.25 374.964 588.55 375.124 588.79C375.284 589.01 375.514 589.19 375.814 589.33C376.134 589.45 376.534 589.54 377.014 589.6C377.494 589.66 378.054 589.69 378.694 589.69H385.024C385.444 589.69 385.744 589.81 385.924 590.05C386.124 590.27 386.224 590.54 386.224 590.86C386.224 591.18 386.084 591.48 385.804 591.76C385.524 592.02 385.164 592.15 384.724 592.15H377.554C376.654 592.15 375.814 592.02 375.034 591.76C374.274 591.5 373.654 591.1 373.174 590.56C372.714 590 372.484 589.27 372.484 588.37C372.484 587.53 372.614 586.73 372.874 585.97C373.134 585.19 373.484 584.5 373.924 583.9C374.384 583.28 374.914 582.79 375.514 582.43C376.134 582.07 376.804 581.89 377.524 581.89C378.444 581.89 379.264 582.16 379.984 582.7C380.704 583.24 381.274 584.06 381.694 585.16C382.114 586.24 382.324 587.61 382.324 589.27C382.324 591.13 381.944 592.73 381.184 594.07C380.444 595.43 379.324 596.51 377.824 597.31C376.344 598.11 374.504 598.64 372.304 598.9ZM384.715 592.15L385.015 589.69C385.575 589.69 386.015 589.57 386.335 589.33C386.675 589.09 386.995 588.69 387.295 588.13C387.615 587.57 388.015 586.82 388.495 585.88C388.975 584.92 389.455 584.14 389.935 583.54C390.435 582.92 390.915 582.44 391.375 582.1C391.855 581.74 392.305 581.49 392.725 581.35C393.145 581.21 393.535 581.14 393.895 581.14C394.555 581.14 395.145 581.29 395.665 581.59C396.185 581.87 396.675 582.36 397.135 583.06C397.595 583.74 398.065 584.68 398.545 585.88C399.005 586.98 399.415 587.81 399.775 588.37C400.155 588.91 400.545 589.27 400.945 589.45C401.365 589.61 401.835 589.69 402.355 589.69C402.775 589.69 403.075 589.81 403.255 590.05C403.455 590.27 403.555 590.54 403.555 590.86C403.555 591.18 403.415 591.48 403.135 591.76C402.855 592.02 402.495 592.15 402.055 592.15C401.275 592.15 400.555 592.02 399.895 591.76C399.255 591.5 398.715 591.09 398.275 590.53L398.695 589.9C398.475 590.52 398.175 591.03 397.795 591.43C397.435 591.81 397.025 592.09 396.565 592.27C396.105 592.47 395.615 592.57 395.095 592.57C394.435 592.57 393.755 592.43 393.055 592.15C392.375 591.87 391.715 591.47 391.075 590.95C390.435 590.43 389.875 589.82 389.395 589.12C388.875 590.04 388.375 590.72 387.895 591.16C387.435 591.58 386.955 591.85 386.455 591.97C385.955 592.09 385.375 592.15 384.715 592.15ZM390.535 586.84C390.875 587.4 391.235 587.89 391.615 588.31C392.015 588.73 392.415 589.08 392.815 589.36C393.215 589.62 393.605 589.82 393.985 589.96C394.385 590.08 394.745 590.14 395.065 590.14C395.765 590.14 396.275 589.89 396.595 589.39C396.935 588.89 396.925 588.19 396.565 587.29C396.385 586.83 396.195 586.38 395.995 585.94C395.815 585.5 395.615 585.1 395.395 584.74C395.175 584.36 394.925 584.07 394.645 583.87C394.365 583.65 394.055 583.54 393.715 583.54C393.415 583.54 393.095 583.64 392.755 583.84C392.435 584.04 392.085 584.38 391.705 584.86C391.345 585.34 390.955 586 390.535 586.84ZM402.059 592.15L402.329 589.69C403.469 589.69 404.269 589.58 404.729 589.36C405.189 589.14 405.449 588.75 405.509 588.19C405.589 587.63 405.609 586.85 405.569 585.85L404.999 570.58H407.429L408.029 585.58C408.069 586.64 408.029 587.58 407.909 588.4C407.809 589.22 407.549 589.91 407.129 590.47C406.729 591.03 406.119 591.45 405.299 591.73C404.499 592.01 403.419 592.15 402.059 592.15ZM412.612 592L412.012 570.58H414.442L415.042 592H412.612Z" fill="#F18701"/>
<path d="M314.905 846.448C415.439 856.883 431.98 788.201 427.683 752.271L442.7 875.908L415.338 971.439L260.606 982.971C248.131 963.081 221.143 925.011 212.99 931.842C202.799 940.382 188.898 833.37 314.905 846.448Z" fill="#5C27FE"/>
</g>
<defs>
<clipPath id="clip0_6_16">
<rect width="430" height="932" fill="white"/>
</clipPath>
</defs>
</svg>
